G04 Layer_Color=16711935*
%FSLAX25Y25*%
%MOIN*%
G70*
G01*
G75*
%ADD60C,0.07099*%
%ADD61O,0.10642X0.08280*%
%ADD62R,0.10642X0.08280*%
%ADD63R,0.03556X0.17335*%
%ADD64R,0.03162X0.08674*%
%ADD65O,0.10642X0.08280*%
%ADD66C,0.09855*%
D60*
X98913Y117323D02*
D03*
X146157D02*
D03*
X138283D02*
D03*
X130409D02*
D03*
X122535D02*
D03*
X114661D02*
D03*
X106787D02*
D03*
X177653D02*
D03*
X169779D02*
D03*
X161905D02*
D03*
X154031D02*
D03*
X91039D02*
D03*
X177653Y7087D02*
D03*
X98913D02*
D03*
X106787D02*
D03*
X114661D02*
D03*
X122535D02*
D03*
X130409D02*
D03*
X138283D02*
D03*
X146157D02*
D03*
X154031D02*
D03*
X161905D02*
D03*
X169779D02*
D03*
X91039D02*
D03*
D61*
X221701Y31339D02*
D03*
X233701D02*
D03*
X221701Y41339D02*
D03*
X233701D02*
D03*
X221701Y51339D02*
D03*
X253701Y31337D02*
D03*
Y41337D02*
D03*
X265701D02*
D03*
D62*
X233701Y51339D02*
D03*
X265701Y51337D02*
D03*
D63*
X53937Y53443D02*
D03*
X34252D02*
D03*
D64*
X38189Y45176D02*
D03*
X42126D02*
D03*
X46063D02*
D03*
X50000D02*
D03*
D65*
X265701Y31337D02*
D03*
X253701Y51337D02*
D03*
D66*
X284646Y47243D02*
D03*
Y35038D02*
D03*
X202756D02*
D03*
Y47243D02*
D03*
M02*
