M48
;Layer_Color=9474304
;FILE_FORMAT=2:5
INCH,LZ
;TYPE=PLATED
T1F00S00C0.00787
T2F00S00C0.03543
T3F00S00C0.03937
%
T01
X0003937Y0010236
X0003937Y0042518
X0029528Y0056298
X0046063
Y0070276
X0042126
X0036319Y007549
X0025591Y0075492
Y0078445
Y0081494
X001752Y0081888
X0003543
X0020079Y0070176
X0025591Y0071357
X0042126Y0083661
X0046063
X0079528Y0088975
Y0077164
Y0065353
Y0053542
Y0041731
Y002992
X0077953Y0019291
X009252Y002362
X0101279Y0025984
X0104724Y0028739
X0104134Y0063189
X0093307Y0065353
Y0091337
X0131983Y0064567
Y0059842
X0136708
Y0064567
X0082677Y0003935
X0049213Y0010235
X0048917Y0025984
X0046063Y0039369
X014252Y0039764
X0153239Y003937
X0155512Y0042124
Y0051573
X0152362Y0056299
X0155999Y0059252
Y0065158
X0151575Y0067618
X0159843Y0074606
X018376Y0074902
X0188287Y0074803
X0196063Y0072835
Y007874
X0199606Y0066928
X0203543Y0070865
X020748Y0074802
X0192913Y0064567
X0183071
X0179528Y0053543
X0188976
Y0041339
X0179528
Y0030315
X0188976
Y0018898
X0179528
X015315Y002992
X0140551
X0177953Y0091339
X024685Y0085825
X0243701Y0045668
Y0041337
Y0037006
X0287008Y0026378
X0218504Y0004331
X0217323Y0098032
X0217323Y0111421
X022126
X0225197
X0229134
X0237008
X0240945
X0248819
X0252756
Y0096949
X0203543Y0098819
X0205123Y0102164
Y0106101
Y0110038
Y0113975
X0197638Y0103543
Y0098819
X0190251Y009154
X0190251Y0106693
X0179921Y0111417
X0177953Y0097244
X0147731Y0098327
X014252Y0091731
X0102161Y0098917
X0099213Y0101969
X0095763Y0104331
X0091339Y0109449
X0083952Y0106693
X0079528Y0100786
X0082677Y0120471
X0043307
X0003937
T02
X0091039Y0007087
X0098913
X0106787
X0114661
X0122535
X0130409
X0138283
X0146157
X0154031
X0161905
X0169779
X0177653
Y0117323
X0169779
X0161905
X0154031
X0146157
X0138283
X0130409
X0122535
X0114661
X0106787
X0098913
X0091039
T03
X0202756Y0035038
Y0047243
X0284646
Y0035038
M30
