G04 Layer_Color=12566272*
%FSLAX25Y25*%
%MOIN*%
G70*
G01*
G75*
%ADD68C,0.03150*%
%ADD69C,0.03543*%
G36*
X11919Y18657D02*
X12334D01*
Y18554D01*
X12541D01*
Y18450D01*
X12749D01*
Y18346D01*
X12956D01*
Y18243D01*
X13060D01*
Y18139D01*
X13163D01*
Y18035D01*
X13267D01*
Y17932D01*
X13371D01*
Y17828D01*
X13474D01*
Y17724D01*
Y17620D01*
X13578D01*
Y17517D01*
X13682D01*
Y17413D01*
Y17309D01*
X13785D01*
Y17206D01*
Y17102D01*
X13889D01*
Y16998D01*
Y16895D01*
Y16791D01*
X13993D01*
Y16687D01*
Y16583D01*
Y16480D01*
X14097D01*
Y16376D01*
Y16273D01*
Y16169D01*
Y16065D01*
Y15961D01*
X14200D01*
Y15858D01*
Y15754D01*
Y15650D01*
Y15547D01*
Y15443D01*
Y15339D01*
Y15236D01*
X14304D01*
Y15132D01*
Y15028D01*
Y14925D01*
Y14821D01*
Y14717D01*
Y14614D01*
Y14510D01*
Y14406D01*
Y14302D01*
Y14199D01*
Y14095D01*
Y13991D01*
Y13888D01*
Y13784D01*
Y13680D01*
Y13577D01*
Y13473D01*
Y13369D01*
Y13266D01*
Y13162D01*
Y13058D01*
Y12955D01*
Y12851D01*
Y12747D01*
Y12643D01*
Y12540D01*
Y12436D01*
Y12332D01*
Y12229D01*
Y12125D01*
Y12021D01*
Y11918D01*
Y11814D01*
Y11710D01*
Y11607D01*
Y11503D01*
Y11399D01*
Y11296D01*
Y11192D01*
Y11088D01*
Y10984D01*
Y10881D01*
Y10777D01*
Y10673D01*
Y10570D01*
Y10466D01*
Y10362D01*
Y10259D01*
Y10155D01*
Y10051D01*
Y9948D01*
Y9844D01*
Y9740D01*
Y9637D01*
Y9533D01*
Y9429D01*
Y9326D01*
Y9222D01*
Y9118D01*
Y9014D01*
Y8911D01*
Y8807D01*
Y8703D01*
Y8600D01*
Y8496D01*
Y8392D01*
Y8289D01*
Y8185D01*
Y8081D01*
Y7978D01*
Y7874D01*
Y7770D01*
Y7667D01*
Y7563D01*
Y7459D01*
Y7356D01*
Y7252D01*
Y7148D01*
Y7045D01*
Y6941D01*
Y6837D01*
Y6733D01*
Y6630D01*
Y6526D01*
Y6422D01*
Y6319D01*
Y6215D01*
Y6111D01*
X12541D01*
Y6215D01*
Y6319D01*
Y6422D01*
Y6526D01*
Y6630D01*
Y6733D01*
Y6837D01*
Y6941D01*
Y7045D01*
Y7148D01*
Y7252D01*
Y7356D01*
Y7459D01*
Y7563D01*
Y7667D01*
Y7770D01*
Y7874D01*
Y7978D01*
Y8081D01*
Y8185D01*
Y8289D01*
Y8392D01*
Y8496D01*
Y8600D01*
Y8703D01*
Y8807D01*
Y8911D01*
Y9014D01*
Y9118D01*
Y9222D01*
Y9326D01*
Y9429D01*
Y9533D01*
Y9637D01*
Y9740D01*
Y9844D01*
Y9948D01*
Y10051D01*
Y10155D01*
Y10259D01*
Y10362D01*
Y10466D01*
Y10570D01*
Y10673D01*
Y10777D01*
Y10881D01*
Y10984D01*
Y11088D01*
Y11192D01*
Y11296D01*
Y11399D01*
Y11503D01*
Y11607D01*
Y11710D01*
Y11814D01*
Y11918D01*
Y12021D01*
Y12125D01*
Y12229D01*
Y12332D01*
Y12436D01*
Y12540D01*
Y12643D01*
Y12747D01*
Y12851D01*
Y12955D01*
Y13058D01*
Y13162D01*
Y13266D01*
Y13369D01*
Y13473D01*
Y13577D01*
Y13680D01*
Y13784D01*
Y13888D01*
Y13991D01*
Y14095D01*
Y14199D01*
Y14302D01*
Y14406D01*
Y14510D01*
Y14614D01*
X12438D01*
Y14717D01*
Y14821D01*
Y14925D01*
Y15028D01*
X12334D01*
Y15132D01*
Y15236D01*
X12230D01*
Y15339D01*
Y15443D01*
X12127D01*
Y15547D01*
X12023D01*
Y15650D01*
X11816D01*
Y15754D01*
X10882D01*
Y15650D01*
X10675D01*
Y15547D01*
X10571D01*
Y15443D01*
X10468D01*
Y15339D01*
X10364D01*
Y15236D01*
Y15132D01*
X10260D01*
Y15028D01*
Y14925D01*
Y14821D01*
X10157D01*
Y14717D01*
Y14614D01*
Y14510D01*
Y14406D01*
Y14302D01*
Y14199D01*
Y14095D01*
Y13991D01*
Y13888D01*
Y13784D01*
Y13680D01*
Y13577D01*
Y13473D01*
Y13369D01*
Y13266D01*
Y13162D01*
Y13058D01*
Y12955D01*
Y12851D01*
Y12747D01*
Y12643D01*
Y12540D01*
Y12436D01*
Y12332D01*
Y12229D01*
Y12125D01*
Y12021D01*
Y11918D01*
Y11814D01*
Y11710D01*
Y11607D01*
Y11503D01*
Y11399D01*
Y11296D01*
Y11192D01*
Y11088D01*
Y10984D01*
Y10881D01*
Y10777D01*
Y10673D01*
Y10570D01*
Y10466D01*
Y10362D01*
Y10259D01*
Y10155D01*
Y10051D01*
Y9948D01*
Y9844D01*
Y9740D01*
X10053D01*
Y9637D01*
Y9533D01*
Y9429D01*
Y9326D01*
Y9222D01*
Y9118D01*
Y9014D01*
Y8911D01*
Y8807D01*
Y8703D01*
Y8600D01*
Y8496D01*
X9949D01*
Y8392D01*
Y8289D01*
Y8185D01*
Y8081D01*
Y7978D01*
X9845D01*
Y7874D01*
Y7770D01*
Y7667D01*
Y7563D01*
X9742D01*
Y7459D01*
Y7356D01*
Y7252D01*
X9638D01*
Y7148D01*
Y7045D01*
X9534D01*
Y6941D01*
Y6837D01*
X9431D01*
Y6733D01*
Y6630D01*
X9327D01*
Y6526D01*
X9223D01*
Y6422D01*
Y6319D01*
X9120D01*
Y6215D01*
X9016D01*
Y6111D01*
X8809D01*
Y6008D01*
X8705D01*
Y5904D01*
X8497D01*
Y5800D01*
X8290D01*
Y5697D01*
X7979D01*
Y5593D01*
X6424D01*
Y5697D01*
X6009D01*
Y5800D01*
X5802D01*
Y5904D01*
X5594D01*
Y6008D01*
X5491D01*
Y6111D01*
X5283D01*
Y6215D01*
X5180D01*
Y6319D01*
X5076D01*
Y6422D01*
X4972D01*
Y6526D01*
Y6630D01*
X4868D01*
Y6733D01*
X4765D01*
Y6837D01*
Y6941D01*
X4661D01*
Y7045D01*
Y7148D01*
X4558D01*
Y7252D01*
Y7356D01*
X4454D01*
Y7459D01*
Y7563D01*
Y7667D01*
X4350D01*
Y7770D01*
Y7874D01*
Y7978D01*
Y8081D01*
X4246D01*
Y8185D01*
Y8289D01*
Y8392D01*
Y8496D01*
Y8600D01*
Y8703D01*
X4143D01*
Y8807D01*
Y8911D01*
Y9014D01*
Y9118D01*
Y9222D01*
Y9326D01*
Y9429D01*
Y9533D01*
Y9637D01*
Y9740D01*
Y9844D01*
X4039D01*
Y9948D01*
Y10051D01*
Y10155D01*
Y10259D01*
Y10362D01*
Y10466D01*
Y10570D01*
Y10673D01*
Y10777D01*
Y10881D01*
Y10984D01*
Y11088D01*
Y11192D01*
Y11296D01*
Y11399D01*
Y11503D01*
Y11607D01*
Y11710D01*
Y11814D01*
Y11918D01*
Y12021D01*
Y12125D01*
Y12229D01*
Y12332D01*
Y12436D01*
Y12540D01*
Y12643D01*
Y12747D01*
Y12851D01*
Y12955D01*
Y13058D01*
Y13162D01*
Y13266D01*
Y13369D01*
Y13473D01*
Y13577D01*
Y13680D01*
Y13784D01*
Y13888D01*
Y13991D01*
Y14095D01*
Y14199D01*
Y14302D01*
Y14406D01*
Y14510D01*
Y14614D01*
Y14717D01*
Y14821D01*
Y14925D01*
Y15028D01*
Y15132D01*
Y15236D01*
Y15339D01*
Y15443D01*
Y15547D01*
Y15650D01*
Y15754D01*
Y15858D01*
Y15961D01*
Y16065D01*
Y16169D01*
Y16273D01*
Y16376D01*
Y16480D01*
Y16583D01*
Y16687D01*
Y16791D01*
Y16895D01*
Y16998D01*
Y17102D01*
Y17206D01*
Y17309D01*
Y17413D01*
Y17517D01*
Y17620D01*
Y17724D01*
Y17828D01*
Y17932D01*
Y18035D01*
Y18139D01*
X5802D01*
Y18035D01*
Y17932D01*
Y17828D01*
Y17724D01*
Y17620D01*
Y17517D01*
Y17413D01*
Y17309D01*
Y17206D01*
Y17102D01*
Y16998D01*
Y16895D01*
Y16791D01*
Y16687D01*
Y16583D01*
Y16480D01*
Y16376D01*
Y16273D01*
Y16169D01*
Y16065D01*
Y15961D01*
Y15858D01*
Y15754D01*
Y15650D01*
Y15547D01*
Y15443D01*
Y15339D01*
Y15236D01*
Y15132D01*
Y15028D01*
Y14925D01*
Y14821D01*
Y14717D01*
Y14614D01*
Y14510D01*
Y14406D01*
Y14302D01*
Y14199D01*
Y14095D01*
Y13991D01*
Y13888D01*
Y13784D01*
Y13680D01*
Y13577D01*
Y13473D01*
Y13369D01*
Y13266D01*
Y13162D01*
Y13058D01*
Y12955D01*
Y12851D01*
Y12747D01*
Y12643D01*
Y12540D01*
Y12436D01*
Y12332D01*
Y12229D01*
Y12125D01*
Y12021D01*
Y11918D01*
Y11814D01*
Y11710D01*
Y11607D01*
Y11503D01*
Y11399D01*
Y11296D01*
Y11192D01*
Y11088D01*
Y10984D01*
Y10881D01*
Y10777D01*
Y10673D01*
Y10570D01*
Y10466D01*
Y10362D01*
Y10259D01*
Y10155D01*
X5905D01*
Y10051D01*
Y9948D01*
Y9844D01*
Y9740D01*
Y9637D01*
Y9533D01*
X6009D01*
Y9429D01*
Y9326D01*
X6113D01*
Y9222D01*
Y9118D01*
X6216D01*
Y9014D01*
Y8911D01*
X6320D01*
Y8807D01*
X6424D01*
Y8703D01*
X6631D01*
Y8600D01*
X7150D01*
Y8496D01*
X7253D01*
Y8600D01*
X7772D01*
Y8703D01*
X7875D01*
Y8807D01*
X7979D01*
Y8911D01*
X8083D01*
Y9014D01*
X8186D01*
Y9118D01*
Y9222D01*
Y9326D01*
X8290D01*
Y9429D01*
Y9533D01*
Y9637D01*
Y9740D01*
X8394D01*
Y9844D01*
Y9948D01*
Y10051D01*
Y10155D01*
Y10259D01*
Y10362D01*
Y10466D01*
Y10570D01*
Y10673D01*
Y10777D01*
Y10881D01*
Y10984D01*
Y11088D01*
Y11192D01*
Y11296D01*
Y11399D01*
Y11503D01*
Y11607D01*
Y11710D01*
Y11814D01*
Y11918D01*
Y12021D01*
Y12125D01*
Y12229D01*
Y12332D01*
Y12436D01*
Y12540D01*
Y12643D01*
Y12747D01*
Y12851D01*
Y12955D01*
Y13058D01*
Y13162D01*
Y13266D01*
Y13369D01*
Y13473D01*
Y13577D01*
Y13680D01*
Y13784D01*
Y13888D01*
Y13991D01*
Y14095D01*
Y14199D01*
Y14302D01*
Y14406D01*
Y14510D01*
Y14614D01*
Y14717D01*
Y14821D01*
Y14925D01*
Y15028D01*
Y15132D01*
Y15236D01*
Y15339D01*
Y15443D01*
Y15547D01*
X8497D01*
Y15650D01*
Y15754D01*
Y15858D01*
Y15961D01*
Y16065D01*
Y16169D01*
Y16273D01*
Y16376D01*
X8601D01*
Y16480D01*
Y16583D01*
Y16687D01*
Y16791D01*
X8705D01*
Y16895D01*
Y16998D01*
Y17102D01*
X8809D01*
Y17206D01*
Y17309D01*
Y17413D01*
X8912D01*
Y17517D01*
Y17620D01*
X9016D01*
Y17724D01*
X9120D01*
Y17828D01*
Y17932D01*
X9223D01*
Y18035D01*
X9327D01*
Y18139D01*
X9431D01*
Y18243D01*
X9534D01*
Y18346D01*
X9742D01*
Y18450D01*
X9949D01*
Y18554D01*
X10157D01*
Y18657D01*
X10571D01*
Y18761D01*
X11919D01*
Y18657D01*
D02*
G37*
G36*
X21458Y60546D02*
X21666D01*
Y60443D01*
X21873D01*
Y60339D01*
X21977D01*
Y60235D01*
X22080D01*
Y60131D01*
X22184D01*
Y60028D01*
X22288D01*
Y59924D01*
X22391D01*
Y59820D01*
Y59717D01*
X22495D01*
Y59613D01*
Y59509D01*
X22599D01*
Y59406D01*
Y59302D01*
Y59198D01*
X22702D01*
Y59095D01*
Y58991D01*
Y58887D01*
Y58784D01*
X22806D01*
Y58680D01*
Y58576D01*
Y58473D01*
Y58369D01*
Y58265D01*
Y58161D01*
Y58058D01*
Y57954D01*
Y57850D01*
X22910D01*
Y57747D01*
Y57643D01*
Y57539D01*
Y57436D01*
Y57332D01*
Y57228D01*
Y57125D01*
X22806D01*
Y57021D01*
Y56917D01*
Y56814D01*
Y56710D01*
Y56606D01*
Y56502D01*
Y56399D01*
Y56295D01*
Y56191D01*
X22702D01*
Y56088D01*
Y55984D01*
Y55880D01*
Y55777D01*
X22599D01*
Y55673D01*
Y55569D01*
Y55466D01*
X22495D01*
Y55362D01*
Y55258D01*
X22391D01*
Y55155D01*
Y55051D01*
X22288D01*
Y54947D01*
X22184D01*
Y54843D01*
X22080D01*
Y54740D01*
X21977D01*
Y54636D01*
X21873D01*
Y54532D01*
X21666D01*
Y54429D01*
X21354D01*
Y54325D01*
X20318D01*
Y54429D01*
X20007D01*
Y54532D01*
X19799D01*
Y54636D01*
X19696D01*
Y54740D01*
X19488D01*
Y54843D01*
Y54947D01*
X19385D01*
Y55051D01*
X19281D01*
Y55155D01*
X19177D01*
Y55258D01*
Y55362D01*
X19073D01*
Y55466D01*
Y55569D01*
Y55673D01*
X18970D01*
Y55777D01*
Y55880D01*
Y55984D01*
Y56088D01*
X18866D01*
Y56191D01*
Y56295D01*
Y56399D01*
Y56502D01*
Y56606D01*
Y56710D01*
X18762D01*
Y56814D01*
Y56917D01*
Y57021D01*
Y57125D01*
Y57228D01*
Y57332D01*
Y57436D01*
Y57539D01*
Y57643D01*
Y57747D01*
Y57850D01*
Y57954D01*
Y58058D01*
Y58161D01*
Y58265D01*
X18866D01*
Y58369D01*
Y58473D01*
Y58576D01*
Y58680D01*
Y58784D01*
Y58887D01*
Y58991D01*
X18970D01*
Y59095D01*
Y59198D01*
Y59302D01*
X19073D01*
Y59406D01*
Y59509D01*
Y59613D01*
X19177D01*
Y59717D01*
Y59820D01*
X19281D01*
Y59924D01*
X19385D01*
Y60028D01*
Y60131D01*
X19488D01*
Y60235D01*
X19592D01*
Y60339D01*
X19799D01*
Y60443D01*
X19903D01*
Y60546D01*
X20214D01*
Y60650D01*
X21458D01*
Y60546D01*
D02*
G37*
G36*
X11816Y61790D02*
X12334D01*
Y61687D01*
X12541D01*
Y61583D01*
X12749D01*
Y61479D01*
X12956D01*
Y61376D01*
X13060D01*
Y61272D01*
X13163D01*
Y61168D01*
X13267D01*
Y61065D01*
X13371D01*
Y60961D01*
X13474D01*
Y60857D01*
Y60754D01*
X13578D01*
Y60650D01*
X13682D01*
Y60546D01*
Y60443D01*
X13785D01*
Y60339D01*
Y60235D01*
X13889D01*
Y60131D01*
Y60028D01*
Y59924D01*
X13993D01*
Y59820D01*
Y59717D01*
Y59613D01*
X14097D01*
Y59509D01*
Y59406D01*
Y59302D01*
Y59198D01*
Y59095D01*
X14200D01*
Y58991D01*
Y58887D01*
Y58784D01*
Y58680D01*
Y58576D01*
Y58473D01*
Y58369D01*
X14304D01*
Y58265D01*
Y58161D01*
Y58058D01*
Y57954D01*
Y57850D01*
Y57747D01*
Y57643D01*
Y57539D01*
Y57436D01*
Y57332D01*
Y57228D01*
Y57125D01*
Y57021D01*
Y56917D01*
Y56814D01*
Y56710D01*
Y56606D01*
Y56502D01*
Y56399D01*
Y56295D01*
Y56191D01*
Y56088D01*
Y55984D01*
Y55880D01*
Y55777D01*
Y55673D01*
Y55569D01*
Y55466D01*
Y55362D01*
Y55258D01*
Y55155D01*
Y55051D01*
Y54947D01*
Y54843D01*
Y54740D01*
Y54636D01*
Y54532D01*
Y54429D01*
Y54325D01*
Y54221D01*
Y54118D01*
Y54014D01*
Y53910D01*
Y53807D01*
Y53703D01*
Y53599D01*
Y53496D01*
Y53392D01*
Y53288D01*
Y53184D01*
Y53081D01*
Y52977D01*
Y52873D01*
Y52770D01*
Y52666D01*
Y52562D01*
Y52459D01*
Y52355D01*
Y52251D01*
Y52148D01*
Y52044D01*
Y51940D01*
Y51837D01*
Y51733D01*
Y51629D01*
Y51525D01*
Y51422D01*
Y51318D01*
Y51214D01*
Y51111D01*
Y51007D01*
Y50903D01*
Y50800D01*
Y50696D01*
Y50592D01*
Y50489D01*
Y50385D01*
Y50281D01*
Y50178D01*
Y50074D01*
Y49970D01*
Y49867D01*
Y49763D01*
Y49659D01*
Y49556D01*
Y49452D01*
Y49348D01*
Y49244D01*
X12541D01*
Y49348D01*
Y49452D01*
Y49556D01*
Y49659D01*
Y49763D01*
Y49867D01*
Y49970D01*
Y50074D01*
Y50178D01*
Y50281D01*
Y50385D01*
Y50489D01*
Y50592D01*
Y50696D01*
Y50800D01*
Y50903D01*
Y51007D01*
Y51111D01*
Y51214D01*
Y51318D01*
Y51422D01*
Y51525D01*
Y51629D01*
Y51733D01*
Y51837D01*
Y51940D01*
Y52044D01*
Y52148D01*
Y52251D01*
Y52355D01*
Y52459D01*
Y52562D01*
Y52666D01*
Y52770D01*
Y52873D01*
Y52977D01*
Y53081D01*
Y53184D01*
Y53288D01*
Y53392D01*
Y53496D01*
Y53599D01*
Y53703D01*
Y53807D01*
Y53910D01*
Y54014D01*
Y54118D01*
Y54221D01*
Y54325D01*
Y54429D01*
Y54532D01*
Y54636D01*
Y54740D01*
Y54843D01*
Y54947D01*
Y55051D01*
Y55155D01*
Y55258D01*
Y55362D01*
Y55466D01*
Y55569D01*
Y55673D01*
Y55777D01*
Y55880D01*
Y55984D01*
Y56088D01*
Y56191D01*
Y56295D01*
Y56399D01*
Y56502D01*
Y56606D01*
Y56710D01*
Y56814D01*
Y56917D01*
Y57021D01*
Y57125D01*
Y57228D01*
Y57332D01*
Y57436D01*
Y57539D01*
Y57643D01*
Y57747D01*
X12438D01*
Y57850D01*
Y57954D01*
Y58058D01*
Y58161D01*
X12334D01*
Y58265D01*
Y58369D01*
X12230D01*
Y58473D01*
Y58576D01*
X12127D01*
Y58680D01*
X12023D01*
Y58784D01*
X11816D01*
Y58887D01*
X10882D01*
Y58784D01*
X10675D01*
Y58680D01*
X10571D01*
Y58576D01*
X10468D01*
Y58473D01*
X10364D01*
Y58369D01*
Y58265D01*
X10260D01*
Y58161D01*
Y58058D01*
Y57954D01*
X10157D01*
Y57850D01*
Y57747D01*
Y57643D01*
Y57539D01*
Y57436D01*
Y57332D01*
Y57228D01*
Y57125D01*
Y57021D01*
Y56917D01*
Y56814D01*
Y56710D01*
Y56606D01*
Y56502D01*
Y56399D01*
Y56295D01*
Y56191D01*
Y56088D01*
Y55984D01*
Y55880D01*
Y55777D01*
Y55673D01*
Y55569D01*
Y55466D01*
Y55362D01*
Y55258D01*
Y55155D01*
Y55051D01*
Y54947D01*
Y54843D01*
Y54740D01*
Y54636D01*
Y54532D01*
Y54429D01*
Y54325D01*
Y54221D01*
Y54118D01*
Y54014D01*
Y53910D01*
Y53807D01*
Y53703D01*
Y53599D01*
Y53496D01*
Y53392D01*
Y53288D01*
Y53184D01*
Y53081D01*
Y52977D01*
Y52873D01*
Y52770D01*
X10053D01*
Y52666D01*
Y52562D01*
Y52459D01*
Y52355D01*
Y52251D01*
Y52148D01*
Y52044D01*
Y51940D01*
Y51837D01*
Y51733D01*
Y51629D01*
X9949D01*
Y51525D01*
Y51422D01*
Y51318D01*
Y51214D01*
Y51111D01*
Y51007D01*
X9845D01*
Y50903D01*
Y50800D01*
Y50696D01*
X9742D01*
Y50592D01*
Y50489D01*
Y50385D01*
X9638D01*
Y50281D01*
Y50178D01*
Y50074D01*
X9534D01*
Y49970D01*
X9431D01*
Y49867D01*
Y49763D01*
X9327D01*
Y49659D01*
Y49556D01*
X9223D01*
Y49452D01*
X9120D01*
Y49348D01*
X9016D01*
Y49244D01*
X8912D01*
Y49141D01*
X8705D01*
Y49037D01*
X8601D01*
Y48933D01*
X8290D01*
Y48830D01*
X7979D01*
Y48726D01*
X6320D01*
Y48830D01*
X6009D01*
Y48933D01*
X5802D01*
Y49037D01*
X5594D01*
Y49141D01*
X5387D01*
Y49244D01*
X5283D01*
Y49348D01*
X5180D01*
Y49452D01*
X5076D01*
Y49556D01*
X4972D01*
Y49659D01*
Y49763D01*
X4868D01*
Y49867D01*
X4765D01*
Y49970D01*
Y50074D01*
X4661D01*
Y50178D01*
Y50281D01*
X4558D01*
Y50385D01*
Y50489D01*
X4454D01*
Y50592D01*
Y50696D01*
Y50800D01*
X4350D01*
Y50903D01*
Y51007D01*
Y51111D01*
Y51214D01*
X4246D01*
Y51318D01*
Y51422D01*
Y51525D01*
Y51629D01*
Y51733D01*
X4143D01*
Y51837D01*
Y51940D01*
Y52044D01*
Y52148D01*
Y52251D01*
Y52355D01*
Y52459D01*
Y52562D01*
Y52666D01*
Y52770D01*
Y52873D01*
X4039D01*
Y52977D01*
Y53081D01*
Y53184D01*
Y53288D01*
Y53392D01*
Y53496D01*
Y53599D01*
Y53703D01*
Y53807D01*
Y53910D01*
Y54014D01*
Y54118D01*
Y54221D01*
Y54325D01*
Y54429D01*
Y54532D01*
Y54636D01*
Y54740D01*
Y54843D01*
Y54947D01*
Y55051D01*
Y55155D01*
Y55258D01*
Y55362D01*
Y55466D01*
Y55569D01*
Y55673D01*
Y55777D01*
Y55880D01*
Y55984D01*
Y56088D01*
Y56191D01*
Y56295D01*
Y56399D01*
Y56502D01*
Y56606D01*
Y56710D01*
Y56814D01*
Y56917D01*
Y57021D01*
Y57125D01*
Y57228D01*
Y57332D01*
Y57436D01*
Y57539D01*
Y57643D01*
Y57747D01*
Y57850D01*
Y57954D01*
Y58058D01*
Y58161D01*
Y58265D01*
Y58369D01*
Y58473D01*
Y58576D01*
Y58680D01*
Y58784D01*
Y58887D01*
Y58991D01*
Y59095D01*
Y59198D01*
Y59302D01*
Y59406D01*
Y59509D01*
Y59613D01*
Y59717D01*
Y59820D01*
Y59924D01*
Y60028D01*
Y60131D01*
Y60235D01*
Y60339D01*
Y60443D01*
Y60546D01*
Y60650D01*
Y60754D01*
Y60857D01*
Y60961D01*
Y61065D01*
Y61168D01*
X5802D01*
Y61065D01*
Y60961D01*
Y60857D01*
Y60754D01*
Y60650D01*
Y60546D01*
Y60443D01*
Y60339D01*
Y60235D01*
Y60131D01*
Y60028D01*
Y59924D01*
Y59820D01*
Y59717D01*
Y59613D01*
Y59509D01*
Y59406D01*
Y59302D01*
Y59198D01*
Y59095D01*
Y58991D01*
Y58887D01*
Y58784D01*
Y58680D01*
Y58576D01*
Y58473D01*
Y58369D01*
Y58265D01*
Y58161D01*
Y58058D01*
Y57954D01*
Y57850D01*
Y57747D01*
Y57643D01*
Y57539D01*
Y57436D01*
Y57332D01*
Y57228D01*
Y57125D01*
Y57021D01*
Y56917D01*
Y56814D01*
Y56710D01*
Y56606D01*
Y56502D01*
Y56399D01*
Y56295D01*
Y56191D01*
Y56088D01*
Y55984D01*
Y55880D01*
Y55777D01*
Y55673D01*
Y55569D01*
Y55466D01*
Y55362D01*
Y55258D01*
Y55155D01*
Y55051D01*
Y54947D01*
Y54843D01*
Y54740D01*
Y54636D01*
Y54532D01*
Y54429D01*
Y54325D01*
Y54221D01*
Y54118D01*
Y54014D01*
Y53910D01*
Y53807D01*
Y53703D01*
Y53599D01*
Y53496D01*
Y53392D01*
Y53288D01*
X5905D01*
Y53184D01*
Y53081D01*
Y52977D01*
Y52873D01*
Y52770D01*
Y52666D01*
X6009D01*
Y52562D01*
Y52459D01*
Y52355D01*
X6113D01*
Y52251D01*
X6216D01*
Y52148D01*
Y52044D01*
X6320D01*
Y51940D01*
X6424D01*
Y51837D01*
X6631D01*
Y51733D01*
X6942D01*
Y51629D01*
X7461D01*
Y51733D01*
X7772D01*
Y51837D01*
X7875D01*
Y51940D01*
X7979D01*
Y52044D01*
X8083D01*
Y52148D01*
X8186D01*
Y52251D01*
Y52355D01*
Y52459D01*
X8290D01*
Y52562D01*
Y52666D01*
Y52770D01*
Y52873D01*
X8394D01*
Y52977D01*
Y53081D01*
Y53184D01*
Y53288D01*
Y53392D01*
Y53496D01*
Y53599D01*
Y53703D01*
Y53807D01*
Y53910D01*
Y54014D01*
Y54118D01*
Y54221D01*
Y54325D01*
Y54429D01*
Y54532D01*
Y54636D01*
Y54740D01*
Y54843D01*
Y54947D01*
Y55051D01*
Y55155D01*
Y55258D01*
Y55362D01*
Y55466D01*
Y55569D01*
Y55673D01*
Y55777D01*
Y55880D01*
Y55984D01*
Y56088D01*
Y56191D01*
Y56295D01*
Y56399D01*
Y56502D01*
Y56606D01*
Y56710D01*
Y56814D01*
Y56917D01*
Y57021D01*
Y57125D01*
Y57228D01*
Y57332D01*
Y57436D01*
Y57539D01*
Y57643D01*
Y57747D01*
Y57850D01*
Y57954D01*
Y58058D01*
Y58161D01*
Y58265D01*
Y58369D01*
Y58473D01*
Y58576D01*
Y58680D01*
X8497D01*
Y58784D01*
Y58887D01*
Y58991D01*
Y59095D01*
Y59198D01*
Y59302D01*
Y59406D01*
Y59509D01*
X8601D01*
Y59613D01*
Y59717D01*
Y59820D01*
Y59924D01*
X8705D01*
Y60028D01*
Y60131D01*
Y60235D01*
X8809D01*
Y60339D01*
Y60443D01*
Y60546D01*
X8912D01*
Y60650D01*
Y60754D01*
X9016D01*
Y60857D01*
X9120D01*
Y60961D01*
Y61065D01*
X9223D01*
Y61168D01*
X9327D01*
Y61272D01*
X9431D01*
Y61376D01*
X9638D01*
Y61479D01*
X9742D01*
Y61583D01*
X9949D01*
Y61687D01*
X10157D01*
Y61790D01*
X10675D01*
Y61894D01*
X11816D01*
Y61790D01*
D02*
G37*
G36*
X19488Y10984D02*
Y10881D01*
Y10777D01*
Y10673D01*
Y10570D01*
Y10466D01*
Y10362D01*
Y10259D01*
Y10155D01*
Y10051D01*
Y9948D01*
Y9844D01*
Y9740D01*
Y9637D01*
Y9533D01*
Y9429D01*
Y9326D01*
Y9222D01*
Y9118D01*
Y9014D01*
X22806D01*
Y8911D01*
Y8807D01*
Y8703D01*
Y8600D01*
Y8496D01*
Y8392D01*
Y8289D01*
Y8185D01*
Y8081D01*
Y7978D01*
Y7874D01*
Y7770D01*
Y7667D01*
X19488D01*
Y7563D01*
Y7459D01*
Y7356D01*
Y7252D01*
Y7148D01*
Y7045D01*
Y6941D01*
Y6837D01*
Y6733D01*
Y6630D01*
Y6526D01*
Y6422D01*
Y6319D01*
Y6215D01*
Y6111D01*
Y6008D01*
Y5904D01*
Y5800D01*
Y5697D01*
Y5593D01*
X18866D01*
Y5697D01*
Y5800D01*
Y5904D01*
Y6008D01*
Y6111D01*
Y6215D01*
Y6319D01*
Y6422D01*
Y6526D01*
Y6630D01*
Y6733D01*
Y6837D01*
Y6941D01*
Y7045D01*
Y7148D01*
Y7252D01*
Y7356D01*
Y7459D01*
Y7563D01*
Y7667D01*
Y7770D01*
Y7874D01*
Y7978D01*
Y8081D01*
Y8185D01*
Y8289D01*
Y8392D01*
Y8496D01*
Y8600D01*
Y8703D01*
Y8807D01*
Y8911D01*
Y9014D01*
Y9118D01*
Y9222D01*
Y9326D01*
Y9429D01*
Y9533D01*
Y9637D01*
Y9740D01*
Y9844D01*
Y9948D01*
Y10051D01*
Y10155D01*
Y10259D01*
Y10362D01*
Y10466D01*
Y10570D01*
Y10673D01*
Y10777D01*
Y10881D01*
Y10984D01*
Y11088D01*
X19488D01*
Y10984D01*
D02*
G37*
G36*
X22806Y76721D02*
Y76617D01*
Y76514D01*
Y76410D01*
Y76306D01*
Y76203D01*
Y76099D01*
Y75995D01*
Y75892D01*
Y75788D01*
Y75684D01*
Y75581D01*
Y75477D01*
Y75373D01*
Y75270D01*
Y75166D01*
Y75062D01*
Y74958D01*
Y74855D01*
Y74751D01*
Y74647D01*
Y74544D01*
Y74440D01*
Y74336D01*
Y74233D01*
Y74129D01*
Y74025D01*
Y73922D01*
Y73818D01*
Y73714D01*
X22702D01*
Y73611D01*
Y73507D01*
Y73403D01*
Y73299D01*
Y73196D01*
Y73092D01*
X22599D01*
Y72988D01*
Y72885D01*
Y72781D01*
X22495D01*
Y72677D01*
Y72574D01*
X22391D01*
Y72470D01*
Y72366D01*
X22288D01*
Y72263D01*
X22184D01*
Y72159D01*
Y72055D01*
X22080D01*
Y71952D01*
X21977D01*
Y71848D01*
X21769D01*
Y71744D01*
X21562D01*
Y71640D01*
X21251D01*
Y71537D01*
X20525D01*
Y71640D01*
X20110D01*
Y71744D01*
X19903D01*
Y71848D01*
X19696D01*
Y71952D01*
X19592D01*
Y72055D01*
X19488D01*
Y72159D01*
X19385D01*
Y72263D01*
Y72366D01*
X19281D01*
Y72470D01*
Y72574D01*
X19177D01*
Y72677D01*
Y72781D01*
X19073D01*
Y72885D01*
Y72988D01*
Y73092D01*
X18970D01*
Y73196D01*
Y73299D01*
Y73403D01*
Y73507D01*
Y73611D01*
X18866D01*
Y73714D01*
Y73818D01*
Y73922D01*
Y74025D01*
Y74129D01*
Y74233D01*
Y74336D01*
Y74440D01*
Y74544D01*
Y74647D01*
Y74751D01*
Y74855D01*
Y74958D01*
Y75062D01*
Y75166D01*
Y75270D01*
Y75373D01*
Y75477D01*
Y75581D01*
Y75684D01*
Y75788D01*
Y75892D01*
Y75995D01*
Y76099D01*
Y76203D01*
Y76306D01*
Y76410D01*
Y76514D01*
Y76617D01*
Y76721D01*
Y76825D01*
X19488D01*
Y76721D01*
Y76617D01*
Y76514D01*
Y76410D01*
Y76306D01*
Y76203D01*
Y76099D01*
Y75995D01*
Y75892D01*
Y75788D01*
Y75684D01*
Y75581D01*
Y75477D01*
Y75373D01*
Y75270D01*
Y75166D01*
Y75062D01*
Y74958D01*
Y74855D01*
Y74751D01*
Y74647D01*
Y74544D01*
Y74440D01*
Y74336D01*
Y74233D01*
Y74129D01*
Y74025D01*
Y73922D01*
Y73818D01*
X19592D01*
Y73714D01*
Y73611D01*
Y73507D01*
X19696D01*
Y73403D01*
X19799D01*
Y73299D01*
X19903D01*
Y73196D01*
X20007D01*
Y73092D01*
X20214D01*
Y72988D01*
X21562D01*
Y73092D01*
X21769D01*
Y73196D01*
X21873D01*
Y73299D01*
X21977D01*
Y73403D01*
Y73507D01*
X22080D01*
Y73611D01*
Y73714D01*
Y73818D01*
Y73922D01*
X22184D01*
Y74025D01*
Y74129D01*
Y74233D01*
Y74336D01*
Y74440D01*
Y74544D01*
Y74647D01*
Y74751D01*
Y74855D01*
Y74958D01*
Y75062D01*
Y75166D01*
Y75270D01*
Y75373D01*
Y75477D01*
Y75581D01*
Y75684D01*
Y75788D01*
Y75892D01*
Y75995D01*
Y76099D01*
Y76203D01*
Y76306D01*
Y76410D01*
Y76514D01*
Y76617D01*
Y76721D01*
Y76825D01*
X22806D01*
Y76721D01*
D02*
G37*
G36*
Y67286D02*
Y67182D01*
Y67078D01*
Y66975D01*
Y66871D01*
Y66767D01*
Y66664D01*
Y66560D01*
Y66456D01*
Y66352D01*
Y66249D01*
Y66145D01*
Y66041D01*
X22702D01*
Y65938D01*
X22599D01*
Y65834D01*
X22391D01*
Y65730D01*
X22288D01*
Y65627D01*
X22184D01*
Y65523D01*
X22080D01*
Y65419D01*
X21977D01*
Y65316D01*
X21873D01*
Y65212D01*
X21769D01*
Y65108D01*
X21666D01*
Y65005D01*
X21562D01*
Y64901D01*
X21458D01*
Y64797D01*
X21251D01*
Y64694D01*
Y64590D01*
Y64486D01*
Y64382D01*
Y64279D01*
Y64175D01*
Y64072D01*
Y63968D01*
Y63864D01*
Y63760D01*
Y63657D01*
Y63553D01*
Y63449D01*
Y63346D01*
Y63242D01*
Y63138D01*
Y63035D01*
Y62931D01*
X22806D01*
Y62827D01*
Y62724D01*
Y62620D01*
Y62516D01*
Y62413D01*
Y62309D01*
Y62205D01*
Y62101D01*
Y61998D01*
Y61894D01*
Y61790D01*
Y61687D01*
X18866D01*
Y61790D01*
Y61894D01*
Y61998D01*
Y62101D01*
Y62205D01*
Y62309D01*
Y62413D01*
Y62516D01*
Y62620D01*
Y62724D01*
Y62827D01*
Y62931D01*
Y63035D01*
Y63138D01*
Y63242D01*
Y63346D01*
Y63449D01*
Y63553D01*
Y63657D01*
Y63760D01*
Y63864D01*
Y63968D01*
Y64072D01*
Y64175D01*
Y64279D01*
Y64382D01*
Y64486D01*
Y64590D01*
Y64694D01*
Y64797D01*
Y64901D01*
Y65005D01*
Y65108D01*
Y65212D01*
Y65316D01*
Y65419D01*
Y65523D01*
Y65627D01*
Y65730D01*
Y65834D01*
Y65938D01*
X18970D01*
Y66041D01*
Y66145D01*
Y66249D01*
Y66352D01*
X19073D01*
Y66456D01*
Y66560D01*
Y66664D01*
X19177D01*
Y66767D01*
Y66871D01*
X19281D01*
Y66975D01*
X19385D01*
Y67078D01*
X19592D01*
Y67182D01*
X20421D01*
Y67078D01*
X20629D01*
Y66975D01*
X20732D01*
Y66871D01*
X20836D01*
Y66767D01*
Y66664D01*
X20940D01*
Y66560D01*
Y66456D01*
X21044D01*
Y66352D01*
Y66249D01*
Y66145D01*
Y66041D01*
Y65938D01*
X21251D01*
Y66041D01*
X21354D01*
Y66145D01*
X21458D01*
Y66249D01*
X21562D01*
Y66352D01*
X21666D01*
Y66456D01*
X21769D01*
Y66560D01*
X21873D01*
Y66664D01*
X21977D01*
Y66767D01*
X22080D01*
Y66871D01*
X22184D01*
Y66975D01*
X22288D01*
Y67078D01*
X22391D01*
Y67182D01*
X22599D01*
Y67286D01*
X22702D01*
Y67389D01*
X22806D01*
Y67286D01*
D02*
G37*
G36*
X14304Y67078D02*
Y66975D01*
Y66871D01*
Y66767D01*
Y66664D01*
Y66560D01*
Y66456D01*
Y66352D01*
Y66249D01*
Y66145D01*
Y66041D01*
Y65938D01*
Y65834D01*
Y65730D01*
Y65627D01*
Y65523D01*
Y65419D01*
Y65316D01*
Y65212D01*
Y65108D01*
Y65005D01*
Y64901D01*
Y64797D01*
Y64694D01*
Y64590D01*
Y64486D01*
Y64382D01*
Y64279D01*
Y64175D01*
X4039D01*
Y64279D01*
Y64382D01*
Y64486D01*
Y64590D01*
Y64694D01*
Y64797D01*
Y64901D01*
Y65005D01*
Y65108D01*
Y65212D01*
Y65316D01*
Y65419D01*
Y65523D01*
Y65627D01*
Y65730D01*
Y65834D01*
Y65938D01*
Y66041D01*
Y66145D01*
Y66249D01*
Y66352D01*
Y66456D01*
Y66560D01*
Y66664D01*
Y66767D01*
Y66871D01*
Y66975D01*
Y67078D01*
Y67182D01*
X14304D01*
Y67078D01*
D02*
G37*
G36*
X21977Y53496D02*
X22184D01*
Y53392D01*
X22288D01*
Y53288D01*
X22391D01*
Y53184D01*
X22495D01*
Y53081D01*
Y52977D01*
X22599D01*
Y52873D01*
Y52770D01*
Y52666D01*
X22702D01*
Y52562D01*
Y52459D01*
Y52355D01*
Y52251D01*
Y52148D01*
Y52044D01*
X22806D01*
Y51940D01*
Y51837D01*
Y51733D01*
Y51629D01*
Y51525D01*
Y51422D01*
Y51318D01*
Y51214D01*
Y51111D01*
Y51007D01*
Y50903D01*
Y50800D01*
Y50696D01*
Y50592D01*
Y50489D01*
Y50385D01*
Y50281D01*
Y50178D01*
Y50074D01*
Y49970D01*
Y49867D01*
Y49763D01*
Y49659D01*
Y49556D01*
Y49452D01*
Y49348D01*
Y49244D01*
Y49141D01*
Y49037D01*
Y48933D01*
Y48830D01*
Y48726D01*
Y48622D01*
Y48519D01*
Y48415D01*
Y48311D01*
Y48208D01*
Y48104D01*
Y48000D01*
Y47897D01*
Y47793D01*
X22184D01*
Y47897D01*
Y48000D01*
Y48104D01*
Y48208D01*
Y48311D01*
Y48415D01*
Y48519D01*
Y48622D01*
Y48726D01*
Y48830D01*
Y48933D01*
Y49037D01*
Y49141D01*
Y49244D01*
Y49348D01*
Y49452D01*
Y49556D01*
Y49659D01*
Y49763D01*
Y49867D01*
Y49970D01*
Y50074D01*
Y50178D01*
Y50281D01*
Y50385D01*
Y50489D01*
Y50592D01*
Y50696D01*
Y50800D01*
Y50903D01*
Y51007D01*
Y51111D01*
Y51214D01*
Y51318D01*
Y51422D01*
Y51525D01*
Y51629D01*
Y51733D01*
X22080D01*
Y51837D01*
Y51940D01*
Y52044D01*
X21977D01*
Y52148D01*
Y52251D01*
X21354D01*
Y52148D01*
X21251D01*
Y52044D01*
Y51940D01*
X21147D01*
Y51837D01*
Y51733D01*
Y51629D01*
Y51525D01*
Y51422D01*
Y51318D01*
Y51214D01*
Y51111D01*
Y51007D01*
Y50903D01*
Y50800D01*
Y50696D01*
Y50592D01*
Y50489D01*
Y50385D01*
Y50281D01*
Y50178D01*
Y50074D01*
Y49970D01*
Y49867D01*
Y49763D01*
Y49659D01*
Y49556D01*
Y49452D01*
Y49348D01*
Y49244D01*
Y49141D01*
Y49037D01*
Y48933D01*
Y48830D01*
X21044D01*
Y48726D01*
Y48622D01*
Y48519D01*
Y48415D01*
Y48311D01*
X20940D01*
Y48208D01*
Y48104D01*
X20836D01*
Y48000D01*
Y47897D01*
X20732D01*
Y47793D01*
X20629D01*
Y47689D01*
X20421D01*
Y47585D01*
X19592D01*
Y47689D01*
X19488D01*
Y47793D01*
X19385D01*
Y47897D01*
X19281D01*
Y48000D01*
X19177D01*
Y48104D01*
X19073D01*
Y48208D01*
Y48311D01*
Y48415D01*
X18970D01*
Y48519D01*
Y48622D01*
Y48726D01*
Y48830D01*
X18866D01*
Y48933D01*
Y49037D01*
Y49141D01*
Y49244D01*
Y49348D01*
Y49452D01*
Y49556D01*
Y49659D01*
Y49763D01*
Y49867D01*
Y49970D01*
Y50074D01*
Y50178D01*
Y50281D01*
Y50385D01*
Y50489D01*
Y50592D01*
Y50696D01*
Y50800D01*
Y50903D01*
Y51007D01*
Y51111D01*
Y51214D01*
Y51318D01*
Y51422D01*
Y51525D01*
Y51629D01*
Y51733D01*
Y51837D01*
Y51940D01*
Y52044D01*
Y52148D01*
Y52251D01*
Y52355D01*
Y52459D01*
Y52562D01*
Y52666D01*
Y52770D01*
Y52873D01*
Y52977D01*
Y53081D01*
Y53184D01*
Y53288D01*
X19488D01*
Y53184D01*
Y53081D01*
Y52977D01*
Y52873D01*
Y52770D01*
Y52666D01*
Y52562D01*
Y52459D01*
Y52355D01*
Y52251D01*
Y52148D01*
Y52044D01*
Y51940D01*
Y51837D01*
Y51733D01*
Y51629D01*
Y51525D01*
Y51422D01*
Y51318D01*
Y51214D01*
Y51111D01*
Y51007D01*
Y50903D01*
Y50800D01*
Y50696D01*
Y50592D01*
Y50489D01*
Y50385D01*
Y50281D01*
Y50178D01*
Y50074D01*
Y49970D01*
Y49867D01*
Y49763D01*
Y49659D01*
Y49556D01*
Y49452D01*
Y49348D01*
X19592D01*
Y49244D01*
Y49141D01*
Y49037D01*
X19696D01*
Y48933D01*
X20318D01*
Y49037D01*
X20421D01*
Y49141D01*
Y49244D01*
X20525D01*
Y49348D01*
Y49452D01*
Y49556D01*
Y49659D01*
Y49763D01*
Y49867D01*
Y49970D01*
Y50074D01*
Y50178D01*
Y50281D01*
Y50385D01*
Y50489D01*
Y50592D01*
Y50696D01*
Y50800D01*
Y50903D01*
Y51007D01*
Y51111D01*
Y51214D01*
Y51318D01*
Y51422D01*
Y51525D01*
Y51629D01*
Y51733D01*
Y51837D01*
Y51940D01*
Y52044D01*
Y52148D01*
Y52251D01*
Y52355D01*
X20629D01*
Y52459D01*
Y52562D01*
Y52666D01*
Y52770D01*
Y52873D01*
X20732D01*
Y52977D01*
Y53081D01*
X20836D01*
Y53184D01*
Y53288D01*
X20940D01*
Y53392D01*
X21044D01*
Y53496D01*
X21251D01*
Y53599D01*
X21977D01*
Y53496D01*
D02*
G37*
G36*
X14304Y31514D02*
Y31411D01*
Y31307D01*
Y31203D01*
Y31100D01*
Y30996D01*
Y30892D01*
Y30788D01*
Y30685D01*
Y30581D01*
Y30477D01*
Y30374D01*
Y30270D01*
Y30166D01*
Y30063D01*
Y29959D01*
Y29855D01*
Y29752D01*
Y29648D01*
Y29544D01*
Y29441D01*
Y29337D01*
Y29233D01*
Y29129D01*
Y29026D01*
Y28922D01*
Y28818D01*
Y28715D01*
Y28611D01*
Y28507D01*
Y28404D01*
Y28300D01*
Y28196D01*
Y28093D01*
Y27989D01*
Y27885D01*
Y27782D01*
Y27678D01*
Y27574D01*
Y27470D01*
Y27367D01*
Y27263D01*
Y27159D01*
Y27056D01*
Y26952D01*
Y26848D01*
Y26745D01*
Y26641D01*
Y26537D01*
Y26434D01*
Y26330D01*
Y26226D01*
Y26123D01*
Y26019D01*
Y25915D01*
Y25811D01*
Y25708D01*
Y25604D01*
Y25501D01*
Y25397D01*
Y25293D01*
Y25189D01*
Y25086D01*
X14200D01*
Y24982D01*
Y24878D01*
Y24775D01*
Y24671D01*
Y24567D01*
Y24464D01*
Y24360D01*
X14097D01*
Y24256D01*
Y24153D01*
Y24049D01*
Y23945D01*
Y23842D01*
X13993D01*
Y23738D01*
Y23634D01*
Y23530D01*
X13889D01*
Y23427D01*
Y23323D01*
Y23219D01*
X13785D01*
Y23116D01*
Y23012D01*
X13682D01*
Y22908D01*
Y22805D01*
Y22701D01*
X13578D01*
Y22597D01*
Y22494D01*
X13474D01*
Y22390D01*
X13371D01*
Y22286D01*
Y22183D01*
X13267D01*
Y22079D01*
X13163D01*
Y21975D01*
Y21871D01*
X13060D01*
Y21768D01*
X12956D01*
Y21664D01*
X12852D01*
Y21560D01*
X12749D01*
Y21457D01*
X12645D01*
Y21353D01*
X12541D01*
Y21249D01*
X12438D01*
Y21146D01*
X12334D01*
Y21042D01*
X12230D01*
Y20938D01*
X12023D01*
Y20835D01*
X11816D01*
Y20731D01*
X11712D01*
Y20627D01*
X11401D01*
Y20524D01*
X11193D01*
Y20420D01*
X10779D01*
Y20316D01*
X10364D01*
Y20212D01*
X8290D01*
Y20316D01*
X7772D01*
Y20420D01*
X7357D01*
Y20524D01*
X7046D01*
Y20627D01*
X6839D01*
Y20731D01*
X6631D01*
Y20835D01*
X6424D01*
Y20938D01*
X6320D01*
Y21042D01*
X6113D01*
Y21146D01*
X6009D01*
Y21249D01*
X5905D01*
Y21353D01*
X5698D01*
Y21457D01*
X5594D01*
Y21560D01*
X5491D01*
Y21664D01*
Y21768D01*
X5387D01*
Y21871D01*
X5283D01*
Y21975D01*
X5180D01*
Y22079D01*
Y22183D01*
X5076D01*
Y22286D01*
X4972D01*
Y22390D01*
Y22494D01*
X4868D01*
Y22597D01*
Y22701D01*
X4765D01*
Y22805D01*
Y22908D01*
X4661D01*
Y23012D01*
Y23116D01*
Y23219D01*
X4558D01*
Y23323D01*
Y23427D01*
Y23530D01*
X4454D01*
Y23634D01*
Y23738D01*
Y23842D01*
X4350D01*
Y23945D01*
Y24049D01*
Y24153D01*
Y24256D01*
X4246D01*
Y24360D01*
Y24464D01*
Y24567D01*
Y24671D01*
Y24775D01*
Y24878D01*
X4143D01*
Y24982D01*
Y25086D01*
Y25189D01*
Y25293D01*
Y25397D01*
Y25501D01*
Y25604D01*
Y25708D01*
Y25811D01*
Y25915D01*
Y26019D01*
Y26123D01*
X4039D01*
Y26226D01*
Y26330D01*
Y26434D01*
Y26537D01*
Y26641D01*
Y26745D01*
Y26848D01*
Y26952D01*
Y27056D01*
Y27159D01*
Y27263D01*
Y27367D01*
Y27470D01*
Y27574D01*
Y27678D01*
Y27782D01*
Y27885D01*
Y27989D01*
Y28093D01*
Y28196D01*
Y28300D01*
Y28404D01*
Y28507D01*
Y28611D01*
Y28715D01*
Y28818D01*
Y28922D01*
Y29026D01*
Y29129D01*
Y29233D01*
Y29337D01*
Y29441D01*
Y29544D01*
Y29648D01*
Y29752D01*
Y29855D01*
Y29959D01*
Y30063D01*
Y30166D01*
Y30270D01*
Y30374D01*
Y30477D01*
Y30581D01*
Y30685D01*
Y30788D01*
Y30892D01*
Y30996D01*
Y31100D01*
Y31203D01*
Y31307D01*
Y31411D01*
Y31514D01*
Y31618D01*
X5802D01*
Y31514D01*
Y31411D01*
Y31307D01*
Y31203D01*
Y31100D01*
Y30996D01*
Y30892D01*
Y30788D01*
Y30685D01*
Y30581D01*
Y30477D01*
Y30374D01*
Y30270D01*
Y30166D01*
Y30063D01*
Y29959D01*
Y29855D01*
Y29752D01*
Y29648D01*
Y29544D01*
Y29441D01*
Y29337D01*
Y29233D01*
Y29129D01*
Y29026D01*
Y28922D01*
Y28818D01*
Y28715D01*
Y28611D01*
Y28507D01*
Y28404D01*
Y28300D01*
Y28196D01*
Y28093D01*
Y27989D01*
Y27885D01*
Y27782D01*
Y27678D01*
Y27574D01*
Y27470D01*
Y27367D01*
Y27263D01*
Y27159D01*
Y27056D01*
Y26952D01*
Y26848D01*
Y26745D01*
Y26641D01*
Y26537D01*
Y26434D01*
Y26330D01*
Y26226D01*
Y26123D01*
Y26019D01*
Y25915D01*
Y25811D01*
X5905D01*
Y25708D01*
Y25604D01*
Y25501D01*
Y25397D01*
Y25293D01*
X6009D01*
Y25189D01*
Y25086D01*
Y24982D01*
X6113D01*
Y24878D01*
Y24775D01*
Y24671D01*
X6216D01*
Y24567D01*
X6320D01*
Y24464D01*
Y24360D01*
X6424D01*
Y24256D01*
X6527D01*
Y24153D01*
X6631D01*
Y24049D01*
X6735D01*
Y23945D01*
X6839D01*
Y23842D01*
X6942D01*
Y23738D01*
X7150D01*
Y23634D01*
X7461D01*
Y23530D01*
X7875D01*
Y23427D01*
X8290D01*
Y23530D01*
Y23634D01*
Y23738D01*
Y23842D01*
Y23945D01*
Y24049D01*
Y24153D01*
Y24256D01*
Y24360D01*
Y24464D01*
Y24567D01*
Y24671D01*
Y24775D01*
Y24878D01*
Y24982D01*
Y25086D01*
Y25189D01*
Y25293D01*
Y25397D01*
Y25501D01*
Y25604D01*
Y25708D01*
Y25811D01*
Y25915D01*
Y26019D01*
Y26123D01*
Y26226D01*
Y26330D01*
Y26434D01*
Y26537D01*
Y26641D01*
Y26745D01*
Y26848D01*
Y26952D01*
Y27056D01*
Y27159D01*
Y27263D01*
Y27367D01*
Y27470D01*
Y27574D01*
Y27678D01*
Y27782D01*
Y27885D01*
Y27989D01*
Y28093D01*
Y28196D01*
Y28300D01*
Y28404D01*
Y28507D01*
Y28611D01*
Y28715D01*
Y28818D01*
Y28922D01*
Y29026D01*
Y29129D01*
Y29233D01*
Y29337D01*
Y29441D01*
Y29544D01*
Y29648D01*
Y29752D01*
Y29855D01*
Y29959D01*
Y30063D01*
Y30166D01*
Y30270D01*
Y30374D01*
Y30477D01*
Y30581D01*
Y30685D01*
Y30788D01*
Y30892D01*
Y30996D01*
Y31100D01*
Y31203D01*
Y31307D01*
Y31411D01*
Y31514D01*
Y31618D01*
X9949D01*
Y31514D01*
Y31411D01*
Y31307D01*
Y31203D01*
Y31100D01*
Y30996D01*
Y30892D01*
Y30788D01*
Y30685D01*
Y30581D01*
Y30477D01*
Y30374D01*
Y30270D01*
Y30166D01*
Y30063D01*
Y29959D01*
Y29855D01*
Y29752D01*
Y29648D01*
Y29544D01*
Y29441D01*
Y29337D01*
Y29233D01*
Y29129D01*
Y29026D01*
Y28922D01*
Y28818D01*
Y28715D01*
Y28611D01*
Y28507D01*
Y28404D01*
Y28300D01*
Y28196D01*
Y28093D01*
Y27989D01*
Y27885D01*
Y27782D01*
Y27678D01*
Y27574D01*
Y27470D01*
Y27367D01*
Y27263D01*
Y27159D01*
Y27056D01*
Y26952D01*
Y26848D01*
Y26745D01*
Y26641D01*
Y26537D01*
Y26434D01*
Y26330D01*
Y26226D01*
Y26123D01*
Y26019D01*
Y25915D01*
Y25811D01*
Y25708D01*
Y25604D01*
Y25501D01*
Y25397D01*
Y25293D01*
Y25189D01*
Y25086D01*
Y24982D01*
Y24878D01*
Y24775D01*
Y24671D01*
Y24567D01*
Y24464D01*
Y24360D01*
Y24256D01*
Y24153D01*
Y24049D01*
Y23945D01*
Y23842D01*
Y23738D01*
Y23634D01*
Y23530D01*
Y23427D01*
X10779D01*
Y23530D01*
X11090D01*
Y23634D01*
X11401D01*
Y23738D01*
X11608D01*
Y23842D01*
X11712D01*
Y23945D01*
X11816D01*
Y24049D01*
X11919D01*
Y24153D01*
X12023D01*
Y24256D01*
X12127D01*
Y24360D01*
Y24464D01*
X12230D01*
Y24567D01*
Y24671D01*
X12334D01*
Y24775D01*
Y24878D01*
Y24982D01*
X12438D01*
Y25086D01*
Y25189D01*
Y25293D01*
Y25397D01*
X12541D01*
Y25501D01*
Y25604D01*
Y25708D01*
Y25811D01*
Y25915D01*
Y26019D01*
Y26123D01*
Y26226D01*
X12645D01*
Y26330D01*
Y26434D01*
Y26537D01*
Y26641D01*
Y26745D01*
Y26848D01*
Y26952D01*
Y27056D01*
Y27159D01*
Y27263D01*
Y27367D01*
Y27470D01*
Y27574D01*
Y27678D01*
Y27782D01*
Y27885D01*
Y27989D01*
Y28093D01*
Y28196D01*
Y28300D01*
Y28404D01*
Y28507D01*
Y28611D01*
Y28715D01*
Y28818D01*
Y28922D01*
Y29026D01*
Y29129D01*
Y29233D01*
Y29337D01*
Y29441D01*
Y29544D01*
Y29648D01*
Y29752D01*
Y29855D01*
Y29959D01*
Y30063D01*
Y30166D01*
Y30270D01*
Y30374D01*
Y30477D01*
Y30581D01*
Y30685D01*
Y30788D01*
Y30892D01*
Y30996D01*
Y31100D01*
Y31203D01*
Y31307D01*
Y31411D01*
Y31514D01*
Y31618D01*
X14304D01*
Y31514D01*
D02*
G37*
G36*
X22806Y23116D02*
Y23012D01*
Y22908D01*
Y22805D01*
Y22701D01*
Y22597D01*
Y22494D01*
Y22390D01*
Y22286D01*
Y22183D01*
Y22079D01*
Y21975D01*
Y21871D01*
Y21768D01*
Y21664D01*
Y21560D01*
Y21457D01*
Y21353D01*
Y21249D01*
Y21146D01*
Y21042D01*
Y20938D01*
Y20835D01*
Y20731D01*
Y20627D01*
Y20524D01*
Y20420D01*
Y20316D01*
Y20212D01*
X22702D01*
Y20109D01*
Y20005D01*
Y19902D01*
Y19798D01*
Y19694D01*
Y19590D01*
X22599D01*
Y19487D01*
Y19383D01*
Y19279D01*
X22495D01*
Y19176D01*
Y19072D01*
Y18968D01*
X22391D01*
Y18865D01*
X22288D01*
Y18761D01*
Y18657D01*
X22184D01*
Y18554D01*
X22080D01*
Y18450D01*
X21977D01*
Y18346D01*
X21873D01*
Y18243D01*
X21666D01*
Y18139D01*
X21458D01*
Y18035D01*
X20214D01*
Y18139D01*
X20007D01*
Y18243D01*
X19799D01*
Y18346D01*
X19696D01*
Y18450D01*
X19592D01*
Y18554D01*
X19488D01*
Y18657D01*
X19385D01*
Y18761D01*
X19281D01*
Y18865D01*
Y18968D01*
X19177D01*
Y19072D01*
Y19176D01*
X19073D01*
Y19279D01*
Y19383D01*
Y19487D01*
X18970D01*
Y19590D01*
Y19694D01*
Y19798D01*
Y19902D01*
Y20005D01*
X18866D01*
Y20109D01*
Y20212D01*
Y20316D01*
Y20420D01*
Y20524D01*
Y20627D01*
Y20731D01*
Y20835D01*
Y20938D01*
Y21042D01*
Y21146D01*
Y21249D01*
Y21353D01*
Y21457D01*
Y21560D01*
Y21664D01*
Y21768D01*
Y21871D01*
Y21975D01*
Y22079D01*
Y22183D01*
Y22286D01*
Y22390D01*
Y22494D01*
Y22597D01*
Y22701D01*
Y22805D01*
Y22908D01*
Y23012D01*
Y23116D01*
Y23219D01*
X19488D01*
Y23116D01*
Y23012D01*
Y22908D01*
Y22805D01*
Y22701D01*
Y22597D01*
Y22494D01*
Y22390D01*
Y22286D01*
Y22183D01*
Y22079D01*
Y21975D01*
Y21871D01*
Y21768D01*
Y21664D01*
Y21560D01*
Y21457D01*
Y21353D01*
Y21249D01*
Y21146D01*
Y21042D01*
Y20938D01*
Y20835D01*
Y20731D01*
Y20627D01*
Y20524D01*
Y20420D01*
Y20316D01*
Y20212D01*
X19592D01*
Y20109D01*
Y20005D01*
X19696D01*
Y19902D01*
Y19798D01*
X19799D01*
Y19694D01*
X19903D01*
Y19590D01*
X20007D01*
Y19487D01*
X20525D01*
Y19590D01*
Y19694D01*
Y19798D01*
Y19902D01*
Y20005D01*
Y20109D01*
Y20212D01*
Y20316D01*
Y20420D01*
Y20524D01*
Y20627D01*
Y20731D01*
Y20835D01*
Y20938D01*
Y21042D01*
Y21146D01*
Y21249D01*
Y21353D01*
Y21457D01*
Y21560D01*
Y21664D01*
Y21768D01*
Y21871D01*
Y21975D01*
Y22079D01*
Y22183D01*
Y22286D01*
Y22390D01*
Y22494D01*
Y22597D01*
Y22701D01*
Y22805D01*
Y22908D01*
Y23012D01*
Y23116D01*
Y23219D01*
X21147D01*
Y23116D01*
Y23012D01*
Y22908D01*
Y22805D01*
Y22701D01*
Y22597D01*
Y22494D01*
Y22390D01*
Y22286D01*
Y22183D01*
Y22079D01*
Y21975D01*
Y21871D01*
Y21768D01*
Y21664D01*
Y21560D01*
Y21457D01*
Y21353D01*
Y21249D01*
Y21146D01*
Y21042D01*
Y20938D01*
Y20835D01*
Y20731D01*
Y20627D01*
Y20524D01*
Y20420D01*
Y20316D01*
Y20212D01*
Y20109D01*
Y20005D01*
Y19902D01*
Y19798D01*
Y19694D01*
Y19590D01*
Y19487D01*
X21666D01*
Y19590D01*
X21769D01*
Y19694D01*
X21873D01*
Y19798D01*
X21977D01*
Y19902D01*
Y20005D01*
X22080D01*
Y20109D01*
Y20212D01*
Y20316D01*
Y20420D01*
X22184D01*
Y20524D01*
Y20627D01*
Y20731D01*
Y20835D01*
Y20938D01*
Y21042D01*
Y21146D01*
Y21249D01*
Y21353D01*
Y21457D01*
Y21560D01*
Y21664D01*
Y21768D01*
Y21871D01*
Y21975D01*
Y22079D01*
Y22183D01*
Y22286D01*
Y22390D01*
Y22494D01*
Y22597D01*
Y22701D01*
Y22805D01*
Y22908D01*
Y23012D01*
Y23116D01*
Y23219D01*
X22806D01*
Y23116D01*
D02*
G37*
G36*
Y16895D02*
Y16791D01*
Y16687D01*
Y16583D01*
Y16480D01*
Y16376D01*
Y16273D01*
Y16169D01*
Y16065D01*
Y15961D01*
Y15858D01*
Y15754D01*
Y15650D01*
X21147D01*
Y15547D01*
Y15443D01*
Y15339D01*
Y15236D01*
Y15132D01*
Y15028D01*
Y14925D01*
Y14821D01*
Y14717D01*
Y14614D01*
Y14510D01*
Y14406D01*
Y14302D01*
Y14199D01*
Y14095D01*
Y13991D01*
Y13888D01*
Y13784D01*
Y13680D01*
Y13577D01*
Y13473D01*
Y13369D01*
Y13266D01*
Y13162D01*
X22806D01*
Y13058D01*
Y12955D01*
Y12851D01*
Y12747D01*
Y12643D01*
Y12540D01*
Y12436D01*
Y12332D01*
Y12229D01*
Y12125D01*
Y12021D01*
Y11918D01*
Y11814D01*
X18866D01*
Y11918D01*
Y12021D01*
Y12125D01*
Y12229D01*
Y12332D01*
Y12436D01*
Y12540D01*
Y12643D01*
Y12747D01*
Y12851D01*
Y12955D01*
Y13058D01*
Y13162D01*
X20525D01*
Y13266D01*
Y13369D01*
Y13473D01*
Y13577D01*
Y13680D01*
Y13784D01*
Y13888D01*
Y13991D01*
Y14095D01*
Y14199D01*
Y14302D01*
Y14406D01*
Y14510D01*
Y14614D01*
Y14717D01*
Y14821D01*
Y14925D01*
Y15028D01*
Y15132D01*
Y15236D01*
Y15339D01*
Y15443D01*
Y15547D01*
Y15650D01*
X18866D01*
Y15754D01*
Y15858D01*
Y15961D01*
Y16065D01*
Y16169D01*
Y16273D01*
Y16376D01*
Y16480D01*
Y16583D01*
Y16687D01*
Y16791D01*
Y16895D01*
Y16998D01*
X22806D01*
Y16895D01*
D02*
G37*
G36*
X21977Y33588D02*
X22184D01*
Y33484D01*
X22288D01*
Y33381D01*
X22391D01*
Y33277D01*
X22495D01*
Y33173D01*
Y33070D01*
X22599D01*
Y32966D01*
Y32862D01*
Y32759D01*
X22702D01*
Y32655D01*
Y32551D01*
Y32447D01*
Y32344D01*
Y32240D01*
Y32136D01*
X22806D01*
Y32033D01*
Y31929D01*
Y31825D01*
Y31722D01*
Y31618D01*
Y31514D01*
Y31411D01*
Y31307D01*
Y31203D01*
Y31100D01*
Y30996D01*
Y30892D01*
Y30788D01*
Y30685D01*
Y30581D01*
Y30477D01*
Y30374D01*
Y30270D01*
Y30166D01*
Y30063D01*
Y29959D01*
Y29855D01*
Y29752D01*
Y29648D01*
Y29544D01*
Y29441D01*
Y29337D01*
Y29233D01*
Y29129D01*
Y29026D01*
Y28922D01*
Y28818D01*
Y28715D01*
Y28611D01*
Y28507D01*
Y28404D01*
Y28300D01*
Y28196D01*
Y28093D01*
Y27989D01*
Y27885D01*
X22184D01*
Y27989D01*
Y28093D01*
Y28196D01*
Y28300D01*
Y28404D01*
Y28507D01*
Y28611D01*
Y28715D01*
Y28818D01*
Y28922D01*
Y29026D01*
Y29129D01*
Y29233D01*
Y29337D01*
Y29441D01*
Y29544D01*
Y29648D01*
Y29752D01*
Y29855D01*
Y29959D01*
Y30063D01*
Y30166D01*
Y30270D01*
Y30374D01*
Y30477D01*
Y30581D01*
Y30685D01*
Y30788D01*
Y30892D01*
Y30996D01*
Y31100D01*
Y31203D01*
Y31307D01*
Y31411D01*
Y31514D01*
Y31618D01*
Y31722D01*
Y31825D01*
X22080D01*
Y31929D01*
Y32033D01*
Y32136D01*
X21977D01*
Y32240D01*
X21873D01*
Y32344D01*
X21354D01*
Y32240D01*
X21251D01*
Y32136D01*
Y32033D01*
Y31929D01*
X21147D01*
Y31825D01*
Y31722D01*
Y31618D01*
Y31514D01*
Y31411D01*
Y31307D01*
Y31203D01*
Y31100D01*
Y30996D01*
Y30892D01*
Y30788D01*
Y30685D01*
Y30581D01*
Y30477D01*
Y30374D01*
Y30270D01*
Y30166D01*
Y30063D01*
Y29959D01*
Y29855D01*
Y29752D01*
Y29648D01*
Y29544D01*
Y29441D01*
Y29337D01*
Y29233D01*
Y29129D01*
Y29026D01*
Y28922D01*
X21044D01*
Y28818D01*
Y28715D01*
Y28611D01*
Y28507D01*
Y28404D01*
X20940D01*
Y28300D01*
Y28196D01*
X20836D01*
Y28093D01*
Y27989D01*
X20732D01*
Y27885D01*
X20629D01*
Y27782D01*
X20421D01*
Y27678D01*
X19592D01*
Y27782D01*
X19385D01*
Y27885D01*
X19281D01*
Y27989D01*
Y28093D01*
X19177D01*
Y28196D01*
X19073D01*
Y28300D01*
Y28404D01*
Y28507D01*
X18970D01*
Y28611D01*
Y28715D01*
Y28818D01*
Y28922D01*
X18866D01*
Y29026D01*
Y29129D01*
Y29233D01*
Y29337D01*
Y29441D01*
Y29544D01*
Y29648D01*
Y29752D01*
Y29855D01*
Y29959D01*
Y30063D01*
Y30166D01*
Y30270D01*
Y30374D01*
Y30477D01*
Y30581D01*
Y30685D01*
Y30788D01*
Y30892D01*
Y30996D01*
Y31100D01*
Y31203D01*
Y31307D01*
Y31411D01*
Y31514D01*
Y31618D01*
Y31722D01*
Y31825D01*
Y31929D01*
Y32033D01*
Y32136D01*
Y32240D01*
Y32344D01*
Y32447D01*
Y32551D01*
Y32655D01*
Y32759D01*
Y32862D01*
Y32966D01*
Y33070D01*
Y33173D01*
Y33277D01*
Y33381D01*
X19488D01*
Y33277D01*
Y33173D01*
Y33070D01*
Y32966D01*
Y32862D01*
Y32759D01*
Y32655D01*
Y32551D01*
Y32447D01*
Y32344D01*
Y32240D01*
Y32136D01*
Y32033D01*
Y31929D01*
Y31825D01*
Y31722D01*
Y31618D01*
Y31514D01*
Y31411D01*
Y31307D01*
Y31203D01*
Y31100D01*
Y30996D01*
Y30892D01*
Y30788D01*
Y30685D01*
Y30581D01*
Y30477D01*
Y30374D01*
Y30270D01*
Y30166D01*
Y30063D01*
Y29959D01*
Y29855D01*
Y29752D01*
Y29648D01*
Y29544D01*
Y29441D01*
X19592D01*
Y29337D01*
Y29233D01*
Y29129D01*
X19696D01*
Y29026D01*
X19903D01*
Y28922D01*
X20214D01*
Y29026D01*
X20318D01*
Y29129D01*
X20421D01*
Y29233D01*
Y29337D01*
X20525D01*
Y29441D01*
Y29544D01*
Y29648D01*
Y29752D01*
Y29855D01*
Y29959D01*
Y30063D01*
Y30166D01*
Y30270D01*
Y30374D01*
Y30477D01*
Y30581D01*
Y30685D01*
Y30788D01*
Y30892D01*
Y30996D01*
Y31100D01*
Y31203D01*
Y31307D01*
Y31411D01*
Y31514D01*
Y31618D01*
Y31722D01*
Y31825D01*
Y31929D01*
Y32033D01*
Y32136D01*
Y32240D01*
Y32344D01*
Y32447D01*
X20629D01*
Y32551D01*
Y32655D01*
Y32759D01*
Y32862D01*
Y32966D01*
X20732D01*
Y33070D01*
Y33173D01*
X20836D01*
Y33277D01*
Y33381D01*
X20940D01*
Y33484D01*
X21044D01*
Y33588D01*
X21354D01*
Y33692D01*
X21977D01*
Y33588D01*
D02*
G37*
G36*
X22806Y46445D02*
Y46341D01*
Y46238D01*
Y46134D01*
Y46030D01*
Y45926D01*
Y45823D01*
Y45719D01*
Y45616D01*
Y45512D01*
Y45408D01*
Y45304D01*
Y45201D01*
Y45097D01*
Y44993D01*
X22702D01*
Y44890D01*
X22599D01*
Y44786D01*
X22495D01*
Y44682D01*
X22391D01*
Y44579D01*
X22288D01*
Y44475D01*
X22184D01*
Y44371D01*
X21977D01*
Y44267D01*
X21873D01*
Y44164D01*
X21769D01*
Y44060D01*
X21666D01*
Y43957D01*
X21562D01*
Y43853D01*
X21458D01*
Y43749D01*
X21354D01*
Y43645D01*
X21251D01*
Y43542D01*
X21147D01*
Y43438D01*
X21044D01*
Y43334D01*
X20940D01*
Y43231D01*
X20732D01*
Y43127D01*
X20629D01*
Y43023D01*
X20525D01*
Y42920D01*
X20421D01*
Y42816D01*
X20318D01*
Y42712D01*
X20214D01*
Y42609D01*
X20110D01*
Y42505D01*
X20007D01*
Y42401D01*
X19903D01*
Y42298D01*
X19799D01*
Y42194D01*
X22806D01*
Y42090D01*
Y41987D01*
Y41883D01*
Y41779D01*
Y41675D01*
Y41572D01*
Y41468D01*
Y41364D01*
Y41261D01*
Y41157D01*
Y41053D01*
Y40950D01*
Y40846D01*
X18866D01*
Y40950D01*
Y41053D01*
Y41157D01*
Y41261D01*
Y41364D01*
Y41468D01*
Y41572D01*
Y41675D01*
Y41779D01*
Y41883D01*
Y41987D01*
Y42090D01*
Y42194D01*
Y42298D01*
Y42401D01*
Y42505D01*
Y42609D01*
X18970D01*
Y42712D01*
X19073D01*
Y42816D01*
X19177D01*
Y42920D01*
X19281D01*
Y43023D01*
X19488D01*
Y43127D01*
X19592D01*
Y43231D01*
X19696D01*
Y43334D01*
X19799D01*
Y43438D01*
X19903D01*
Y43542D01*
X20007D01*
Y43645D01*
X20110D01*
Y43749D01*
X20214D01*
Y43853D01*
X20318D01*
Y43957D01*
X20421D01*
Y44060D01*
X20525D01*
Y44164D01*
X20732D01*
Y44267D01*
X20836D01*
Y44371D01*
X20940D01*
Y44475D01*
X21044D01*
Y44579D01*
X21147D01*
Y44682D01*
X21251D01*
Y44786D01*
X21354D01*
Y44890D01*
X21458D01*
Y44993D01*
X21562D01*
Y45097D01*
X21666D01*
Y45201D01*
X21769D01*
Y45304D01*
X20732D01*
Y45201D01*
X18866D01*
Y45304D01*
Y45408D01*
Y45512D01*
Y45616D01*
Y45719D01*
Y45823D01*
Y45926D01*
Y46030D01*
Y46134D01*
Y46238D01*
Y46341D01*
Y46445D01*
Y46549D01*
X22806D01*
Y46445D01*
D02*
G37*
G36*
Y39498D02*
Y39394D01*
Y39291D01*
Y39187D01*
Y39083D01*
Y38980D01*
Y38876D01*
Y38772D01*
Y38669D01*
Y38565D01*
Y38461D01*
Y38357D01*
Y38254D01*
Y38150D01*
Y38046D01*
Y37943D01*
Y37839D01*
Y37735D01*
Y37632D01*
Y37528D01*
Y37424D01*
Y37321D01*
Y37217D01*
Y37113D01*
Y37010D01*
Y36906D01*
Y36802D01*
Y36698D01*
Y36595D01*
X22702D01*
Y36491D01*
Y36388D01*
Y36284D01*
Y36180D01*
Y36076D01*
Y35973D01*
X22599D01*
Y35869D01*
Y35765D01*
Y35662D01*
X22495D01*
Y35558D01*
Y35454D01*
X22391D01*
Y35351D01*
Y35247D01*
X22288D01*
Y35143D01*
Y35039D01*
X22184D01*
Y34936D01*
X22080D01*
Y34832D01*
X21977D01*
Y34729D01*
X21873D01*
Y34625D01*
X21666D01*
Y34521D01*
X21458D01*
Y34417D01*
X20318D01*
Y34521D01*
X20007D01*
Y34625D01*
X19799D01*
Y34729D01*
X19696D01*
Y34832D01*
X19592D01*
Y34936D01*
X19488D01*
Y35039D01*
X19385D01*
Y35143D01*
X19281D01*
Y35247D01*
Y35351D01*
X19177D01*
Y35454D01*
Y35558D01*
X19073D01*
Y35662D01*
Y35765D01*
Y35869D01*
Y35973D01*
X18970D01*
Y36076D01*
Y36180D01*
Y36284D01*
Y36388D01*
Y36491D01*
X18866D01*
Y36595D01*
Y36698D01*
Y36802D01*
Y36906D01*
Y37010D01*
Y37113D01*
Y37217D01*
Y37321D01*
Y37424D01*
Y37528D01*
Y37632D01*
Y37735D01*
Y37839D01*
Y37943D01*
Y38046D01*
Y38150D01*
Y38254D01*
Y38357D01*
Y38461D01*
Y38565D01*
Y38669D01*
Y38772D01*
Y38876D01*
Y38980D01*
Y39083D01*
Y39187D01*
Y39291D01*
Y39394D01*
Y39498D01*
Y39602D01*
X19488D01*
Y39498D01*
Y39394D01*
Y39291D01*
Y39187D01*
Y39083D01*
Y38980D01*
Y38876D01*
Y38772D01*
Y38669D01*
Y38565D01*
Y38461D01*
Y38357D01*
Y38254D01*
Y38150D01*
Y38046D01*
Y37943D01*
Y37839D01*
Y37735D01*
Y37632D01*
Y37528D01*
Y37424D01*
Y37321D01*
Y37217D01*
Y37113D01*
Y37010D01*
Y36906D01*
Y36802D01*
Y36698D01*
X19592D01*
Y36595D01*
Y36491D01*
Y36388D01*
X19696D01*
Y36284D01*
Y36180D01*
X19799D01*
Y36076D01*
X19903D01*
Y35973D01*
X20110D01*
Y35869D01*
X20525D01*
Y35973D01*
Y36076D01*
Y36180D01*
Y36284D01*
Y36388D01*
Y36491D01*
Y36595D01*
Y36698D01*
Y36802D01*
Y36906D01*
Y37010D01*
Y37113D01*
Y37217D01*
Y37321D01*
Y37424D01*
Y37528D01*
Y37632D01*
Y37735D01*
Y37839D01*
Y37943D01*
Y38046D01*
Y38150D01*
Y38254D01*
Y38357D01*
Y38461D01*
Y38565D01*
Y38669D01*
Y38772D01*
Y38876D01*
Y38980D01*
Y39083D01*
Y39187D01*
Y39291D01*
Y39394D01*
Y39498D01*
Y39602D01*
X21147D01*
Y39498D01*
Y39394D01*
Y39291D01*
Y39187D01*
Y39083D01*
Y38980D01*
Y38876D01*
Y38772D01*
Y38669D01*
Y38565D01*
Y38461D01*
Y38357D01*
Y38254D01*
Y38150D01*
Y38046D01*
Y37943D01*
Y37839D01*
Y37735D01*
Y37632D01*
Y37528D01*
Y37424D01*
Y37321D01*
Y37217D01*
Y37113D01*
Y37010D01*
Y36906D01*
Y36802D01*
Y36698D01*
Y36595D01*
Y36491D01*
Y36388D01*
Y36284D01*
Y36180D01*
Y36076D01*
Y35973D01*
Y35869D01*
X21666D01*
Y35973D01*
X21769D01*
Y36076D01*
X21873D01*
Y36180D01*
X21977D01*
Y36284D01*
Y36388D01*
X22080D01*
Y36491D01*
Y36595D01*
Y36698D01*
Y36802D01*
X22184D01*
Y36906D01*
Y37010D01*
Y37113D01*
Y37217D01*
Y37321D01*
Y37424D01*
Y37528D01*
Y37632D01*
Y37735D01*
Y37839D01*
Y37943D01*
Y38046D01*
Y38150D01*
Y38254D01*
Y38357D01*
Y38461D01*
Y38565D01*
Y38669D01*
Y38772D01*
Y38876D01*
Y38980D01*
Y39083D01*
Y39187D01*
Y39291D01*
Y39394D01*
Y39498D01*
Y39602D01*
X22806D01*
Y39498D01*
D02*
G37*
G36*
X14304Y46445D02*
Y46341D01*
Y46238D01*
Y46134D01*
Y46030D01*
Y45926D01*
Y45823D01*
Y45719D01*
Y45616D01*
Y45512D01*
Y45408D01*
Y45304D01*
Y45201D01*
Y45097D01*
Y44993D01*
Y44890D01*
Y44786D01*
Y44682D01*
Y44579D01*
Y44475D01*
Y44371D01*
Y44267D01*
Y44164D01*
Y44060D01*
Y43957D01*
Y43853D01*
Y43749D01*
Y43645D01*
Y43542D01*
Y43438D01*
Y43334D01*
Y43231D01*
Y43127D01*
X14200D01*
Y43023D01*
X13993D01*
Y42920D01*
X13889D01*
Y42816D01*
X13785D01*
Y42712D01*
X13682D01*
Y42609D01*
X13474D01*
Y42505D01*
X13371D01*
Y42401D01*
X13267D01*
Y42298D01*
X13060D01*
Y42194D01*
X12956D01*
Y42090D01*
X12852D01*
Y41987D01*
X12749D01*
Y41883D01*
X12541D01*
Y41779D01*
X12438D01*
Y41675D01*
X12334D01*
Y41572D01*
X12127D01*
Y41468D01*
X12023D01*
Y41364D01*
X11919D01*
Y41261D01*
X11712D01*
Y41157D01*
X11608D01*
Y41053D01*
X11504D01*
Y40950D01*
X11401D01*
Y40846D01*
X11193D01*
Y40742D01*
X11090D01*
Y40639D01*
X10986D01*
Y40535D01*
X10779D01*
Y40431D01*
X10675D01*
Y40328D01*
X10571D01*
Y40224D01*
X10468D01*
Y40120D01*
X10260D01*
Y40016D01*
X10157D01*
Y39913D01*
X10053D01*
Y39809D01*
X9845D01*
Y39705D01*
X9742D01*
Y39602D01*
X9638D01*
Y39498D01*
X9431D01*
Y39394D01*
X9327D01*
Y39291D01*
X9223D01*
Y39187D01*
X9120D01*
Y39083D01*
X8912D01*
Y38980D01*
X8809D01*
Y38876D01*
X8705D01*
Y38772D01*
X8497D01*
Y38669D01*
X8394D01*
Y38565D01*
X8290D01*
Y38461D01*
X8083D01*
Y38357D01*
X7979D01*
Y38254D01*
X7875D01*
Y38150D01*
X7772D01*
Y38046D01*
X7564D01*
Y37943D01*
X7461D01*
Y37839D01*
X7357D01*
Y37735D01*
X7150D01*
Y37632D01*
X7046D01*
Y37528D01*
X6942D01*
Y37424D01*
X6839D01*
Y37321D01*
X6631D01*
Y37217D01*
X6527D01*
Y37113D01*
X12334D01*
Y37217D01*
X14304D01*
Y37113D01*
Y37010D01*
Y36906D01*
Y36802D01*
Y36698D01*
Y36595D01*
Y36491D01*
Y36388D01*
Y36284D01*
Y36180D01*
Y36076D01*
Y35973D01*
Y35869D01*
Y35765D01*
Y35662D01*
Y35558D01*
Y35454D01*
Y35351D01*
Y35247D01*
Y35143D01*
Y35039D01*
Y34936D01*
Y34832D01*
Y34729D01*
Y34625D01*
Y34521D01*
Y34417D01*
Y34314D01*
X4039D01*
Y34417D01*
Y34521D01*
Y34625D01*
Y34729D01*
Y34832D01*
Y34936D01*
Y35039D01*
Y35143D01*
Y35247D01*
Y35351D01*
Y35454D01*
Y35558D01*
Y35662D01*
Y35765D01*
Y35869D01*
Y35973D01*
Y36076D01*
Y36180D01*
Y36284D01*
Y36388D01*
Y36491D01*
Y36595D01*
Y36698D01*
Y36802D01*
Y36906D01*
Y37010D01*
Y37113D01*
Y37217D01*
Y37321D01*
Y37424D01*
Y37528D01*
Y37632D01*
Y37735D01*
Y37839D01*
Y37943D01*
X4143D01*
Y38046D01*
X4350D01*
Y38150D01*
X4454D01*
Y38254D01*
X4558D01*
Y38357D01*
X4765D01*
Y38461D01*
X4868D01*
Y38565D01*
X4972D01*
Y38669D01*
X5076D01*
Y38772D01*
X5283D01*
Y38876D01*
X5387D01*
Y38980D01*
X5491D01*
Y39083D01*
X5698D01*
Y39187D01*
X5802D01*
Y39291D01*
X5905D01*
Y39394D01*
X6113D01*
Y39498D01*
X6216D01*
Y39602D01*
X6320D01*
Y39705D01*
X6424D01*
Y39809D01*
X6631D01*
Y39913D01*
X6735D01*
Y40016D01*
X6839D01*
Y40120D01*
X7046D01*
Y40224D01*
X7150D01*
Y40328D01*
X7253D01*
Y40431D01*
X7357D01*
Y40535D01*
X7564D01*
Y40639D01*
X7668D01*
Y40742D01*
X7772D01*
Y40846D01*
X7979D01*
Y40950D01*
X8083D01*
Y41053D01*
X8186D01*
Y41157D01*
X8394D01*
Y41261D01*
X8497D01*
Y41364D01*
X8601D01*
Y41468D01*
X8705D01*
Y41572D01*
X8912D01*
Y41675D01*
X9016D01*
Y41779D01*
X9120D01*
Y41883D01*
X9327D01*
Y41987D01*
X9431D01*
Y42090D01*
X9534D01*
Y42194D01*
X9638D01*
Y42298D01*
X9845D01*
Y42401D01*
X9949D01*
Y42505D01*
X10053D01*
Y42609D01*
X10260D01*
Y42712D01*
X10364D01*
Y42816D01*
X10468D01*
Y42920D01*
X10675D01*
Y43023D01*
X10779D01*
Y43127D01*
X10882D01*
Y43231D01*
X10986D01*
Y43334D01*
X11193D01*
Y43438D01*
X11297D01*
Y43542D01*
X11401D01*
Y43645D01*
X11504D01*
Y43749D01*
X9431D01*
Y43645D01*
X4039D01*
Y43749D01*
Y43853D01*
Y43957D01*
Y44060D01*
Y44164D01*
Y44267D01*
Y44371D01*
Y44475D01*
Y44579D01*
Y44682D01*
Y44786D01*
Y44890D01*
Y44993D01*
Y45097D01*
Y45201D01*
Y45304D01*
Y45408D01*
Y45512D01*
Y45616D01*
Y45719D01*
Y45823D01*
Y45926D01*
Y46030D01*
Y46134D01*
Y46238D01*
Y46341D01*
Y46445D01*
Y46549D01*
X14304D01*
Y46445D01*
D02*
G37*
G36*
X22806Y105338D02*
Y105235D01*
Y105131D01*
Y105027D01*
Y104923D01*
Y104820D01*
Y104716D01*
Y104613D01*
Y104509D01*
Y104405D01*
Y104301D01*
Y104198D01*
Y104094D01*
X22599D01*
Y103990D01*
X22495D01*
Y103887D01*
X22288D01*
Y103783D01*
X22184D01*
Y103679D01*
X21977D01*
Y103576D01*
X21873D01*
Y103472D01*
Y103368D01*
Y103265D01*
Y103161D01*
Y103057D01*
Y102954D01*
Y102850D01*
Y102746D01*
Y102643D01*
Y102539D01*
Y102435D01*
Y102331D01*
Y102228D01*
Y102124D01*
Y102020D01*
Y101917D01*
Y101813D01*
Y101709D01*
Y101606D01*
Y101502D01*
Y101398D01*
Y101295D01*
Y101191D01*
Y101087D01*
Y100984D01*
Y100880D01*
Y100776D01*
Y100672D01*
Y100569D01*
X21977D01*
Y100465D01*
X22184D01*
Y100361D01*
X22391D01*
Y100258D01*
X22495D01*
Y100154D01*
X22702D01*
Y100050D01*
X22806D01*
Y99947D01*
Y99843D01*
Y99739D01*
Y99636D01*
Y99532D01*
Y99428D01*
Y99325D01*
Y99221D01*
Y99117D01*
Y99014D01*
Y98910D01*
Y98806D01*
X22599D01*
Y98910D01*
X22495D01*
Y99014D01*
X22288D01*
Y99117D01*
X22184D01*
Y99221D01*
X21977D01*
Y99325D01*
X21873D01*
Y99428D01*
X21769D01*
Y99532D01*
X21562D01*
Y99636D01*
X21458D01*
Y99739D01*
X21251D01*
Y99843D01*
X21147D01*
Y99947D01*
X20940D01*
Y100050D01*
X20836D01*
Y100154D01*
X20629D01*
Y100258D01*
X20525D01*
Y100361D01*
X20318D01*
Y100465D01*
X20214D01*
Y100569D01*
X20007D01*
Y100672D01*
X19903D01*
Y100776D01*
X19799D01*
Y100880D01*
X19592D01*
Y100984D01*
X19488D01*
Y101087D01*
X19281D01*
Y101191D01*
X19177D01*
Y101295D01*
X18970D01*
Y101398D01*
X18866D01*
Y101502D01*
Y101606D01*
Y101709D01*
Y101813D01*
Y101917D01*
Y102020D01*
Y102124D01*
Y102228D01*
Y102331D01*
Y102435D01*
Y102539D01*
Y102643D01*
Y102746D01*
Y102850D01*
X18970D01*
Y102954D01*
X19177D01*
Y103057D01*
X19281D01*
Y103161D01*
X19488D01*
Y103265D01*
X19592D01*
Y103368D01*
X19799D01*
Y103472D01*
X19903D01*
Y103576D01*
X20110D01*
Y103679D01*
X20214D01*
Y103783D01*
X20318D01*
Y103887D01*
X20525D01*
Y103990D01*
X20629D01*
Y104094D01*
X20836D01*
Y104198D01*
X20940D01*
Y104301D01*
X21147D01*
Y104405D01*
X21251D01*
Y104509D01*
X21458D01*
Y104613D01*
X21562D01*
Y104716D01*
X21769D01*
Y104820D01*
X21873D01*
Y104923D01*
X21977D01*
Y105027D01*
X22184D01*
Y105131D01*
X22288D01*
Y105235D01*
X22495D01*
Y105338D01*
X22599D01*
Y105442D01*
X22806D01*
Y105338D01*
D02*
G37*
G36*
X58899Y104329D02*
X57544D01*
Y110574D01*
X57532Y110563D01*
X57509Y110540D01*
X57464Y110494D01*
X57406Y110436D01*
X57337Y110368D01*
X57245Y110287D01*
X57153Y110195D01*
X57039Y110092D01*
X56912Y109989D01*
X56775Y109886D01*
X56476Y109679D01*
X56143Y109484D01*
X55787Y109323D01*
Y110827D01*
X55799D01*
X55810Y110838D01*
X55845Y110850D01*
X55891Y110873D01*
X55994Y110930D01*
X56143Y111011D01*
X56315Y111114D01*
X56522Y111263D01*
X56729Y111424D01*
X56958Y111630D01*
X56970Y111642D01*
X56981Y111653D01*
X57016Y111688D01*
X57062Y111734D01*
X57165Y111860D01*
X57291Y112021D01*
X57429Y112216D01*
X57567Y112445D01*
X57693Y112709D01*
X57796Y112985D01*
X58899D01*
Y104329D01*
D02*
G37*
G36*
X20525Y99014D02*
X20732D01*
Y98910D01*
X20836D01*
Y98806D01*
X20940D01*
Y98702D01*
Y98599D01*
X21044D01*
Y98495D01*
X21147D01*
Y98391D01*
Y98288D01*
Y98184D01*
X21251D01*
Y98080D01*
Y97977D01*
Y97873D01*
Y97769D01*
X21354D01*
Y97666D01*
Y97562D01*
Y97458D01*
Y97355D01*
Y97251D01*
Y97147D01*
Y97043D01*
Y96940D01*
Y96836D01*
Y96732D01*
Y96629D01*
Y96525D01*
Y96421D01*
Y96318D01*
Y96214D01*
Y96110D01*
Y96007D01*
Y95903D01*
Y95799D01*
Y95696D01*
Y95592D01*
Y95488D01*
Y95385D01*
Y95281D01*
Y95177D01*
Y95073D01*
Y94970D01*
Y94866D01*
Y94762D01*
X22806D01*
Y94659D01*
Y94555D01*
Y94451D01*
Y94348D01*
Y94244D01*
Y94140D01*
Y94037D01*
Y93933D01*
Y93829D01*
Y93726D01*
Y93622D01*
Y93518D01*
X18866D01*
Y93622D01*
Y93726D01*
Y93829D01*
Y93933D01*
Y94037D01*
Y94140D01*
Y94244D01*
Y94348D01*
Y94451D01*
Y94555D01*
Y94659D01*
Y94762D01*
Y94866D01*
Y94970D01*
Y95073D01*
Y95177D01*
Y95281D01*
Y95385D01*
Y95488D01*
Y95592D01*
Y95696D01*
Y95799D01*
Y95903D01*
Y96007D01*
Y96110D01*
Y96214D01*
Y96318D01*
Y96421D01*
Y96525D01*
Y96629D01*
Y96732D01*
Y96836D01*
Y96940D01*
Y97043D01*
Y97147D01*
Y97251D01*
Y97355D01*
Y97458D01*
Y97562D01*
Y97666D01*
X18970D01*
Y97769D01*
Y97873D01*
Y97977D01*
Y98080D01*
Y98184D01*
X19073D01*
Y98288D01*
Y98391D01*
X19177D01*
Y98495D01*
Y98599D01*
X19281D01*
Y98702D01*
X19385D01*
Y98806D01*
X19488D01*
Y98910D01*
X19592D01*
Y99014D01*
X19799D01*
Y99117D01*
X20525D01*
Y99014D01*
D02*
G37*
G36*
X49301Y111504D02*
X47200D01*
Y104329D01*
X45777D01*
Y111504D01*
X43676D01*
Y112962D01*
X49301D01*
Y111504D01*
D02*
G37*
G36*
X18970Y118092D02*
X19073D01*
Y117988D01*
Y117884D01*
X19177D01*
Y117780D01*
X19281D01*
Y117677D01*
X19385D01*
Y117573D01*
X19488D01*
Y117470D01*
X19592D01*
Y117366D01*
X19696D01*
Y117262D01*
X19799D01*
Y117158D01*
X19903D01*
Y117055D01*
X20007D01*
Y116951D01*
Y116847D01*
X20110D01*
Y116744D01*
X20214D01*
Y116640D01*
X20318D01*
Y116536D01*
X20421D01*
Y116433D01*
X20525D01*
Y116329D01*
X20629D01*
Y116225D01*
X20732D01*
Y116122D01*
X20836D01*
Y116018D01*
Y115914D01*
X20940D01*
Y115811D01*
X22806D01*
Y115707D01*
Y115603D01*
Y115499D01*
Y115396D01*
Y115292D01*
Y115188D01*
Y115085D01*
Y114981D01*
Y114877D01*
Y114774D01*
Y114670D01*
Y114566D01*
X20940D01*
Y114463D01*
Y114359D01*
X20836D01*
Y114255D01*
X20732D01*
Y114152D01*
X20629D01*
Y114048D01*
X20525D01*
Y113944D01*
X20421D01*
Y113840D01*
X20318D01*
Y113737D01*
X20214D01*
Y113633D01*
X20110D01*
Y113529D01*
X20007D01*
Y113426D01*
X19903D01*
Y113322D01*
Y113218D01*
X19799D01*
Y113115D01*
X19696D01*
Y113011D01*
X19592D01*
Y112907D01*
X19488D01*
Y112804D01*
X19385D01*
Y112700D01*
X19281D01*
Y112596D01*
X19177D01*
Y112493D01*
X19073D01*
Y112389D01*
X18970D01*
Y112285D01*
X18866D01*
Y112389D01*
Y112493D01*
Y112596D01*
Y112700D01*
Y112804D01*
Y112907D01*
Y113011D01*
Y113115D01*
Y113218D01*
Y113322D01*
Y113426D01*
Y113529D01*
Y113633D01*
X18970D01*
Y113737D01*
X19073D01*
Y113840D01*
X19177D01*
Y113944D01*
X19281D01*
Y114048D01*
X19385D01*
Y114152D01*
X19488D01*
Y114255D01*
X19592D01*
Y114359D01*
X19696D01*
Y114463D01*
X19799D01*
Y114566D01*
X19903D01*
Y114670D01*
X20007D01*
Y114774D01*
X20110D01*
Y114877D01*
X20214D01*
Y114981D01*
X20318D01*
Y115085D01*
X20421D01*
Y115188D01*
X20318D01*
Y115292D01*
X20214D01*
Y115396D01*
X20110D01*
Y115499D01*
Y115603D01*
X20007D01*
Y115707D01*
X19903D01*
Y115811D01*
X19799D01*
Y115914D01*
X19696D01*
Y116018D01*
X19592D01*
Y116122D01*
X19488D01*
Y116225D01*
X19385D01*
Y116329D01*
X19281D01*
Y116433D01*
X19177D01*
Y116536D01*
X19073D01*
Y116640D01*
X18970D01*
Y116744D01*
X18866D01*
Y116847D01*
Y116951D01*
Y117055D01*
Y117158D01*
Y117262D01*
Y117366D01*
Y117470D01*
Y117573D01*
Y117677D01*
Y117780D01*
Y117884D01*
Y117988D01*
Y118092D01*
Y118195D01*
X18970D01*
Y118092D01*
D02*
G37*
G36*
X22806Y111559D02*
Y111456D01*
Y111352D01*
Y111248D01*
Y111145D01*
Y111041D01*
Y110937D01*
Y110834D01*
Y110730D01*
Y110626D01*
Y110522D01*
Y110419D01*
Y110315D01*
Y110212D01*
X22702D01*
Y110108D01*
X22599D01*
Y110004D01*
X22495D01*
Y109900D01*
X22391D01*
Y109797D01*
X22288D01*
Y109693D01*
X22184D01*
Y109589D01*
X22080D01*
Y109486D01*
X21977D01*
Y109382D01*
X21769D01*
Y109278D01*
X21666D01*
Y109175D01*
X21562D01*
Y109071D01*
X21458D01*
Y108967D01*
X21354D01*
Y108864D01*
X21251D01*
Y108760D01*
X21147D01*
Y108656D01*
X21044D01*
Y108553D01*
X20940D01*
Y108449D01*
X20836D01*
Y108345D01*
X20732D01*
Y108241D01*
X20525D01*
Y108138D01*
X20421D01*
Y108034D01*
X20318D01*
Y107930D01*
X20214D01*
Y107827D01*
X20110D01*
Y107723D01*
X20007D01*
Y107619D01*
X19903D01*
Y107516D01*
X19799D01*
Y107412D01*
Y107308D01*
X20732D01*
Y107412D01*
X22806D01*
Y107308D01*
Y107205D01*
Y107101D01*
Y106997D01*
Y106894D01*
Y106790D01*
Y106686D01*
Y106582D01*
Y106479D01*
Y106375D01*
Y106271D01*
Y106168D01*
Y106064D01*
X18866D01*
Y106168D01*
Y106271D01*
Y106375D01*
Y106479D01*
Y106582D01*
Y106686D01*
Y106790D01*
Y106894D01*
Y106997D01*
Y107101D01*
Y107205D01*
Y107308D01*
Y107412D01*
Y107516D01*
Y107619D01*
Y107723D01*
Y107827D01*
X18970D01*
Y107930D01*
X19073D01*
Y108034D01*
X19281D01*
Y108138D01*
X19385D01*
Y108241D01*
X19488D01*
Y108345D01*
X19592D01*
Y108449D01*
X19696D01*
Y108553D01*
X19799D01*
Y108656D01*
X19903D01*
Y108760D01*
X20007D01*
Y108864D01*
X20110D01*
Y108967D01*
X20214D01*
Y109071D01*
X20318D01*
Y109175D01*
X20525D01*
Y109278D01*
X20629D01*
Y109382D01*
X20732D01*
Y109486D01*
X20836D01*
Y109589D01*
X20940D01*
Y109693D01*
X21044D01*
Y109797D01*
X21147D01*
Y109900D01*
X21251D01*
Y110004D01*
X21354D01*
Y110108D01*
X21458D01*
Y110212D01*
X21562D01*
Y110315D01*
X21769D01*
Y110419D01*
Y110522D01*
X21562D01*
Y110419D01*
X18866D01*
Y110522D01*
Y110626D01*
Y110730D01*
Y110834D01*
Y110937D01*
Y111041D01*
Y111145D01*
Y111248D01*
Y111352D01*
Y111456D01*
Y111559D01*
Y111663D01*
X22806D01*
Y111559D01*
D02*
G37*
G36*
X14304Y118092D02*
Y117988D01*
Y117884D01*
Y117780D01*
Y117677D01*
Y117573D01*
Y117470D01*
Y117366D01*
Y117262D01*
Y117158D01*
Y117055D01*
Y116951D01*
Y116847D01*
Y116744D01*
Y116640D01*
Y116536D01*
Y116433D01*
Y116329D01*
Y116225D01*
Y116122D01*
Y116018D01*
Y115914D01*
Y115811D01*
Y115707D01*
Y115603D01*
Y115499D01*
Y115396D01*
Y115292D01*
Y115188D01*
Y115085D01*
Y114981D01*
Y114877D01*
Y114774D01*
X14097D01*
Y114670D01*
X13993D01*
Y114566D01*
X13889D01*
Y114463D01*
X13682D01*
Y114359D01*
X13578D01*
Y114255D01*
X13474D01*
Y114152D01*
X13371D01*
Y114048D01*
X13163D01*
Y113944D01*
X13060D01*
Y113840D01*
X12956D01*
Y113737D01*
X12749D01*
Y113633D01*
X12645D01*
Y113529D01*
X12541D01*
Y113426D01*
X12438D01*
Y113322D01*
X12230D01*
Y113218D01*
X12127D01*
Y113115D01*
X12023D01*
Y113011D01*
X11816D01*
Y112907D01*
X11712D01*
Y112804D01*
X11608D01*
Y112700D01*
X11401D01*
Y112596D01*
X11297D01*
Y112493D01*
X11193D01*
Y112389D01*
X11090D01*
Y112285D01*
X10882D01*
Y112181D01*
X10779D01*
Y112078D01*
X10675D01*
Y111974D01*
X10468D01*
Y111871D01*
X10364D01*
Y111767D01*
X10260D01*
Y111663D01*
X10157D01*
Y111559D01*
X9949D01*
Y111456D01*
X9845D01*
Y111352D01*
X9742D01*
Y111248D01*
X9534D01*
Y111145D01*
X9431D01*
Y111041D01*
X9327D01*
Y110937D01*
X9120D01*
Y110834D01*
X9016D01*
Y110730D01*
X8912D01*
Y110626D01*
X8809D01*
Y110522D01*
X8601D01*
Y110419D01*
X8497D01*
Y110315D01*
X8394D01*
Y110212D01*
X8186D01*
Y110108D01*
X8083D01*
Y110004D01*
X7979D01*
Y109900D01*
X7875D01*
Y109797D01*
X7668D01*
Y109693D01*
X7564D01*
Y109589D01*
X7461D01*
Y109486D01*
X7253D01*
Y109382D01*
X7150D01*
Y109278D01*
X7046D01*
Y109175D01*
X6839D01*
Y109071D01*
X6735D01*
Y108967D01*
X6631D01*
Y108864D01*
X6527D01*
Y108760D01*
X10571D01*
Y108864D01*
X14304D01*
Y108760D01*
Y108656D01*
Y108553D01*
Y108449D01*
Y108345D01*
Y108241D01*
Y108138D01*
Y108034D01*
Y107930D01*
Y107827D01*
Y107723D01*
Y107619D01*
Y107516D01*
Y107412D01*
Y107308D01*
Y107205D01*
Y107101D01*
Y106997D01*
Y106894D01*
Y106790D01*
Y106686D01*
Y106582D01*
Y106479D01*
Y106375D01*
Y106271D01*
Y106168D01*
Y106064D01*
Y105960D01*
X4039D01*
Y106064D01*
Y106168D01*
Y106271D01*
Y106375D01*
Y106479D01*
Y106582D01*
Y106686D01*
Y106790D01*
Y106894D01*
Y106997D01*
Y107101D01*
Y107205D01*
Y107308D01*
Y107412D01*
Y107516D01*
Y107619D01*
Y107723D01*
Y107827D01*
Y107930D01*
Y108034D01*
Y108138D01*
Y108241D01*
Y108345D01*
Y108449D01*
Y108553D01*
Y108656D01*
Y108760D01*
Y108864D01*
Y108967D01*
Y109071D01*
Y109175D01*
Y109278D01*
Y109382D01*
Y109486D01*
Y109589D01*
X4143D01*
Y109693D01*
X4246D01*
Y109797D01*
X4454D01*
Y109900D01*
X4558D01*
Y110004D01*
X4661D01*
Y110108D01*
X4868D01*
Y110212D01*
X4972D01*
Y110315D01*
X5076D01*
Y110419D01*
X5180D01*
Y110522D01*
X5387D01*
Y110626D01*
X5491D01*
Y110730D01*
X5594D01*
Y110834D01*
X5802D01*
Y110937D01*
X5905D01*
Y111041D01*
X6009D01*
Y111145D01*
X6113D01*
Y111248D01*
X6320D01*
Y111352D01*
X6424D01*
Y111456D01*
X6527D01*
Y111559D01*
X6735D01*
Y111663D01*
X6839D01*
Y111767D01*
X6942D01*
Y111871D01*
X7046D01*
Y111974D01*
X7253D01*
Y112078D01*
X7357D01*
Y112181D01*
X7461D01*
Y112285D01*
X7668D01*
Y112389D01*
X7772D01*
Y112493D01*
X7875D01*
Y112596D01*
X8083D01*
Y112700D01*
X8186D01*
Y112804D01*
X8290D01*
Y112907D01*
X8394D01*
Y113011D01*
X8601D01*
Y113115D01*
X8705D01*
Y113218D01*
X8809D01*
Y113322D01*
X9016D01*
Y113426D01*
X9120D01*
Y113529D01*
X9223D01*
Y113633D01*
X9327D01*
Y113737D01*
X9534D01*
Y113840D01*
X9638D01*
Y113944D01*
X9742D01*
Y114048D01*
X9949D01*
Y114152D01*
X10053D01*
Y114255D01*
X10157D01*
Y114359D01*
X10364D01*
Y114463D01*
X10468D01*
Y114566D01*
X10571D01*
Y114670D01*
X10675D01*
Y114774D01*
X10882D01*
Y114877D01*
X10986D01*
Y114981D01*
X11090D01*
Y115085D01*
X11297D01*
Y115188D01*
X11401D01*
Y115292D01*
X11504D01*
Y115396D01*
X7772D01*
Y115292D01*
X4039D01*
Y115396D01*
Y115499D01*
Y115603D01*
Y115707D01*
Y115811D01*
Y115914D01*
Y116018D01*
Y116122D01*
Y116225D01*
Y116329D01*
Y116433D01*
Y116536D01*
Y116640D01*
Y116744D01*
Y116847D01*
Y116951D01*
Y117055D01*
Y117158D01*
Y117262D01*
Y117366D01*
Y117470D01*
Y117573D01*
Y117677D01*
Y117780D01*
Y117884D01*
Y117988D01*
Y118092D01*
Y118195D01*
X14304D01*
Y118092D01*
D02*
G37*
G36*
X52320Y112974D02*
X52401Y112962D01*
X52504Y112951D01*
X52722Y112905D01*
X52963Y112813D01*
X53101Y112767D01*
X53227Y112698D01*
X53354Y112618D01*
X53480Y112526D01*
X53595Y112423D01*
X53710Y112296D01*
X53721Y112285D01*
X53733Y112262D01*
X53767Y112227D01*
X53801Y112181D01*
X53847Y112113D01*
X53893Y112032D01*
X53996Y111848D01*
X54100Y111619D01*
X54192Y111366D01*
X54261Y111079D01*
X54272Y110930D01*
X54283Y110769D01*
Y110758D01*
Y110747D01*
Y110678D01*
X54272Y110563D01*
X54249Y110436D01*
X54215Y110276D01*
X54169Y110104D01*
X54111Y109920D01*
X54019Y109748D01*
X54008Y109725D01*
X53974Y109667D01*
X53916Y109587D01*
X53824Y109484D01*
X53721Y109357D01*
X53583Y109220D01*
X53434Y109093D01*
X53250Y108956D01*
X53262D01*
X53273Y108944D01*
X53308Y108933D01*
X53354Y108921D01*
X53457Y108875D01*
X53595Y108806D01*
X53744Y108714D01*
X53905Y108588D01*
X54065Y108439D01*
X54215Y108255D01*
Y108244D01*
X54226Y108232D01*
X54249Y108198D01*
X54272Y108163D01*
X54329Y108037D01*
X54410Y107888D01*
X54479Y107693D01*
X54536Y107452D01*
X54582Y107188D01*
X54593Y106901D01*
Y106889D01*
Y106843D01*
Y106786D01*
X54582Y106705D01*
X54571Y106602D01*
X54559Y106487D01*
X54536Y106361D01*
X54502Y106212D01*
X54421Y105902D01*
X54364Y105741D01*
X54295Y105580D01*
X54215Y105420D01*
X54111Y105259D01*
X54008Y105098D01*
X53882Y104949D01*
X53870Y104938D01*
X53847Y104915D01*
X53813Y104880D01*
X53755Y104834D01*
X53687Y104765D01*
X53606Y104708D01*
X53514Y104639D01*
X53411Y104570D01*
X53170Y104421D01*
X52883Y104306D01*
X52722Y104249D01*
X52561Y104214D01*
X52389Y104191D01*
X52206Y104180D01*
X52114D01*
X52045Y104191D01*
X51965Y104203D01*
X51873Y104214D01*
X51655Y104260D01*
X51402Y104341D01*
X51138Y104455D01*
X51012Y104524D01*
X50874Y104616D01*
X50748Y104708D01*
X50621Y104823D01*
X50610Y104834D01*
X50598Y104857D01*
X50564Y104892D01*
X50518Y104938D01*
X50472Y105007D01*
X50415Y105087D01*
X50357Y105179D01*
X50288Y105294D01*
X50220Y105408D01*
X50162Y105546D01*
X50093Y105695D01*
X50036Y105844D01*
X49979Y106017D01*
X49933Y106200D01*
X49898Y106395D01*
X49875Y106602D01*
X51184Y106797D01*
Y106786D01*
Y106774D01*
X51195Y106740D01*
Y106694D01*
X51218Y106591D01*
X51241Y106453D01*
X51287Y106304D01*
X51345Y106155D01*
X51425Y106005D01*
X51517Y105868D01*
X51528Y105856D01*
X51563Y105822D01*
X51632Y105764D01*
X51712Y105707D01*
X51804Y105649D01*
X51919Y105592D01*
X52045Y105558D01*
X52183Y105546D01*
X52206D01*
X52252Y105558D01*
X52332Y105569D01*
X52435Y105592D01*
X52539Y105638D01*
X52665Y105707D01*
X52780Y105799D01*
X52894Y105925D01*
X52906Y105948D01*
X52940Y105994D01*
X52986Y106086D01*
X53044Y106200D01*
X53101Y106350D01*
X53147Y106533D01*
X53181Y106740D01*
X53193Y106981D01*
Y106992D01*
Y107004D01*
Y107038D01*
Y107084D01*
X53181Y107199D01*
X53158Y107337D01*
X53124Y107498D01*
X53067Y107670D01*
X52998Y107819D01*
X52906Y107968D01*
X52894Y107980D01*
X52860Y108026D01*
X52803Y108083D01*
X52722Y108152D01*
X52619Y108221D01*
X52504Y108278D01*
X52378Y108324D01*
X52240Y108336D01*
X52194D01*
X52137Y108324D01*
X52068D01*
X51976Y108301D01*
X51873Y108278D01*
X51746Y108255D01*
X51620Y108209D01*
X51758Y109564D01*
X51850D01*
X51942Y109575D01*
X52068Y109587D01*
X52206Y109621D01*
X52343Y109667D01*
X52481Y109748D01*
X52607Y109839D01*
X52619Y109851D01*
X52653Y109897D01*
X52711Y109966D01*
X52768Y110058D01*
X52814Y110172D01*
X52872Y110310D01*
X52906Y110482D01*
X52917Y110666D01*
Y110689D01*
Y110735D01*
X52906Y110827D01*
X52894Y110919D01*
X52860Y111033D01*
X52826Y111148D01*
X52768Y111263D01*
X52688Y111366D01*
X52676Y111378D01*
X52653Y111412D01*
X52596Y111447D01*
X52539Y111504D01*
X52447Y111550D01*
X52355Y111584D01*
X52240Y111619D01*
X52114Y111630D01*
X52056D01*
X51987Y111619D01*
X51907Y111596D01*
X51815Y111562D01*
X51712Y111504D01*
X51620Y111435D01*
X51517Y111332D01*
X51505Y111320D01*
X51482Y111275D01*
X51437Y111217D01*
X51391Y111114D01*
X51333Y110999D01*
X51287Y110850D01*
X51241Y110678D01*
X51218Y110482D01*
X49967Y110747D01*
Y110758D01*
X49979Y110804D01*
X49990Y110861D01*
X50002Y110942D01*
X50024Y111033D01*
X50059Y111148D01*
X50093Y111263D01*
X50139Y111401D01*
X50243Y111676D01*
X50369Y111963D01*
X50530Y112216D01*
X50621Y112342D01*
X50725Y112445D01*
X50736Y112457D01*
X50748Y112469D01*
X50782Y112491D01*
X50828Y112526D01*
X50885Y112572D01*
X50954Y112618D01*
X51115Y112721D01*
X51333Y112813D01*
X51574Y112905D01*
X51850Y112962D01*
X51999Y112985D01*
X52252D01*
X52320Y112974D01*
D02*
G37*
G36*
X42723Y104329D02*
X41300D01*
Y108106D01*
X38487D01*
Y104329D01*
X37064D01*
Y112962D01*
X38487D01*
Y109564D01*
X41300D01*
Y112962D01*
X42723D01*
Y104329D01*
D02*
G37*
G36*
X21458Y83668D02*
X21769D01*
Y83564D01*
X21873D01*
Y83461D01*
X22080D01*
Y83357D01*
X22184D01*
Y83253D01*
Y83150D01*
X22288D01*
Y83046D01*
X22391D01*
Y82942D01*
Y82838D01*
X22495D01*
Y82735D01*
Y82631D01*
X22599D01*
Y82528D01*
Y82424D01*
X22702D01*
Y82320D01*
Y82216D01*
Y82113D01*
Y82009D01*
Y81905D01*
X22806D01*
Y81802D01*
Y81698D01*
Y81594D01*
Y81491D01*
Y81387D01*
Y81283D01*
Y81180D01*
Y81076D01*
Y80972D01*
X22910D01*
Y80869D01*
Y80765D01*
Y80661D01*
Y80557D01*
Y80454D01*
Y80350D01*
Y80246D01*
X22806D01*
Y80143D01*
Y80039D01*
Y79935D01*
Y79832D01*
Y79728D01*
Y79624D01*
Y79521D01*
Y79417D01*
Y79313D01*
X22702D01*
Y79210D01*
Y79106D01*
Y79002D01*
Y78899D01*
X22599D01*
Y78795D01*
Y78691D01*
Y78587D01*
X22495D01*
Y78484D01*
Y78380D01*
X22391D01*
Y78276D01*
Y78173D01*
X22288D01*
Y78069D01*
X22184D01*
Y77965D01*
X22080D01*
Y77862D01*
X21977D01*
Y77758D01*
X21769D01*
Y77654D01*
X21562D01*
Y77551D01*
X21251D01*
Y77447D01*
X20318D01*
Y77551D01*
X20007D01*
Y77654D01*
X19799D01*
Y77758D01*
X19696D01*
Y77862D01*
X19592D01*
Y77965D01*
X19488D01*
Y78069D01*
X19385D01*
Y78173D01*
X19281D01*
Y78276D01*
Y78380D01*
X19177D01*
Y78484D01*
Y78587D01*
X19073D01*
Y78691D01*
Y78795D01*
X18970D01*
Y78899D01*
Y79002D01*
Y79106D01*
Y79210D01*
X18866D01*
Y79313D01*
Y79417D01*
Y79521D01*
Y79624D01*
Y79728D01*
Y79832D01*
X18762D01*
Y79935D01*
Y80039D01*
Y80143D01*
Y80246D01*
Y80350D01*
Y80454D01*
Y80557D01*
Y80661D01*
Y80765D01*
Y80869D01*
Y80972D01*
Y81076D01*
Y81180D01*
Y81283D01*
Y81387D01*
X18866D01*
Y81491D01*
Y81594D01*
Y81698D01*
Y81802D01*
Y81905D01*
Y82009D01*
Y82113D01*
X18970D01*
Y82216D01*
Y82320D01*
Y82424D01*
X19073D01*
Y82528D01*
Y82631D01*
Y82735D01*
X19177D01*
Y82838D01*
Y82942D01*
X19281D01*
Y83046D01*
Y83150D01*
X19385D01*
Y83253D01*
X19488D01*
Y83357D01*
X19592D01*
Y83461D01*
X19696D01*
Y83564D01*
X19903D01*
Y83668D01*
X20214D01*
Y83772D01*
X21458D01*
Y83668D01*
D02*
G37*
G36*
X33172Y113100D02*
X33275Y113088D01*
X33401Y113077D01*
X33528Y113054D01*
X33677Y113031D01*
X33987Y112951D01*
X34159Y112893D01*
X34320Y112824D01*
X34481Y112744D01*
X34630Y112664D01*
X34779Y112549D01*
X34917Y112434D01*
X34928Y112423D01*
X34951Y112400D01*
X34986Y112365D01*
X35032Y112308D01*
X35078Y112239D01*
X35146Y112159D01*
X35204Y112055D01*
X35273Y111940D01*
X35342Y111814D01*
X35410Y111665D01*
X35468Y111504D01*
X35525Y111332D01*
X35583Y111148D01*
X35617Y110953D01*
X35651Y110735D01*
X35663Y110505D01*
X34228Y110425D01*
Y110436D01*
Y110459D01*
X34216Y110494D01*
X34205Y110540D01*
X34182Y110655D01*
X34136Y110804D01*
X34079Y110965D01*
X34010Y111125D01*
X33918Y111275D01*
X33815Y111389D01*
X33803Y111401D01*
X33757Y111435D01*
X33688Y111481D01*
X33585Y111527D01*
X33459Y111573D01*
X33310Y111619D01*
X33137Y111653D01*
X32931Y111665D01*
X32839D01*
X32736Y111653D01*
X32609Y111630D01*
X32460Y111608D01*
X32311Y111562D01*
X32173Y111504D01*
X32047Y111424D01*
X32035Y111412D01*
X32001Y111378D01*
X31943Y111332D01*
X31898Y111263D01*
X31840Y111171D01*
X31783Y111068D01*
X31748Y110942D01*
X31737Y110815D01*
Y110804D01*
Y110758D01*
X31748Y110689D01*
X31771Y110609D01*
X31806Y110517D01*
X31852Y110425D01*
X31920Y110322D01*
X32012Y110230D01*
X32024Y110218D01*
X32070Y110184D01*
X32150Y110138D01*
X32208Y110104D01*
X32276Y110069D01*
X32357Y110035D01*
X32449Y109989D01*
X32552Y109943D01*
X32678Y109897D01*
X32816Y109851D01*
X32965Y109805D01*
X33126Y109748D01*
X33310Y109690D01*
X33321D01*
X33356Y109679D01*
X33413Y109656D01*
X33482Y109633D01*
X33574Y109610D01*
X33677Y109575D01*
X33906Y109495D01*
X34159Y109392D01*
X34423Y109289D01*
X34653Y109162D01*
X34767Y109105D01*
X34859Y109036D01*
X34882Y109025D01*
X34940Y108978D01*
X35020Y108898D01*
X35135Y108795D01*
X35250Y108669D01*
X35376Y108508D01*
X35491Y108336D01*
X35594Y108141D01*
Y108129D01*
X35606Y108117D01*
X35617Y108083D01*
X35640Y108049D01*
X35674Y107934D01*
X35732Y107773D01*
X35778Y107589D01*
X35812Y107360D01*
X35847Y107107D01*
X35858Y106832D01*
Y106820D01*
Y106786D01*
Y106728D01*
X35847Y106648D01*
X35835Y106545D01*
X35824Y106430D01*
X35801Y106315D01*
X35766Y106177D01*
X35686Y105879D01*
X35629Y105718D01*
X35560Y105558D01*
X35479Y105397D01*
X35387Y105236D01*
X35284Y105087D01*
X35158Y104938D01*
X35146Y104926D01*
X35123Y104903D01*
X35089Y104869D01*
X35032Y104823D01*
X34951Y104765D01*
X34859Y104697D01*
X34756Y104628D01*
X34630Y104559D01*
X34492Y104490D01*
X34331Y104421D01*
X34148Y104352D01*
X33952Y104295D01*
X33746Y104249D01*
X33516Y104214D01*
X33264Y104191D01*
X33000Y104180D01*
X32931D01*
X32885Y104191D01*
X32827D01*
X32759Y104203D01*
X32586Y104226D01*
X32391Y104272D01*
X32162Y104341D01*
X31920Y104432D01*
X31668Y104547D01*
X31415Y104708D01*
X31151Y104903D01*
X31036Y105018D01*
X30910Y105144D01*
X30795Y105282D01*
X30692Y105431D01*
X30589Y105592D01*
X30485Y105764D01*
X30405Y105959D01*
X30325Y106166D01*
X30256Y106384D01*
X30198Y106625D01*
X30153Y106878D01*
X30118Y107142D01*
X31507Y107302D01*
Y107280D01*
X31519Y107234D01*
X31542Y107153D01*
X31565Y107050D01*
X31599Y106924D01*
X31645Y106774D01*
X31714Y106625D01*
X31783Y106476D01*
X31875Y106327D01*
X31989Y106177D01*
X32104Y106028D01*
X32253Y105913D01*
X32414Y105799D01*
X32609Y105718D01*
X32816Y105672D01*
X33046Y105649D01*
X33149D01*
X33264Y105672D01*
X33413Y105695D01*
X33574Y105730D01*
X33746Y105787D01*
X33906Y105868D01*
X34056Y105982D01*
X34067Y105994D01*
X34113Y106040D01*
X34171Y106120D01*
X34251Y106212D01*
X34320Y106338D01*
X34377Y106476D01*
X34423Y106637D01*
X34435Y106820D01*
Y106832D01*
Y106866D01*
X34423Y106924D01*
Y106992D01*
X34377Y107165D01*
X34343Y107245D01*
X34297Y107325D01*
Y107337D01*
X34274Y107360D01*
X34239Y107394D01*
X34205Y107440D01*
X34148Y107498D01*
X34079Y107555D01*
X33998Y107612D01*
X33906Y107658D01*
X33895Y107670D01*
X33849Y107681D01*
X33769Y107716D01*
X33711Y107739D01*
X33643Y107762D01*
X33574Y107796D01*
X33482Y107831D01*
X33367Y107865D01*
X33252Y107911D01*
X33114Y107945D01*
X32965Y108003D01*
X32804Y108049D01*
X32621Y108106D01*
X32609D01*
X32586Y108117D01*
X32529Y108129D01*
X32471Y108152D01*
X32403Y108175D01*
X32311Y108209D01*
X32116Y108290D01*
X31898Y108370D01*
X31679Y108473D01*
X31473Y108588D01*
X31289Y108703D01*
X31266Y108714D01*
X31220Y108760D01*
X31140Y108841D01*
X31048Y108933D01*
X30933Y109059D01*
X30830Y109197D01*
X30715Y109369D01*
X30612Y109553D01*
Y109564D01*
X30600Y109575D01*
X30577Y109644D01*
X30531Y109748D01*
X30497Y109897D01*
X30451Y110058D01*
X30405Y110253D01*
X30382Y110471D01*
X30371Y110689D01*
Y110701D01*
Y110723D01*
Y110758D01*
Y110804D01*
X30382Y110873D01*
Y110942D01*
X30405Y111114D01*
X30451Y111309D01*
X30497Y111527D01*
X30577Y111745D01*
X30681Y111963D01*
Y111975D01*
X30692Y111986D01*
X30738Y112055D01*
X30807Y112159D01*
X30910Y112285D01*
X31036Y112423D01*
X31186Y112560D01*
X31369Y112698D01*
X31565Y112813D01*
X31576D01*
X31588Y112824D01*
X31622Y112836D01*
X31668Y112859D01*
X31725Y112882D01*
X31794Y112905D01*
X31955Y112962D01*
X32162Y113020D01*
X32403Y113065D01*
X32667Y113100D01*
X32965Y113111D01*
X33080D01*
X33172Y113100D01*
D02*
G37*
G36*
X14304Y82735D02*
Y82631D01*
Y82528D01*
Y82424D01*
Y82320D01*
Y82216D01*
Y82113D01*
Y82009D01*
Y81905D01*
Y81802D01*
Y81698D01*
Y81594D01*
Y81491D01*
Y81387D01*
Y81283D01*
Y81180D01*
Y81076D01*
Y80972D01*
Y80869D01*
Y80765D01*
Y80661D01*
Y80557D01*
Y80454D01*
Y80350D01*
Y80246D01*
Y80143D01*
Y80039D01*
Y79935D01*
Y79832D01*
Y79728D01*
Y79624D01*
X14097D01*
Y79521D01*
X13993D01*
Y79417D01*
X13889D01*
Y79313D01*
X13682D01*
Y79210D01*
X13578D01*
Y79106D01*
X13474D01*
Y79002D01*
X13371D01*
Y78899D01*
X13163D01*
Y78795D01*
X13060D01*
Y78691D01*
X12956D01*
Y78587D01*
X12749D01*
Y78484D01*
X12645D01*
Y78380D01*
X12541D01*
Y78276D01*
X12334D01*
Y78173D01*
X12230D01*
Y78069D01*
X12127D01*
Y77965D01*
X11919D01*
Y77862D01*
X11816D01*
Y77758D01*
X11712D01*
Y77654D01*
X11504D01*
Y77551D01*
X11401D01*
Y77447D01*
X11297D01*
Y77343D01*
X11090D01*
Y77240D01*
X10986D01*
Y77136D01*
X10882D01*
Y77032D01*
X10779D01*
Y76929D01*
X10571D01*
Y76825D01*
X10468D01*
Y76721D01*
X10364D01*
Y76617D01*
X10260D01*
Y76514D01*
Y76410D01*
Y76306D01*
Y76203D01*
Y76099D01*
Y75995D01*
Y75892D01*
Y75788D01*
Y75684D01*
Y75581D01*
Y75477D01*
Y75373D01*
Y75270D01*
Y75166D01*
Y75062D01*
Y74958D01*
Y74855D01*
Y74751D01*
Y74647D01*
Y74544D01*
Y74440D01*
Y74336D01*
Y74233D01*
Y74129D01*
Y74025D01*
Y73922D01*
Y73818D01*
Y73714D01*
Y73611D01*
Y73507D01*
Y73403D01*
Y73299D01*
Y73196D01*
Y73092D01*
X14304D01*
Y72988D01*
Y72885D01*
Y72781D01*
Y72677D01*
Y72574D01*
Y72470D01*
Y72366D01*
Y72263D01*
Y72159D01*
Y72055D01*
Y71952D01*
Y71848D01*
Y71744D01*
Y71640D01*
Y71537D01*
Y71433D01*
Y71329D01*
Y71226D01*
Y71122D01*
Y71018D01*
Y70915D01*
Y70811D01*
Y70707D01*
Y70604D01*
Y70500D01*
Y70396D01*
Y70293D01*
Y70189D01*
X4039D01*
Y70293D01*
Y70396D01*
Y70500D01*
Y70604D01*
Y70707D01*
Y70811D01*
Y70915D01*
Y71018D01*
Y71122D01*
Y71226D01*
Y71329D01*
Y71433D01*
Y71537D01*
Y71640D01*
Y71744D01*
Y71848D01*
Y71952D01*
Y72055D01*
Y72159D01*
Y72263D01*
Y72366D01*
Y72470D01*
Y72574D01*
Y72677D01*
Y72781D01*
Y72885D01*
Y72988D01*
Y73092D01*
Y73196D01*
Y73299D01*
Y73403D01*
Y73507D01*
Y73611D01*
Y73714D01*
Y73818D01*
Y73922D01*
Y74025D01*
Y74129D01*
Y74233D01*
Y74336D01*
Y74440D01*
Y74544D01*
Y74647D01*
Y74751D01*
Y74855D01*
Y74958D01*
Y75062D01*
Y75166D01*
Y75270D01*
Y75373D01*
Y75477D01*
Y75581D01*
Y75684D01*
Y75788D01*
Y75892D01*
Y75995D01*
Y76099D01*
Y76203D01*
Y76306D01*
Y76410D01*
Y76514D01*
Y76617D01*
Y76721D01*
Y76825D01*
Y76929D01*
Y77032D01*
Y77136D01*
Y77240D01*
Y77343D01*
Y77447D01*
Y77551D01*
Y77654D01*
Y77758D01*
Y77862D01*
Y77965D01*
Y78069D01*
X4143D01*
Y78173D01*
Y78276D01*
Y78380D01*
Y78484D01*
Y78587D01*
Y78691D01*
Y78795D01*
Y78899D01*
Y79002D01*
Y79106D01*
Y79210D01*
X4246D01*
Y79313D01*
Y79417D01*
Y79521D01*
Y79624D01*
Y79728D01*
X4350D01*
Y79832D01*
Y79935D01*
Y80039D01*
Y80143D01*
X4454D01*
Y80246D01*
Y80350D01*
Y80454D01*
X4558D01*
Y80557D01*
Y80661D01*
X4661D01*
Y80765D01*
Y80869D01*
X4765D01*
Y80972D01*
Y81076D01*
X4868D01*
Y81180D01*
X4972D01*
Y81283D01*
Y81387D01*
X5076D01*
Y81491D01*
X5180D01*
Y81594D01*
X5283D01*
Y81698D01*
X5387D01*
Y81802D01*
X5594D01*
Y81905D01*
X5698D01*
Y82009D01*
X6009D01*
Y82113D01*
X6320D01*
Y82216D01*
X7046D01*
Y82320D01*
X7253D01*
Y82216D01*
X7979D01*
Y82113D01*
X8290D01*
Y82009D01*
X8497D01*
Y81905D01*
X8601D01*
Y81802D01*
X8809D01*
Y81698D01*
X8912D01*
Y81594D01*
X9016D01*
Y81491D01*
X9120D01*
Y81387D01*
X9223D01*
Y81283D01*
X9327D01*
Y81180D01*
X9431D01*
Y81076D01*
Y80972D01*
X9534D01*
Y80869D01*
Y80765D01*
X9638D01*
Y80661D01*
Y80557D01*
X9742D01*
Y80454D01*
Y80350D01*
Y80246D01*
X9845D01*
Y80143D01*
Y80039D01*
Y79935D01*
X9949D01*
Y79832D01*
Y79728D01*
Y79624D01*
Y79521D01*
Y79417D01*
X10157D01*
Y79521D01*
X10260D01*
Y79624D01*
X10364D01*
Y79728D01*
X10468D01*
Y79832D01*
X10675D01*
Y79935D01*
X10779D01*
Y80039D01*
X10882D01*
Y80143D01*
X10986D01*
Y80246D01*
X11090D01*
Y80350D01*
X11297D01*
Y80454D01*
X11401D01*
Y80557D01*
X11504D01*
Y80661D01*
X11608D01*
Y80765D01*
X11816D01*
Y80869D01*
X11919D01*
Y80972D01*
X12023D01*
Y81076D01*
X12127D01*
Y81180D01*
X12334D01*
Y81283D01*
X12438D01*
Y81387D01*
X12541D01*
Y81491D01*
X12645D01*
Y81594D01*
X12852D01*
Y81698D01*
X12956D01*
Y81802D01*
X13060D01*
Y81905D01*
X13163D01*
Y82009D01*
X13267D01*
Y82113D01*
X13474D01*
Y82216D01*
X13578D01*
Y82320D01*
X13682D01*
Y82424D01*
X13785D01*
Y82528D01*
X13993D01*
Y82631D01*
X14097D01*
Y82735D01*
X14200D01*
Y82838D01*
X14304D01*
Y82735D01*
D02*
G37*
G36*
X22806Y91963D02*
Y91859D01*
Y91755D01*
Y91652D01*
Y91548D01*
Y91444D01*
Y91341D01*
Y91237D01*
Y91133D01*
Y91030D01*
Y90926D01*
Y90822D01*
X20836D01*
Y90926D01*
X19696D01*
Y90822D01*
X19799D01*
Y90719D01*
X20007D01*
Y90615D01*
X20110D01*
Y90511D01*
X20318D01*
Y90408D01*
X20525D01*
Y90304D01*
X20732D01*
Y90200D01*
X20940D01*
Y90096D01*
X21147D01*
Y89993D01*
X21354D01*
Y89889D01*
X21562D01*
Y89785D01*
X21666D01*
Y89682D01*
X21873D01*
Y89578D01*
X22080D01*
Y89474D01*
X22288D01*
Y89371D01*
X22495D01*
Y89267D01*
X22702D01*
Y89163D01*
X22806D01*
Y89060D01*
Y88956D01*
Y88852D01*
Y88749D01*
Y88645D01*
Y88541D01*
Y88437D01*
Y88334D01*
Y88230D01*
Y88126D01*
Y88023D01*
Y87919D01*
Y87815D01*
X22702D01*
Y87712D01*
X22495D01*
Y87608D01*
X22288D01*
Y87504D01*
X22080D01*
Y87401D01*
X21977D01*
Y87297D01*
X21769D01*
Y87193D01*
X21562D01*
Y87090D01*
X21354D01*
Y86986D01*
X21147D01*
Y86882D01*
X20940D01*
Y86779D01*
X20836D01*
Y86675D01*
X20629D01*
Y86571D01*
X20421D01*
Y86467D01*
X20214D01*
Y86364D01*
X20007D01*
Y86260D01*
X19799D01*
Y86156D01*
X19696D01*
Y86053D01*
X22080D01*
Y86156D01*
X22806D01*
Y86053D01*
Y85949D01*
Y85845D01*
Y85742D01*
Y85638D01*
Y85534D01*
Y85431D01*
Y85327D01*
Y85223D01*
Y85120D01*
Y85016D01*
Y84912D01*
Y84809D01*
X18866D01*
Y84912D01*
Y85016D01*
Y85120D01*
Y85223D01*
Y85327D01*
Y85431D01*
Y85534D01*
Y85638D01*
Y85742D01*
Y85845D01*
Y85949D01*
Y86053D01*
Y86156D01*
Y86260D01*
Y86364D01*
Y86467D01*
Y86571D01*
Y86675D01*
Y86779D01*
X18970D01*
Y86882D01*
X19177D01*
Y86986D01*
X19385D01*
Y87090D01*
X19592D01*
Y87193D01*
X19799D01*
Y87297D01*
X20007D01*
Y87401D01*
X20110D01*
Y87504D01*
X20318D01*
Y87608D01*
X20525D01*
Y87712D01*
X20732D01*
Y87815D01*
X20940D01*
Y87919D01*
X21147D01*
Y88023D01*
X21354D01*
Y88126D01*
X21562D01*
Y88230D01*
X21666D01*
Y88334D01*
X21873D01*
Y88437D01*
X21977D01*
Y88541D01*
X21769D01*
Y88645D01*
X21562D01*
Y88749D01*
X21354D01*
Y88852D01*
X21147D01*
Y88956D01*
X20940D01*
Y89060D01*
X20732D01*
Y89163D01*
X20629D01*
Y89267D01*
X20421D01*
Y89371D01*
X20214D01*
Y89474D01*
X20007D01*
Y89578D01*
X19799D01*
Y89682D01*
X19592D01*
Y89785D01*
X19385D01*
Y89889D01*
X19281D01*
Y89993D01*
X19073D01*
Y90096D01*
X18866D01*
Y90200D01*
Y90304D01*
Y90408D01*
Y90511D01*
Y90615D01*
Y90719D01*
Y90822D01*
Y90926D01*
Y91030D01*
Y91133D01*
Y91237D01*
Y91341D01*
Y91444D01*
Y91548D01*
Y91652D01*
Y91755D01*
Y91859D01*
Y91963D01*
Y92067D01*
X22806D01*
Y91963D01*
D02*
G37*
G36*
X9534Y103783D02*
X10468D01*
Y103679D01*
X10882D01*
Y103576D01*
X11297D01*
Y103472D01*
X11504D01*
Y103368D01*
X11816D01*
Y103265D01*
X11919D01*
Y103161D01*
X12127D01*
Y103057D01*
X12334D01*
Y102954D01*
X12438D01*
Y102850D01*
X12541D01*
Y102746D01*
X12645D01*
Y102643D01*
X12852D01*
Y102539D01*
X12956D01*
Y102435D01*
Y102331D01*
X13060D01*
Y102228D01*
X13163D01*
Y102124D01*
X13267D01*
Y102020D01*
X13371D01*
Y101917D01*
Y101813D01*
X13474D01*
Y101709D01*
X13578D01*
Y101606D01*
Y101502D01*
X13682D01*
Y101398D01*
Y101295D01*
X13785D01*
Y101191D01*
Y101087D01*
X13889D01*
Y100984D01*
Y100880D01*
Y100776D01*
X13993D01*
Y100672D01*
Y100569D01*
Y100465D01*
X14097D01*
Y100361D01*
Y100258D01*
Y100154D01*
X14200D01*
Y100050D01*
Y99947D01*
Y99843D01*
Y99739D01*
X14304D01*
Y99636D01*
Y99532D01*
Y99428D01*
Y99325D01*
Y99221D01*
X14408D01*
Y99117D01*
Y99014D01*
Y98910D01*
Y98806D01*
Y98702D01*
Y98599D01*
Y98495D01*
Y98391D01*
X14511D01*
Y98288D01*
Y98184D01*
Y98080D01*
Y97977D01*
Y97873D01*
Y97769D01*
Y97666D01*
Y97562D01*
Y97458D01*
Y97355D01*
Y97251D01*
Y97147D01*
Y97043D01*
Y96940D01*
Y96836D01*
Y96732D01*
Y96629D01*
Y96525D01*
Y96421D01*
Y96318D01*
Y96214D01*
Y96110D01*
Y96007D01*
Y95903D01*
Y95799D01*
Y95696D01*
Y95592D01*
Y95488D01*
Y95385D01*
X14408D01*
Y95281D01*
Y95177D01*
Y95073D01*
Y94970D01*
Y94866D01*
Y94762D01*
Y94659D01*
Y94555D01*
X14304D01*
Y94451D01*
Y94348D01*
Y94244D01*
Y94140D01*
Y94037D01*
X14200D01*
Y93933D01*
Y93829D01*
Y93726D01*
Y93622D01*
X14097D01*
Y93518D01*
Y93414D01*
Y93311D01*
X13993D01*
Y93207D01*
Y93103D01*
Y93000D01*
X13889D01*
Y92896D01*
Y92792D01*
Y92689D01*
X13785D01*
Y92585D01*
Y92481D01*
X13682D01*
Y92378D01*
Y92274D01*
X13578D01*
Y92170D01*
Y92067D01*
X13474D01*
Y91963D01*
X13371D01*
Y91859D01*
Y91755D01*
X13267D01*
Y91652D01*
X13163D01*
Y91548D01*
X13060D01*
Y91444D01*
X12956D01*
Y91341D01*
X12852D01*
Y91237D01*
X12749D01*
Y91133D01*
X12645D01*
Y91030D01*
X12541D01*
Y90926D01*
X12438D01*
Y90822D01*
X12230D01*
Y90719D01*
X12127D01*
Y90615D01*
X11919D01*
Y90511D01*
X11712D01*
Y90408D01*
X11504D01*
Y90304D01*
X11193D01*
Y90200D01*
X10779D01*
Y90096D01*
X10260D01*
Y89993D01*
X7979D01*
Y90096D01*
X7564D01*
Y90200D01*
X7150D01*
Y90304D01*
X6942D01*
Y90408D01*
X6631D01*
Y90511D01*
X6424D01*
Y90615D01*
X6320D01*
Y90719D01*
X6113D01*
Y90822D01*
X6009D01*
Y90926D01*
X5802D01*
Y91030D01*
X5698D01*
Y91133D01*
X5594D01*
Y91237D01*
X5491D01*
Y91341D01*
X5387D01*
Y91444D01*
X5283D01*
Y91548D01*
Y91652D01*
X5180D01*
Y91755D01*
X5076D01*
Y91859D01*
X4972D01*
Y91963D01*
Y92067D01*
X4868D01*
Y92170D01*
Y92274D01*
X4765D01*
Y92378D01*
Y92481D01*
X4661D01*
Y92585D01*
Y92689D01*
X4558D01*
Y92792D01*
Y92896D01*
X4454D01*
Y93000D01*
Y93103D01*
Y93207D01*
X4350D01*
Y93311D01*
Y93414D01*
Y93518D01*
X4246D01*
Y93622D01*
Y93726D01*
Y93829D01*
X4143D01*
Y93933D01*
Y94037D01*
Y94140D01*
Y94244D01*
Y94348D01*
X4039D01*
Y94451D01*
Y94555D01*
Y94659D01*
Y94762D01*
Y94866D01*
Y94970D01*
X3935D01*
Y95073D01*
Y95177D01*
Y95281D01*
Y95385D01*
Y95488D01*
Y95592D01*
Y95696D01*
Y95799D01*
Y95903D01*
Y96007D01*
Y96110D01*
Y96214D01*
Y96318D01*
Y96421D01*
X3832D01*
Y96525D01*
Y96629D01*
Y96732D01*
Y96836D01*
Y96940D01*
Y97043D01*
Y97147D01*
Y97251D01*
Y97355D01*
Y97458D01*
X3935D01*
Y97562D01*
Y97666D01*
Y97769D01*
Y97873D01*
Y97977D01*
Y98080D01*
Y98184D01*
Y98288D01*
Y98391D01*
Y98495D01*
Y98599D01*
Y98702D01*
Y98806D01*
X4039D01*
Y98910D01*
Y99014D01*
Y99117D01*
Y99221D01*
Y99325D01*
Y99428D01*
X4143D01*
Y99532D01*
Y99636D01*
Y99739D01*
Y99843D01*
Y99947D01*
X4246D01*
Y100050D01*
Y100154D01*
Y100258D01*
Y100361D01*
X4350D01*
Y100465D01*
Y100569D01*
Y100672D01*
X4454D01*
Y100776D01*
Y100880D01*
X4558D01*
Y100984D01*
Y101087D01*
Y101191D01*
X4661D01*
Y101295D01*
Y101398D01*
X4765D01*
Y101502D01*
Y101606D01*
X4868D01*
Y101709D01*
X4972D01*
Y101813D01*
Y101917D01*
X5076D01*
Y102020D01*
X5180D01*
Y102124D01*
Y102228D01*
X5283D01*
Y102331D01*
X5387D01*
Y102435D01*
X5491D01*
Y102539D01*
X5594D01*
Y102643D01*
X5698D01*
Y102746D01*
X5802D01*
Y102850D01*
X5905D01*
Y102954D01*
X6113D01*
Y103057D01*
X6216D01*
Y103161D01*
X6424D01*
Y103265D01*
X6631D01*
Y103368D01*
X6839D01*
Y103472D01*
X7150D01*
Y103576D01*
X7461D01*
Y103679D01*
X7875D01*
Y103783D01*
X8809D01*
Y103887D01*
X9534D01*
Y103783D01*
D02*
G37*
G36*
X14304Y87712D02*
Y87608D01*
Y87504D01*
Y87401D01*
Y87297D01*
Y87193D01*
Y87090D01*
Y86986D01*
Y86882D01*
Y86779D01*
Y86675D01*
Y86571D01*
Y86467D01*
Y86364D01*
Y86260D01*
Y86156D01*
Y86053D01*
Y85949D01*
Y85845D01*
Y85742D01*
Y85638D01*
Y85534D01*
Y85431D01*
Y85327D01*
Y85223D01*
Y85120D01*
Y85016D01*
Y84912D01*
X4039D01*
Y85016D01*
Y85120D01*
Y85223D01*
Y85327D01*
Y85431D01*
Y85534D01*
Y85638D01*
Y85742D01*
Y85845D01*
Y85949D01*
Y86053D01*
Y86156D01*
Y86260D01*
Y86364D01*
Y86467D01*
Y86571D01*
Y86675D01*
Y86779D01*
Y86882D01*
Y86986D01*
Y87090D01*
Y87193D01*
Y87297D01*
Y87401D01*
Y87504D01*
Y87608D01*
Y87712D01*
Y87815D01*
X14304D01*
Y87712D01*
D02*
G37*
%LPC*%
G36*
X9431Y100776D02*
X8912D01*
Y100672D01*
X7979D01*
Y100569D01*
X7564D01*
Y100465D01*
X7357D01*
Y100361D01*
X7150D01*
Y100258D01*
X6942D01*
Y100154D01*
X6735D01*
Y100050D01*
X6631D01*
Y99947D01*
X6527D01*
Y99843D01*
X6424D01*
Y99739D01*
X6320D01*
Y99636D01*
X6216D01*
Y99532D01*
Y99428D01*
X6113D01*
Y99325D01*
X6009D01*
Y99221D01*
Y99117D01*
X5905D01*
Y99014D01*
Y98910D01*
Y98806D01*
X5802D01*
Y98702D01*
Y98599D01*
Y98495D01*
X5698D01*
Y98391D01*
Y98288D01*
Y98184D01*
Y98080D01*
X5594D01*
Y97977D01*
Y97873D01*
Y97769D01*
Y97666D01*
Y97562D01*
Y97458D01*
Y97355D01*
Y97251D01*
Y97147D01*
Y97043D01*
Y96940D01*
Y96836D01*
Y96732D01*
Y96629D01*
Y96525D01*
Y96421D01*
Y96318D01*
Y96214D01*
Y96110D01*
Y96007D01*
Y95903D01*
Y95799D01*
X5698D01*
Y95696D01*
Y95592D01*
Y95488D01*
Y95385D01*
Y95281D01*
X5802D01*
Y95177D01*
Y95073D01*
Y94970D01*
X5905D01*
Y94866D01*
Y94762D01*
X6009D01*
Y94659D01*
Y94555D01*
X6113D01*
Y94451D01*
Y94348D01*
X6216D01*
Y94244D01*
X6320D01*
Y94140D01*
X6424D01*
Y94037D01*
Y93933D01*
X6527D01*
Y93829D01*
X6735D01*
Y93726D01*
X6839D01*
Y93622D01*
X7046D01*
Y93518D01*
X7150D01*
Y93414D01*
X7461D01*
Y93311D01*
X7772D01*
Y93207D01*
X8186D01*
Y93103D01*
X10157D01*
Y93207D01*
X10571D01*
Y93311D01*
X10986D01*
Y93414D01*
X11193D01*
Y93518D01*
X11401D01*
Y93622D01*
X11608D01*
Y93726D01*
X11712D01*
Y93829D01*
X11816D01*
Y93933D01*
X11919D01*
Y94037D01*
X12023D01*
Y94140D01*
X12127D01*
Y94244D01*
X12230D01*
Y94348D01*
Y94451D01*
X12334D01*
Y94555D01*
X12438D01*
Y94659D01*
Y94762D01*
Y94866D01*
X12541D01*
Y94970D01*
Y95073D01*
X12645D01*
Y95177D01*
Y95281D01*
Y95385D01*
Y95488D01*
X12749D01*
Y95592D01*
Y95696D01*
Y95799D01*
Y95903D01*
Y96007D01*
Y96110D01*
X12852D01*
Y96214D01*
Y96318D01*
Y96421D01*
Y96525D01*
Y96629D01*
Y96732D01*
Y96836D01*
Y96940D01*
Y97043D01*
Y97147D01*
Y97251D01*
Y97355D01*
Y97458D01*
Y97562D01*
Y97666D01*
X12749D01*
Y97769D01*
Y97873D01*
Y97977D01*
Y98080D01*
Y98184D01*
Y98288D01*
X12645D01*
Y98391D01*
Y98495D01*
Y98599D01*
Y98702D01*
X12541D01*
Y98806D01*
Y98910D01*
Y99014D01*
X12438D01*
Y99117D01*
Y99221D01*
X12334D01*
Y99325D01*
X12230D01*
Y99428D01*
Y99532D01*
X12127D01*
Y99636D01*
X12023D01*
Y99739D01*
X11919D01*
Y99843D01*
X11816D01*
Y99947D01*
X11712D01*
Y100050D01*
X11608D01*
Y100154D01*
X11504D01*
Y100258D01*
X11297D01*
Y100361D01*
X11090D01*
Y100465D01*
X10779D01*
Y100569D01*
X10364D01*
Y100672D01*
X9431D01*
Y100776D01*
D02*
G37*
G36*
X20421Y97666D02*
X19799D01*
Y97562D01*
X19696D01*
Y97458D01*
X19592D01*
Y97355D01*
Y97251D01*
Y97147D01*
X19488D01*
Y97043D01*
Y96940D01*
Y96836D01*
Y96732D01*
Y96629D01*
Y96525D01*
Y96421D01*
Y96318D01*
Y96214D01*
Y96110D01*
Y96007D01*
Y95903D01*
Y95799D01*
Y95696D01*
Y95592D01*
Y95488D01*
Y95385D01*
Y95281D01*
Y95177D01*
Y95073D01*
Y94970D01*
Y94866D01*
Y94762D01*
X20732D01*
Y94866D01*
Y94970D01*
Y95073D01*
Y95177D01*
Y95281D01*
Y95385D01*
Y95488D01*
Y95592D01*
Y95696D01*
Y95799D01*
Y95903D01*
Y96007D01*
Y96110D01*
Y96214D01*
Y96318D01*
Y96421D01*
Y96525D01*
Y96629D01*
Y96732D01*
Y96836D01*
Y96940D01*
Y97043D01*
Y97147D01*
Y97251D01*
X20629D01*
Y97355D01*
Y97458D01*
X20525D01*
Y97562D01*
X20421D01*
Y97666D01*
D02*
G37*
G36*
X21251Y103057D02*
X20940D01*
Y102954D01*
X20836D01*
Y102850D01*
X20629D01*
Y102746D01*
X20525D01*
Y102643D01*
X20318D01*
Y102539D01*
X20214D01*
Y102435D01*
X20007D01*
Y102331D01*
X19799D01*
Y102228D01*
X19696D01*
Y102124D01*
X19592D01*
Y102020D01*
X19696D01*
Y101917D01*
X19799D01*
Y101813D01*
X20007D01*
Y101709D01*
X20110D01*
Y101606D01*
X20318D01*
Y101502D01*
X20525D01*
Y101398D01*
X20629D01*
Y101295D01*
X20836D01*
Y101191D01*
X21044D01*
Y101087D01*
X21251D01*
Y101191D01*
Y101295D01*
Y101398D01*
Y101502D01*
Y101606D01*
Y101709D01*
Y101813D01*
Y101917D01*
Y102020D01*
Y102124D01*
Y102228D01*
Y102331D01*
Y102435D01*
Y102539D01*
Y102643D01*
Y102746D01*
Y102850D01*
Y102954D01*
Y103057D01*
D02*
G37*
G36*
X21354Y82424D02*
X20318D01*
Y82320D01*
X20007D01*
Y82216D01*
X19903D01*
Y82113D01*
X19799D01*
Y82009D01*
X19696D01*
Y81905D01*
X19592D01*
Y81802D01*
Y81698D01*
X19488D01*
Y81594D01*
Y81491D01*
Y81387D01*
X19385D01*
Y81283D01*
Y81180D01*
Y81076D01*
Y80972D01*
Y80869D01*
Y80765D01*
Y80661D01*
Y80557D01*
Y80454D01*
Y80350D01*
Y80246D01*
Y80143D01*
Y80039D01*
Y79935D01*
X19488D01*
Y79832D01*
Y79728D01*
Y79624D01*
X19592D01*
Y79521D01*
Y79417D01*
X19696D01*
Y79313D01*
Y79210D01*
X19799D01*
Y79106D01*
X20007D01*
Y79002D01*
X20214D01*
Y78899D01*
X21458D01*
Y79002D01*
X21666D01*
Y79106D01*
X21769D01*
Y79210D01*
X21873D01*
Y79313D01*
X21977D01*
Y79417D01*
X22080D01*
Y79521D01*
Y79624D01*
X22184D01*
Y79728D01*
Y79832D01*
Y79935D01*
Y80039D01*
Y80143D01*
X22288D01*
Y80246D01*
Y80350D01*
Y80454D01*
Y80557D01*
Y80661D01*
Y80765D01*
Y80869D01*
Y80972D01*
Y81076D01*
Y81180D01*
X22184D01*
Y81283D01*
Y81387D01*
Y81491D01*
Y81594D01*
X22080D01*
Y81698D01*
Y81802D01*
X21977D01*
Y81905D01*
Y82009D01*
X21873D01*
Y82113D01*
X21769D01*
Y82216D01*
X21562D01*
Y82320D01*
X21354D01*
Y82424D01*
D02*
G37*
G36*
X21251Y59302D02*
X20421D01*
Y59198D01*
X20110D01*
Y59095D01*
X19903D01*
Y58991D01*
X19799D01*
Y58887D01*
X19696D01*
Y58784D01*
X19592D01*
Y58680D01*
Y58576D01*
X19488D01*
Y58473D01*
Y58369D01*
Y58265D01*
Y58161D01*
X19385D01*
Y58058D01*
Y57954D01*
Y57850D01*
Y57747D01*
Y57643D01*
Y57539D01*
Y57436D01*
Y57332D01*
Y57228D01*
Y57125D01*
Y57021D01*
Y56917D01*
Y56814D01*
X19488D01*
Y56710D01*
Y56606D01*
Y56502D01*
X19592D01*
Y56399D01*
Y56295D01*
X19696D01*
Y56191D01*
Y56088D01*
X19799D01*
Y55984D01*
X19903D01*
Y55880D01*
X20110D01*
Y55777D01*
X20525D01*
Y55673D01*
X21044D01*
Y55777D01*
X21458D01*
Y55880D01*
X21666D01*
Y55984D01*
X21873D01*
Y56088D01*
Y56191D01*
X21977D01*
Y56295D01*
X22080D01*
Y56399D01*
Y56502D01*
X22184D01*
Y56606D01*
Y56710D01*
Y56814D01*
Y56917D01*
Y57021D01*
X22288D01*
Y57125D01*
Y57228D01*
Y57332D01*
Y57436D01*
Y57539D01*
Y57643D01*
Y57747D01*
Y57850D01*
Y57954D01*
X22184D01*
Y58058D01*
Y58161D01*
Y58265D01*
Y58369D01*
Y58473D01*
X22080D01*
Y58576D01*
Y58680D01*
X21977D01*
Y58784D01*
Y58887D01*
X21873D01*
Y58991D01*
X21769D01*
Y59095D01*
X21562D01*
Y59198D01*
X21251D01*
Y59302D01*
D02*
G37*
G36*
X20318Y65938D02*
X19799D01*
Y65834D01*
X19696D01*
Y65730D01*
X19592D01*
Y65627D01*
Y65523D01*
X19488D01*
Y65419D01*
Y65316D01*
Y65212D01*
Y65108D01*
Y65005D01*
Y64901D01*
Y64797D01*
Y64694D01*
Y64590D01*
Y64486D01*
Y64382D01*
Y64279D01*
Y64175D01*
Y64072D01*
Y63968D01*
Y63864D01*
Y63760D01*
Y63657D01*
Y63553D01*
Y63449D01*
Y63346D01*
Y63242D01*
Y63138D01*
Y63035D01*
Y62931D01*
X20629D01*
Y63035D01*
Y63138D01*
Y63242D01*
Y63346D01*
Y63449D01*
Y63553D01*
Y63657D01*
Y63760D01*
Y63864D01*
Y63968D01*
Y64072D01*
Y64175D01*
Y64279D01*
Y64382D01*
Y64486D01*
Y64590D01*
Y64694D01*
Y64797D01*
Y64901D01*
Y65005D01*
Y65108D01*
X20525D01*
Y65212D01*
Y65316D01*
Y65419D01*
Y65523D01*
Y65627D01*
X20421D01*
Y65730D01*
Y65834D01*
X20318D01*
Y65938D01*
D02*
G37*
G36*
X7357Y79417D02*
X6942D01*
Y79313D01*
X6527D01*
Y79210D01*
X6424D01*
Y79106D01*
X6320D01*
Y79002D01*
X6216D01*
Y78899D01*
X6113D01*
Y78795D01*
Y78691D01*
X6009D01*
Y78587D01*
Y78484D01*
Y78380D01*
X5905D01*
Y78276D01*
Y78173D01*
Y78069D01*
Y77965D01*
Y77862D01*
Y77758D01*
Y77654D01*
X5802D01*
Y77551D01*
Y77447D01*
Y77343D01*
Y77240D01*
Y77136D01*
Y77032D01*
Y76929D01*
Y76825D01*
Y76721D01*
Y76617D01*
Y76514D01*
Y76410D01*
Y76306D01*
Y76203D01*
Y76099D01*
Y75995D01*
Y75892D01*
Y75788D01*
Y75684D01*
Y75581D01*
Y75477D01*
Y75373D01*
Y75270D01*
Y75166D01*
Y75062D01*
Y74958D01*
Y74855D01*
Y74751D01*
Y74647D01*
Y74544D01*
Y74440D01*
Y74336D01*
Y74233D01*
Y74129D01*
Y74025D01*
Y73922D01*
Y73818D01*
Y73714D01*
Y73611D01*
Y73507D01*
Y73403D01*
Y73299D01*
Y73196D01*
Y73092D01*
X8497D01*
Y73196D01*
Y73299D01*
Y73403D01*
Y73507D01*
Y73611D01*
Y73714D01*
Y73818D01*
Y73922D01*
Y74025D01*
Y74129D01*
Y74233D01*
Y74336D01*
Y74440D01*
Y74544D01*
Y74647D01*
Y74751D01*
Y74855D01*
Y74958D01*
Y75062D01*
Y75166D01*
Y75270D01*
Y75373D01*
Y75477D01*
Y75581D01*
Y75684D01*
Y75788D01*
Y75892D01*
Y75995D01*
Y76099D01*
Y76203D01*
Y76306D01*
Y76410D01*
Y76514D01*
Y76617D01*
Y76721D01*
Y76825D01*
Y76929D01*
Y77032D01*
Y77136D01*
Y77240D01*
Y77343D01*
Y77447D01*
Y77551D01*
Y77654D01*
Y77758D01*
Y77862D01*
Y77965D01*
Y78069D01*
X8394D01*
Y78173D01*
Y78276D01*
Y78380D01*
Y78484D01*
X8290D01*
Y78587D01*
Y78691D01*
Y78795D01*
X8186D01*
Y78899D01*
X8083D01*
Y79002D01*
Y79106D01*
X7979D01*
Y79210D01*
X7772D01*
Y79313D01*
X7357D01*
Y79417D01*
D02*
G37*
%LPD*%
D68*
X53550Y76968D02*
G03*
X53550Y76968I-9457J0D01*
G01*
D69*
X38187Y83661D02*
X49998D01*
X38187Y70276D02*
X49998D01*
X36613Y71850D02*
Y82087D01*
X51573Y71850D02*
Y82087D01*
M02*
