G04 Layer_Physical_Order=1*
G04 Layer_Color=255*
%FSLAX25Y25*%
%MOIN*%
G70*
G01*
G75*
%ADD10R,0.03150X0.02362*%
%ADD11R,0.02362X0.03150*%
%ADD12R,0.04331X0.05512*%
%ADD13R,0.08661X0.03937*%
%ADD14R,0.02264X0.01969*%
%ADD15R,0.01969X0.02362*%
%ADD16R,0.02165X0.00984*%
%ADD17C,0.00787*%
%ADD18R,0.02362X0.02362*%
%ADD19R,0.07480X0.04331*%
%ADD20O,0.01181X0.02756*%
%ADD21O,0.02756X0.01181*%
%ADD22R,0.20866X0.20866*%
%ADD23R,0.02362X0.01969*%
%ADD24C,0.70079*%
%ADD25C,0.00591*%
%ADD26C,0.01969*%
%ADD27C,0.00984*%
%ADD28C,0.01181*%
%ADD29C,0.00787*%
%ADD30C,0.05512*%
%ADD31C,0.06299*%
%ADD32C,0.02362*%
%ADD33C,0.02598*%
G36*
X254724Y117124D02*
X253256D01*
Y114762D01*
Y112400D01*
X254724D01*
Y95865D01*
X253256D01*
Y93502D01*
Y91140D01*
X254724D01*
Y82282D01*
X284207Y52799D01*
X284046Y52326D01*
X283310Y52229D01*
X282065Y51713D01*
X280995Y50893D01*
X280175Y49824D01*
X279659Y48579D01*
X279483Y47243D01*
X279659Y45906D01*
X280175Y44661D01*
X280995Y43592D01*
X282065Y42772D01*
X283310Y42256D01*
X284646Y42080D01*
X285982Y42256D01*
X287227Y42772D01*
X288296Y43592D01*
X289032Y44552D01*
X289532Y44429D01*
Y37852D01*
X289032Y37729D01*
X288296Y38688D01*
X287227Y39509D01*
X285982Y40024D01*
X284646Y40200D01*
X283310Y40024D01*
X282065Y39509D01*
X280995Y38688D01*
X280175Y37619D01*
X279659Y36374D01*
X279483Y35038D01*
X279659Y33702D01*
X280175Y32457D01*
X280995Y31387D01*
X282065Y30567D01*
X283310Y30051D01*
X284646Y29875D01*
X285982Y30051D01*
X287227Y30567D01*
X288296Y31387D01*
X289032Y32347D01*
X289532Y32224D01*
Y1805D01*
X1806D01*
Y122601D01*
X254724D01*
Y117124D01*
D02*
G37*
%LPC*%
G36*
X191342Y16535D02*
Y13492D01*
X193795D01*
Y16535D01*
X191342D01*
D02*
G37*
G36*
X37796Y28738D02*
X27560D01*
Y23226D01*
X37796D01*
Y28738D01*
D02*
G37*
G36*
X60631Y12990D02*
X56013D01*
Y10734D01*
X60631D01*
Y12990D01*
D02*
G37*
G36*
X77350Y16535D02*
X74897D01*
Y13492D01*
X77350D01*
Y16535D01*
D02*
G37*
G36*
X60631Y28738D02*
X50394D01*
Y27729D01*
X49894Y27462D01*
X49609Y27653D01*
X48917Y27791D01*
X48226Y27653D01*
X47640Y27261D01*
X47249Y26676D01*
X47111Y25984D01*
X47249Y25293D01*
X47640Y24707D01*
X48226Y24315D01*
X48917Y24178D01*
X49609Y24315D01*
X49894Y24506D01*
X50394Y24239D01*
Y23226D01*
X60631D01*
Y28738D01*
D02*
G37*
G36*
X25591Y83301D02*
X24899Y83163D01*
X24313Y82772D01*
X23922Y82186D01*
X23784Y81494D01*
X23872Y81053D01*
X19440Y76621D01*
X19244Y76328D01*
X19176Y75983D01*
Y71703D01*
X18801Y71453D01*
X18410Y70867D01*
X18272Y70176D01*
X18410Y69484D01*
X18801Y68898D01*
X19387Y68507D01*
X20079Y68369D01*
X20770Y68507D01*
X21356Y68898D01*
X21748Y69484D01*
X21885Y70176D01*
X21748Y70867D01*
X21356Y71453D01*
X20982Y71703D01*
Y75609D01*
X25149Y79776D01*
X25591Y79688D01*
X26173Y79804D01*
X26673Y79532D01*
Y79437D01*
X27945D01*
Y80905D01*
X27674D01*
X27357Y81292D01*
X27397Y81494D01*
X27259Y82186D01*
X26868Y82772D01*
X26282Y83163D01*
X25591Y83301D01*
D02*
G37*
G36*
X44093Y95118D02*
X41724Y94962D01*
X39396Y94499D01*
X37148Y93736D01*
X35018Y92686D01*
X33044Y91367D01*
X31260Y89802D01*
X29694Y88017D01*
X28762Y86621D01*
X28752Y86628D01*
X28649Y86494D01*
X28525Y86193D01*
X28213Y85441D01*
X28064Y84311D01*
X28213Y83180D01*
X28649Y82126D01*
X29203Y81406D01*
X28967Y80905D01*
X28945D01*
Y78937D01*
X28445D01*
Y78437D01*
X26673D01*
Y77501D01*
X26532Y77378D01*
X26173Y77183D01*
X25591Y77298D01*
X24899Y77161D01*
X24313Y76769D01*
X23922Y76183D01*
X23784Y75492D01*
X23922Y74801D01*
X24313Y74215D01*
X24587Y74032D01*
Y72817D01*
X24313Y72634D01*
X23922Y72048D01*
X23784Y71357D01*
X23922Y70665D01*
X24313Y70079D01*
X24899Y69688D01*
X25591Y69550D01*
X26282Y69688D01*
X26868Y70079D01*
X27259Y70665D01*
X27397Y71357D01*
X27259Y72048D01*
X26936Y72531D01*
X27059Y72896D01*
X27158Y73032D01*
X29428D01*
Y72440D01*
X28784Y71601D01*
X28348Y70547D01*
X28199Y69417D01*
X28348Y68286D01*
X28688Y67465D01*
X28784Y67233D01*
X28934Y67037D01*
X28944Y67043D01*
X29694Y65920D01*
X31260Y64135D01*
X33044Y62570D01*
X35018Y61251D01*
X37148Y60201D01*
X39396Y59438D01*
X41724Y58975D01*
X44093Y58819D01*
X46462Y58975D01*
X48790Y59438D01*
X51038Y60201D01*
X53167Y61251D01*
X55141Y62570D01*
X56926Y64135D01*
X58492Y65920D01*
X59811Y67894D01*
X60861Y70023D01*
X61624Y72271D01*
X62087Y74600D01*
X62242Y76968D01*
X62087Y79337D01*
X61624Y81666D01*
X60861Y83914D01*
X59811Y86043D01*
X58492Y88017D01*
X56926Y89802D01*
X55141Y91367D01*
X53167Y92686D01*
X51038Y93736D01*
X48790Y94499D01*
X46462Y94962D01*
X44093Y95118D01*
D02*
G37*
G36*
X202756Y52405D02*
X201420Y52229D01*
X200175Y51713D01*
X199106Y50893D01*
X198285Y49824D01*
X197770Y48579D01*
X197594Y47243D01*
X197770Y45906D01*
X198285Y44661D01*
X199106Y43592D01*
X200175Y42772D01*
X201150Y42368D01*
Y39913D01*
X200175Y39509D01*
X199106Y38688D01*
X198285Y37619D01*
X197881Y36643D01*
X189265D01*
X189265Y36643D01*
X188651Y36521D01*
X188130Y36173D01*
X188130Y36173D01*
X183604Y31647D01*
X183256Y31126D01*
X183134Y30512D01*
X183134Y30512D01*
Y16535D01*
X181983D01*
Y9449D01*
X187389D01*
X187889Y9449D01*
X188389Y9449D01*
X190342D01*
Y12992D01*
Y16535D01*
X188389D01*
X187889Y16535D01*
X187389Y16535D01*
X186345D01*
Y29847D01*
X189930Y33432D01*
X197881D01*
X198285Y32457D01*
X199106Y31387D01*
X200175Y30567D01*
X201420Y30051D01*
X202756Y29875D01*
X204092Y30051D01*
X205337Y30567D01*
X206406Y31387D01*
X207227Y32457D01*
X207742Y33702D01*
X207918Y35038D01*
X207742Y36374D01*
X207227Y37619D01*
X206406Y38688D01*
X205337Y39509D01*
X204362Y39913D01*
Y42368D01*
X205337Y42772D01*
X206406Y43592D01*
X207227Y44661D01*
X207742Y45906D01*
X207918Y47243D01*
X207742Y48579D01*
X207227Y49824D01*
X206406Y50893D01*
X205337Y51713D01*
X204092Y52229D01*
X202756Y52405D01*
D02*
G37*
G36*
X151669Y38870D02*
X150200D01*
Y37598D01*
X151669D01*
Y38870D01*
D02*
G37*
G36*
X55013Y9734D02*
X50394D01*
Y7478D01*
X55013D01*
Y9734D01*
D02*
G37*
G36*
X60631D02*
X56013D01*
Y7478D01*
X60631D01*
Y9734D01*
D02*
G37*
G36*
X32178D02*
X27560D01*
Y7478D01*
X32178D01*
Y9734D01*
D02*
G37*
G36*
X37796D02*
X33178D01*
Y7478D01*
X37796D01*
Y9734D01*
D02*
G37*
G36*
X77350Y12492D02*
X74897D01*
Y9449D01*
X77350D01*
Y12492D01*
D02*
G37*
G36*
X37796Y12990D02*
X33178D01*
Y10734D01*
X37796D01*
Y12990D01*
D02*
G37*
G36*
X55013D02*
X50394D01*
Y10734D01*
X55013D01*
Y12990D01*
D02*
G37*
G36*
X193795Y12492D02*
X191342D01*
Y9449D01*
X193795D01*
Y12492D01*
D02*
G37*
G36*
X32178Y12990D02*
X27560D01*
Y10734D01*
X32178D01*
Y12990D01*
D02*
G37*
G36*
X77350Y114961D02*
X74897D01*
Y111917D01*
X77350D01*
Y114961D01*
D02*
G37*
G36*
X219291Y117124D02*
X218791Y117124D01*
X217823D01*
Y114762D01*
Y112400D01*
X218791D01*
X219291Y112400D01*
X219791Y112400D01*
X220760D01*
Y114762D01*
Y117124D01*
X219791D01*
X219291Y117124D01*
D02*
G37*
G36*
X184436Y114961D02*
X181983D01*
Y111917D01*
X184436D01*
Y114961D01*
D02*
G37*
G36*
Y110917D02*
X181983D01*
Y107874D01*
X184436D01*
Y110917D01*
D02*
G37*
G36*
X77350Y110917D02*
X74897D01*
Y107874D01*
X77350D01*
Y110917D01*
D02*
G37*
G36*
X216823Y114262D02*
X215354D01*
Y112400D01*
X216823D01*
Y114262D01*
D02*
G37*
G36*
X250787Y117124D02*
X250287Y117124D01*
X249319D01*
Y114762D01*
Y112400D01*
X250287D01*
X250787Y112400D01*
X251287Y112400D01*
X252256D01*
Y114762D01*
Y117124D01*
X251287D01*
X250787Y117124D01*
D02*
G37*
G36*
X177653Y121691D02*
X176522Y121542D01*
X175469Y121106D01*
X174564Y120412D01*
X174020Y119702D01*
X173947Y119671D01*
X173485D01*
X173412Y119702D01*
X172867Y120412D01*
X171963Y121106D01*
X170909Y121542D01*
X169779Y121691D01*
X168648Y121542D01*
X167595Y121106D01*
X166690Y120412D01*
X166146Y119702D01*
X166073Y119671D01*
X165611D01*
X165538Y119702D01*
X164993Y120412D01*
X164089Y121106D01*
X163035Y121542D01*
X161905Y121691D01*
X160774Y121542D01*
X159721Y121106D01*
X158816Y120412D01*
X158272Y119702D01*
X158199Y119671D01*
X157737D01*
X157664Y119702D01*
X157119Y120412D01*
X156215Y121106D01*
X155161Y121542D01*
X154031Y121691D01*
X152900Y121542D01*
X151847Y121106D01*
X150942Y120412D01*
X150398Y119702D01*
X150325Y119671D01*
X149863D01*
X149790Y119702D01*
X149245Y120412D01*
X148341Y121106D01*
X147287Y121542D01*
X146157Y121691D01*
X145026Y121542D01*
X143973Y121106D01*
X143068Y120412D01*
X142524Y119702D01*
X142451Y119671D01*
X141989D01*
X141916Y119702D01*
X141371Y120412D01*
X140467Y121106D01*
X139413Y121542D01*
X138283Y121691D01*
X137152Y121542D01*
X136099Y121106D01*
X135194Y120412D01*
X134650Y119702D01*
X134577Y119671D01*
X134115D01*
X134042Y119702D01*
X133497Y120412D01*
X132593Y121106D01*
X131539Y121542D01*
X130409Y121691D01*
X129278Y121542D01*
X128225Y121106D01*
X127320Y120412D01*
X126776Y119702D01*
X126703Y119671D01*
X126241D01*
X126168Y119702D01*
X125623Y120412D01*
X124719Y121106D01*
X123665Y121542D01*
X122535Y121691D01*
X121404Y121542D01*
X120351Y121106D01*
X119446Y120412D01*
X118902Y119702D01*
X118829Y119671D01*
X118367D01*
X118294Y119702D01*
X117749Y120412D01*
X116845Y121106D01*
X115791Y121542D01*
X114661Y121691D01*
X113530Y121542D01*
X112477Y121106D01*
X111572Y120412D01*
X111028Y119702D01*
X110955Y119671D01*
X110493D01*
X110420Y119702D01*
X109875Y120412D01*
X108971Y121106D01*
X107917Y121542D01*
X106787Y121691D01*
X105656Y121542D01*
X104603Y121106D01*
X103698Y120412D01*
X103154Y119702D01*
X103081Y119671D01*
X102619D01*
X102546Y119702D01*
X102001Y120412D01*
X101097Y121106D01*
X100043Y121542D01*
X98913Y121691D01*
X97782Y121542D01*
X96729Y121106D01*
X95824Y120412D01*
X95280Y119702D01*
X95207Y119671D01*
X94744D01*
X94672Y119702D01*
X94127Y120412D01*
X93223Y121106D01*
X92169Y121542D01*
X91039Y121691D01*
X89908Y121542D01*
X88854Y121106D01*
X87950Y120412D01*
X87256Y119507D01*
X86819Y118453D01*
X86671Y117323D01*
X86819Y116192D01*
X87256Y115139D01*
X87950Y114234D01*
X88854Y113540D01*
X89908Y113104D01*
X91039Y112955D01*
X92169Y113104D01*
X92848Y113385D01*
X95094Y111139D01*
X95582Y110812D01*
X96158Y110698D01*
X100164D01*
X104297Y106565D01*
Y99998D01*
X104212Y99936D01*
X103533Y100053D01*
X103438Y100195D01*
X102852Y100586D01*
X102161Y100724D01*
X101469Y100586D01*
X100883Y100195D01*
X100492Y99609D01*
X100354Y98917D01*
X100492Y98226D01*
X100883Y97640D01*
X101135Y97472D01*
X101171Y96936D01*
X100641Y96406D01*
X100445Y96113D01*
X100376Y95768D01*
Y27512D01*
X100002Y27261D01*
X99611Y26676D01*
X99473Y25984D01*
X99611Y25293D01*
X100002Y24707D01*
X100588Y24315D01*
X101279Y24178D01*
X101971Y24315D01*
X102557Y24707D01*
X102948Y25293D01*
X103086Y25984D01*
X102948Y26676D01*
X102557Y27261D01*
X102183Y27512D01*
Y95394D01*
X102799Y96010D01*
X102995Y96303D01*
X103064Y96649D01*
Y97390D01*
X103438Y97640D01*
X103533Y97782D01*
X104212Y97899D01*
X104297Y97837D01*
Y66142D01*
X104412Y65566D01*
X104738Y65077D01*
X111628Y58188D01*
X112116Y57861D01*
X112692Y57747D01*
X113326D01*
X113517Y57285D01*
X107691Y51458D01*
X107364Y50970D01*
X107250Y50394D01*
Y25427D01*
X92848Y11025D01*
X92169Y11306D01*
X91039Y11455D01*
X89908Y11306D01*
X88854Y10870D01*
X87950Y10175D01*
X87256Y9271D01*
X86819Y8217D01*
X86671Y7087D01*
X86819Y5956D01*
X87256Y4903D01*
X87950Y3998D01*
X88854Y3304D01*
X89908Y2867D01*
X91039Y2719D01*
X92169Y2867D01*
X93223Y3304D01*
X94127Y3998D01*
X94672Y4707D01*
X94744Y4738D01*
X95207D01*
X95280Y4707D01*
X95824Y3998D01*
X96729Y3304D01*
X97782Y2867D01*
X98913Y2719D01*
X100043Y2867D01*
X101097Y3304D01*
X102001Y3998D01*
X102546Y4707D01*
X102619Y4738D01*
X103081D01*
X103154Y4707D01*
X103698Y3998D01*
X104603Y3304D01*
X105656Y2867D01*
X106787Y2719D01*
X107917Y2867D01*
X108971Y3304D01*
X109875Y3998D01*
X110420Y4707D01*
X110493Y4738D01*
X110955D01*
X111028Y4707D01*
X111572Y3998D01*
X112477Y3304D01*
X113530Y2867D01*
X114661Y2719D01*
X115791Y2867D01*
X116845Y3304D01*
X117749Y3998D01*
X118294Y4707D01*
X118367Y4738D01*
X118829D01*
X118902Y4707D01*
X119446Y3998D01*
X120351Y3304D01*
X121404Y2867D01*
X122535Y2719D01*
X123665Y2867D01*
X124719Y3304D01*
X125623Y3998D01*
X126168Y4707D01*
X126241Y4738D01*
X126703D01*
X126776Y4707D01*
X127320Y3998D01*
X128225Y3304D01*
X129278Y2867D01*
X130409Y2719D01*
X131539Y2867D01*
X132593Y3304D01*
X133497Y3998D01*
X134042Y4707D01*
X134115Y4738D01*
X134577D01*
X134650Y4707D01*
X135194Y3998D01*
X136099Y3304D01*
X137152Y2867D01*
X138283Y2719D01*
X139413Y2867D01*
X140467Y3304D01*
X141371Y3998D01*
X141916Y4707D01*
X141989Y4738D01*
X142451D01*
X142524Y4707D01*
X143068Y3998D01*
X143973Y3304D01*
X145026Y2867D01*
X146157Y2719D01*
X147287Y2867D01*
X148341Y3304D01*
X149245Y3998D01*
X149790Y4707D01*
X149863Y4738D01*
X150325D01*
X150398Y4707D01*
X150942Y3998D01*
X151847Y3304D01*
X152900Y2867D01*
X154031Y2719D01*
X155161Y2867D01*
X156215Y3304D01*
X157119Y3998D01*
X157664Y4707D01*
X157737Y4738D01*
X158199D01*
X158272Y4707D01*
X158816Y3998D01*
X159721Y3304D01*
X160774Y2867D01*
X161905Y2719D01*
X163035Y2867D01*
X164089Y3304D01*
X164993Y3998D01*
X165538Y4707D01*
X165611Y4738D01*
X166073D01*
X166146Y4707D01*
X166690Y3998D01*
X167595Y3304D01*
X168648Y2867D01*
X169779Y2719D01*
X170909Y2867D01*
X171963Y3304D01*
X172867Y3998D01*
X173412Y4707D01*
X173485Y4738D01*
X173947D01*
X174020Y4707D01*
X174564Y3998D01*
X175469Y3304D01*
X176522Y2867D01*
X177653Y2719D01*
X178783Y2867D01*
X179837Y3304D01*
X180742Y3998D01*
X181436Y4903D01*
X181872Y5956D01*
X182021Y7087D01*
X181872Y8217D01*
X181436Y9271D01*
X180742Y10175D01*
X179837Y10870D01*
X178783Y11306D01*
X177653Y11455D01*
X176522Y11306D01*
X175844Y11025D01*
X166906Y19962D01*
X166418Y20288D01*
X165842Y20403D01*
X146780D01*
X138804Y28379D01*
Y40059D01*
X138689Y40635D01*
X138685Y40642D01*
X138952Y41142D01*
X140932D01*
X141432Y41142D01*
Y41142D01*
X141432D01*
Y41142D01*
X143795D01*
Y37598D01*
X147231D01*
X147731Y37598D01*
X148231Y37598D01*
X149200D01*
Y39370D01*
X149700D01*
Y39870D01*
X151669D01*
X151669Y41142D01*
X152169Y41142D01*
X153637D01*
Y42413D01*
X151669D01*
Y43413D01*
X153637D01*
Y44463D01*
X153834Y44882D01*
X153834Y45103D01*
Y46350D01*
X150291D01*
X150291Y44882D01*
X149872Y44685D01*
X149200Y44685D01*
X147946D01*
Y45177D01*
X147877Y45523D01*
X147681Y45816D01*
X146362Y47135D01*
X146470Y47297D01*
X146577Y47835D01*
Y49409D01*
X146559Y49503D01*
X146557Y49596D01*
X146954Y49993D01*
X147047Y49992D01*
X147141Y49973D01*
X148716D01*
X149253Y50080D01*
X149709Y50384D01*
X150190Y50222D01*
X150291Y50121D01*
X150291Y48819D01*
X150291Y48319D01*
Y47350D01*
X153834D01*
Y48319D01*
X153834Y48819D01*
X153834Y49319D01*
Y52756D01*
X150513D01*
X150086Y53171D01*
X150121Y53347D01*
X150014Y53884D01*
X149715Y54331D01*
X150014Y54777D01*
X150121Y55315D01*
X150014Y55853D01*
X149715Y56299D01*
X150014Y56746D01*
X150021Y56783D01*
X147928D01*
Y57783D01*
X150233D01*
X150418Y58048D01*
X154673D01*
X154722Y57975D01*
X155308Y57583D01*
X155999Y57446D01*
X156691Y57583D01*
X157276Y57975D01*
X157668Y58561D01*
X157711Y58774D01*
X158253Y58939D01*
X159149Y58043D01*
Y53347D01*
X170172D01*
Y54979D01*
X171653D01*
X172460Y55140D01*
X173144Y55597D01*
X174522Y56974D01*
X174728Y57284D01*
X175787D01*
Y62164D01*
X176102Y62226D01*
X176785Y62683D01*
X181089Y66987D01*
X197049D01*
X197855Y67147D01*
X198539Y67604D01*
X207271Y76336D01*
X231201D01*
X232007Y76496D01*
X232691Y76953D01*
X242435Y86697D01*
X242892Y87381D01*
X243052Y88187D01*
Y90156D01*
X243898D01*
Y91140D01*
X250287D01*
X250787Y91140D01*
X251287Y91140D01*
X252256D01*
Y93502D01*
Y95865D01*
X251287D01*
X250787Y95865D01*
X250287Y95865D01*
X243898D01*
Y96849D01*
X237992D01*
Y95865D01*
X235039D01*
Y95865D01*
X235039D01*
Y95865D01*
X231102D01*
Y95865D01*
X231102D01*
Y95865D01*
X223228D01*
Y95865D01*
X223228D01*
Y95865D01*
X219291D01*
Y95865D01*
X219291D01*
Y95865D01*
X215354D01*
Y95718D01*
X214567D01*
Y99695D01*
X214567Y100195D01*
X214567Y100695D01*
Y103632D01*
X214567Y104132D01*
X214567Y104632D01*
Y107569D01*
X214567Y108069D01*
X214567Y108569D01*
Y112006D01*
Y113475D01*
X209842D01*
Y110941D01*
X206650D01*
X206400Y111315D01*
X205814Y111707D01*
X205123Y111844D01*
X204432Y111707D01*
X203846Y111315D01*
X203454Y110729D01*
X203316Y110038D01*
X203454Y109347D01*
X203846Y108760D01*
X204432Y108369D01*
X204657Y108324D01*
Y107814D01*
X204432Y107770D01*
X203846Y107378D01*
X203454Y106792D01*
X203316Y106101D01*
X203454Y105410D01*
X203846Y104824D01*
X204432Y104432D01*
X204657Y104387D01*
Y103877D01*
X204432Y103833D01*
X203846Y103441D01*
X203454Y102855D01*
X203316Y102164D01*
X203454Y101472D01*
X203846Y100886D01*
X204432Y100495D01*
X205123Y100357D01*
X205814Y100495D01*
X206400Y100886D01*
X206650Y101261D01*
X209489D01*
X209842Y100907D01*
X209842Y100195D01*
X209842Y99695D01*
Y97252D01*
X209488Y96899D01*
X209345Y96899D01*
X209344Y96899D01*
X209343Y96899D01*
X191599D01*
X191455Y97042D01*
Y105367D01*
X191528Y105416D01*
X191920Y106002D01*
X192058Y106693D01*
X191922Y107374D01*
X191904Y107465D01*
X192188Y107874D01*
X193795D01*
Y114961D01*
X188389D01*
X187889Y114961D01*
X187389Y114961D01*
X185436D01*
Y111417D01*
Y107874D01*
X187389D01*
X187889Y107874D01*
X188314Y107874D01*
X188598Y107465D01*
X188580Y107374D01*
X188445Y106693D01*
X188582Y106002D01*
X188974Y105416D01*
X189047Y105367D01*
Y99114D01*
X185638D01*
X185335Y99114D01*
X184835Y99114D01*
X183719D01*
Y97342D01*
Y95571D01*
X184835D01*
X185138Y95571D01*
X185638Y95571D01*
X189047D01*
Y93307D01*
X185638D01*
X185335Y93307D01*
X184835Y93307D01*
X183719D01*
Y91535D01*
X183219D01*
Y91035D01*
X181299D01*
X181299Y89764D01*
X180833Y89683D01*
X138031D01*
X137840Y90145D01*
X153670Y105975D01*
X167810D01*
X168386Y106090D01*
X168875Y106416D01*
X175844Y113385D01*
X176522Y113104D01*
X177653Y112955D01*
X178783Y113104D01*
X179837Y113540D01*
X180742Y114234D01*
X181436Y115139D01*
X181872Y116192D01*
X182021Y117323D01*
X181872Y118453D01*
X181436Y119507D01*
X180742Y120412D01*
X179837Y121106D01*
X178783Y121542D01*
X177653Y121691D01*
D02*
G37*
G36*
X235039Y117124D02*
X234539Y117124D01*
X231602D01*
X231102Y117124D01*
X230602Y117124D01*
X223728D01*
X223228Y117124D01*
X222728Y117124D01*
X221760D01*
Y114762D01*
Y112400D01*
X223119D01*
X223244Y112312D01*
X223314Y112234D01*
X223486Y111900D01*
X223391Y111421D01*
X223528Y110729D01*
X223920Y110143D01*
X224506Y109752D01*
X225197Y109614D01*
X225888Y109752D01*
X226474Y110143D01*
X226866Y110729D01*
X226910Y110954D01*
X227420D01*
X227465Y110729D01*
X227857Y110143D01*
X228443Y109752D01*
X229134Y109614D01*
X229825Y109752D01*
X230411Y110143D01*
X230803Y110729D01*
X230940Y111421D01*
X230845Y111900D01*
X231017Y112234D01*
X231087Y112312D01*
X231211Y112400D01*
X231602Y112400D01*
X234930Y112400D01*
X235055Y112312D01*
X235125Y112234D01*
X235297Y111900D01*
X235202Y111421D01*
X235339Y110729D01*
X235731Y110143D01*
X236317Y109752D01*
X237008Y109614D01*
X237699Y109752D01*
X238285Y110143D01*
X238677Y110729D01*
X238721Y110954D01*
X239231D01*
X239276Y110729D01*
X239668Y110143D01*
X240254Y109752D01*
X240945Y109614D01*
X241636Y109752D01*
X242222Y110143D01*
X242614Y110729D01*
X242751Y111421D01*
X242656Y111900D01*
X242828Y112234D01*
X242898Y112312D01*
X243022Y112400D01*
X243413Y112400D01*
X248319D01*
Y114762D01*
Y117124D01*
X243413D01*
X242913Y117124D01*
X242413Y117124D01*
X239476D01*
X238976Y117124D01*
X238476Y117124D01*
X235539D01*
X235039Y117124D01*
D02*
G37*
G36*
X216823Y117124D02*
X215354D01*
Y115262D01*
X216823D01*
Y117124D01*
D02*
G37*
G36*
X214559Y117128D02*
X212697D01*
Y115943D01*
X211713D01*
Y117128D01*
X209850D01*
Y115943D01*
X209842D01*
Y114475D01*
X214567D01*
Y115943D01*
X214559D01*
Y117128D01*
D02*
G37*
G36*
X182719Y96842D02*
X181299D01*
Y95571D01*
X182719D01*
Y96842D01*
D02*
G37*
G36*
X182719Y93307D02*
X181299D01*
Y92035D01*
X182719D01*
Y93307D01*
D02*
G37*
G36*
X80802Y114961D02*
X80302Y114961D01*
X78350D01*
Y111417D01*
Y107874D01*
X80302D01*
X80802Y107874D01*
X81302Y107874D01*
X82015D01*
X82299Y107465D01*
X82281Y107374D01*
X82146Y106693D01*
X82283Y106002D01*
X82675Y105416D01*
X82748Y105367D01*
Y16889D01*
X82394Y16535D01*
X80802Y16535D01*
X80302Y16535D01*
X78350D01*
Y12992D01*
Y9449D01*
X80302D01*
X80802Y9449D01*
X81302Y9449D01*
X86708D01*
Y16535D01*
X85156D01*
Y104215D01*
X85473D01*
X85827Y103861D01*
Y103543D01*
X85827D01*
Y103543D01*
X85827D01*
Y99606D01*
X89264D01*
X89764Y99606D01*
X90264Y99606D01*
X93701D01*
Y101125D01*
X93746Y101134D01*
X94039Y101330D01*
X95322Y102612D01*
X95763Y102524D01*
X96454Y102662D01*
X97040Y103053D01*
X97432Y103639D01*
X97569Y104331D01*
X97432Y105022D01*
X97040Y105608D01*
X96454Y106000D01*
X95763Y106137D01*
X95072Y106000D01*
X94486Y105608D01*
X94201Y105182D01*
X93701Y105333D01*
Y107480D01*
X92391D01*
X92330Y107980D01*
X92616Y108171D01*
X93007Y108758D01*
X93145Y109449D01*
X93007Y110140D01*
X92616Y110726D01*
X92030Y111118D01*
X91339Y111255D01*
X90647Y111118D01*
X90061Y110726D01*
X89670Y110140D01*
X89532Y109449D01*
X89670Y108758D01*
X90061Y108171D01*
X90347Y107980D01*
X90286Y107480D01*
X89764Y107480D01*
X89264Y107480D01*
X86964D01*
X86708Y107874D01*
Y114961D01*
X81302D01*
X80802Y114961D01*
D02*
G37*
G36*
X182719Y99114D02*
X181299D01*
Y97843D01*
X182719D01*
Y99114D01*
D02*
G37*
%LPD*%
G36*
X46061Y73622D02*
X42124D01*
Y79134D01*
X43306Y80315D01*
X46061D01*
Y73622D01*
D02*
G37*
G36*
X191334Y96260D02*
X209343D01*
X209842Y96258D01*
Y94790D01*
X214567D01*
Y95079D01*
X215354D01*
Y94002D01*
X217323D01*
Y93502D01*
X217823D01*
Y91140D01*
X218602D01*
Y88303D01*
X194862D01*
X193747Y89418D01*
X193454Y89614D01*
X193109Y89683D01*
X190531D01*
X190180Y90038D01*
X190245Y96697D01*
X190708Y96886D01*
X191334Y96260D01*
D02*
G37*
G36*
X186705Y75624D02*
X186618Y75494D01*
X186481Y74803D01*
X186498Y74717D01*
X185033Y73251D01*
X160921D01*
X160921Y73251D01*
X160460Y73160D01*
X160069Y72899D01*
X158271Y71101D01*
X157771Y71308D01*
X157771Y71563D01*
Y72532D01*
X155999D01*
X154228D01*
Y71563D01*
X154227Y71063D01*
X154228Y70563D01*
Y67126D01*
X154795D01*
Y66484D01*
X154722Y66435D01*
X154673Y66362D01*
X150418D01*
X150233Y66626D01*
X147928D01*
Y67626D01*
X150021D01*
X150014Y67664D01*
X149995Y67691D01*
X150030Y67867D01*
X150243Y68221D01*
X150439Y68260D01*
X150732Y68456D01*
X151918Y69642D01*
X152114Y69935D01*
X152183Y70280D01*
Y74429D01*
X153819Y76065D01*
X186470D01*
X186705Y75624D01*
D02*
G37*
%LPC*%
G36*
X214567Y93790D02*
X209842D01*
Y91140D01*
X211705D01*
Y92321D01*
X212697D01*
Y91140D01*
X214559D01*
Y92321D01*
X214567D01*
Y93790D01*
D02*
G37*
G36*
X216823Y93002D02*
X215354D01*
Y91140D01*
X216823D01*
Y93002D01*
D02*
G37*
G36*
X157771Y75000D02*
X156499D01*
Y73532D01*
X157771D01*
Y75000D01*
D02*
G37*
G36*
X155499D02*
X154228D01*
Y73532D01*
X155499D01*
Y75000D01*
D02*
G37*
%LPD*%
D10*
X212205Y94290D02*
D03*
Y98227D02*
D03*
Y102164D02*
D03*
Y106101D02*
D03*
Y110038D02*
D03*
Y113975D02*
D03*
D11*
X252756Y93502D02*
D03*
X248819D02*
D03*
X244882D02*
D03*
X240945D02*
D03*
X237008D02*
D03*
X233071D02*
D03*
X229134D02*
D03*
X225197D02*
D03*
X221260D02*
D03*
X217323D02*
D03*
Y114762D02*
D03*
X221260D02*
D03*
X225197D02*
D03*
X229134D02*
D03*
X233071D02*
D03*
X252756D02*
D03*
X248819D02*
D03*
X244882D02*
D03*
X240945D02*
D03*
X237008D02*
D03*
D12*
X190842Y12992D02*
D03*
X184936D02*
D03*
X77850Y12992D02*
D03*
X83755D02*
D03*
X184936Y111417D02*
D03*
X190842D02*
D03*
X77850D02*
D03*
X83755D02*
D03*
D13*
X55513Y25982D02*
D03*
X32678D02*
D03*
Y10234D02*
D03*
X55513D02*
D03*
D14*
X187254Y91535D02*
D03*
X183219D02*
D03*
X187254Y97342D02*
D03*
X183219D02*
D03*
D15*
X173031Y64173D02*
D03*
Y60236D02*
D03*
X28445Y75000D02*
D03*
Y78937D02*
D03*
X155999Y69095D02*
D03*
Y73032D02*
D03*
X152062Y50787D02*
D03*
Y46850D02*
D03*
D16*
X48719Y79921D02*
D03*
Y77953D02*
D03*
Y75984D02*
D03*
Y74016D02*
D03*
X39467D02*
D03*
Y75984D02*
D03*
Y79921D02*
D03*
Y77953D02*
D03*
D17*
X44093Y76968D02*
D03*
D18*
X91732Y101575D02*
D03*
X87795D02*
D03*
X91732Y105512D02*
D03*
X87795D02*
D03*
D19*
X164661Y67126D02*
D03*
Y57284D02*
D03*
D20*
X123519Y48622D02*
D03*
X125487D02*
D03*
X127456D02*
D03*
X129424D02*
D03*
X131393D02*
D03*
X133361D02*
D03*
X135330D02*
D03*
X137298D02*
D03*
X139267D02*
D03*
X141235D02*
D03*
X143204D02*
D03*
X145173D02*
D03*
Y75787D02*
D03*
X143204D02*
D03*
X141235D02*
D03*
X139267D02*
D03*
X137298D02*
D03*
X135330D02*
D03*
X133361D02*
D03*
X131393D02*
D03*
X129424D02*
D03*
X127456D02*
D03*
X125487D02*
D03*
X123519D02*
D03*
D21*
X147928Y51378D02*
D03*
Y53347D02*
D03*
Y55315D02*
D03*
Y57284D02*
D03*
Y59252D02*
D03*
Y61221D02*
D03*
Y63189D02*
D03*
Y65158D02*
D03*
Y67126D02*
D03*
Y69095D02*
D03*
Y71063D02*
D03*
Y73032D02*
D03*
X120763D02*
D03*
Y71063D02*
D03*
Y69095D02*
D03*
Y67126D02*
D03*
Y65158D02*
D03*
Y63189D02*
D03*
Y61221D02*
D03*
Y59252D02*
D03*
Y57284D02*
D03*
Y55315D02*
D03*
Y53347D02*
D03*
Y51378D02*
D03*
D22*
X134346Y62205D02*
D03*
D23*
X147731Y42913D02*
D03*
X151669D02*
D03*
X145763Y39370D02*
D03*
X149700D02*
D03*
X143401Y42913D02*
D03*
X139464D02*
D03*
D24*
X243701Y41337D02*
D03*
D25*
X153445Y76968D02*
X191929D01*
X196063Y72835D01*
X221260Y88583D02*
Y93502D01*
X220077Y87400D02*
X221260Y88583D01*
X194488Y87400D02*
X220077D01*
X87402Y105118D02*
X87795Y105512D01*
X83952Y105118D02*
X87402D01*
X87795Y101575D02*
Y105512D01*
X92126Y101969D02*
X93401D01*
X91732Y101575D02*
X92126Y101969D01*
X93401D02*
X95763Y104331D01*
X91339Y106299D02*
X91732Y105905D01*
X91339Y106299D02*
Y109449D01*
X90551D02*
X91339D01*
X83952Y106693D02*
Y107283D01*
X101279Y25984D02*
Y95768D01*
X102161Y96649D01*
Y98917D01*
X36319Y75490D02*
Y77361D01*
X36911Y77953D01*
X39467D01*
X206398Y78443D02*
X231201D01*
X197049Y69095D02*
X206398Y78443D01*
X180217Y69095D02*
X197049D01*
X91039Y117323D02*
X96158Y112203D01*
X100787D01*
X105802Y107188D01*
Y66142D02*
Y107188D01*
X193109Y88779D02*
X194488Y87400D01*
X137298Y88779D02*
X193109D01*
X193307Y86219D02*
X223228D01*
X192715Y86811D02*
X193307Y86219D01*
X138283Y86811D02*
X192715D01*
X20079Y75983D02*
X25591Y81494D01*
X142220Y78937D02*
X195866D01*
X141235Y77953D02*
X142220Y78937D01*
X195866D02*
X196063Y78740D01*
X240945Y88187D02*
Y93502D01*
X231201Y78443D02*
X240945Y88187D01*
X233071Y88187D02*
Y93502D01*
X227758Y82874D02*
X233071Y88187D01*
X140251Y82874D02*
X227758D01*
X229134Y88187D02*
Y93502D01*
X225789Y84842D02*
X229134Y88187D01*
X139267Y84842D02*
X225789D01*
X237008Y88187D02*
Y93502D01*
X230315Y81494D02*
X237008Y88187D01*
X194488Y81494D02*
X230315D01*
X223228Y86219D02*
X225197Y88187D01*
X193801Y80807D02*
X194488Y81494D01*
X141137Y80807D02*
X193801D01*
X139267Y78937D02*
X141137Y80807D01*
X225197Y88187D02*
Y93502D01*
X130409Y7087D02*
Y16929D01*
X125487Y21850D02*
X130409Y16929D01*
X125487Y21850D02*
Y48622D01*
X138283Y7087D02*
Y12008D01*
X127456Y22835D02*
X138283Y12008D01*
X127456Y22835D02*
Y48622D01*
X147928Y69095D02*
X150094D01*
X139267Y75787D02*
Y78937D01*
X137298Y79921D02*
X140251Y82874D01*
X137298Y75787D02*
Y79921D01*
X135330Y80905D02*
X139267Y84842D01*
X135330Y75787D02*
Y80905D01*
X133361Y81890D02*
X138283Y86811D01*
X133361Y75787D02*
Y81890D01*
X131393Y82874D02*
X137298Y88779D01*
X131393Y75787D02*
Y82874D01*
X141235Y75787D02*
Y77953D01*
X164661Y57284D02*
X164857Y57087D01*
X147928Y61319D02*
X158854D01*
X162889Y57284D02*
X164661D01*
X158854Y61319D02*
X162889Y57284D01*
X147928Y61221D02*
Y61319D01*
Y63091D02*
X158854D01*
X162889Y67126D02*
X164661D01*
X158854Y63091D02*
X162889Y67126D01*
X147928Y63091D02*
Y63189D01*
X118598Y51378D02*
X120763D01*
X114759Y47539D02*
X118598Y51378D01*
X114759Y7185D02*
Y47539D01*
X117613Y53347D02*
X120763D01*
X112692Y48425D02*
X117613Y53347D01*
X112692Y12992D02*
Y48425D01*
X116629Y55315D02*
X120763D01*
X110724Y49409D02*
X116629Y55315D01*
X110724Y18898D02*
Y49409D01*
X115645Y57284D02*
X120763D01*
X108755Y50394D02*
X115645Y57284D01*
X108755Y24803D02*
Y50394D01*
X115645Y71063D02*
X117613Y69095D01*
X115645Y71063D02*
Y102559D01*
X117613Y69095D02*
X120763D01*
X136806Y40551D02*
Y45079D01*
Y40551D02*
X137298Y40059D01*
Y27756D02*
Y40059D01*
Y27756D02*
X146157Y18898D01*
X117613Y96653D02*
X138283Y117323D01*
X117613Y72047D02*
Y96653D01*
Y72047D02*
X118598Y71063D01*
X115645Y102559D02*
X130409Y117323D01*
X113676Y108465D02*
X122535Y117323D01*
X113676Y70079D02*
Y108465D01*
Y70079D02*
X116629Y67126D01*
X111708Y110433D02*
X114661Y113386D01*
X111708Y69095D02*
Y110433D01*
Y69095D02*
X115645Y65158D01*
X106787Y117323D02*
X109739Y114370D01*
Y68110D02*
Y114370D01*
Y68110D02*
X114661Y63189D01*
X98913Y117323D02*
X107771Y108465D01*
Y67126D02*
Y108465D01*
Y67126D02*
X113676Y61221D01*
X105802Y66142D02*
X112692Y59252D01*
X120763D01*
X113676Y61221D02*
X120763D01*
X114661Y63189D02*
X120763D01*
X115645Y65158D02*
X120763D01*
X116629Y67126D02*
X120763D01*
X146157Y18898D02*
X165842D01*
X145173Y16929D02*
X159936D01*
X135330Y26772D02*
X145173Y16929D01*
X135330Y26772D02*
Y48622D01*
X144188Y14961D02*
X154031D01*
X133361Y25787D02*
X144188Y14961D01*
X133361Y25787D02*
Y48622D01*
X143204Y12992D02*
X148125D01*
X131393Y24803D02*
X143204Y12992D01*
X131393Y24803D02*
Y48622D01*
X123519Y12008D02*
Y48622D01*
X122535Y11024D02*
X123519Y12008D01*
X122535Y7087D02*
Y11024D01*
X98913Y7087D02*
X110724Y18898D01*
X91039Y7087D02*
X108755Y24803D01*
X106787Y7087D02*
X112692Y12992D01*
X155999Y111417D02*
X161905Y117323D01*
X151078Y111417D02*
X155999D01*
X125487Y85827D02*
X151078Y111417D01*
X161905Y109449D02*
X169779Y117323D01*
X152062Y109449D02*
X161905D01*
X127456Y84842D02*
X152062Y109449D01*
X167810Y107480D02*
X177653Y117323D01*
X153047Y107480D02*
X167810D01*
X129424Y83858D02*
X153047Y107480D01*
X129424Y75787D02*
Y83858D01*
X127456Y75787D02*
Y84842D01*
X125487Y75787D02*
Y85827D01*
X114661Y113386D02*
Y117323D01*
X148125Y12992D02*
X154031Y7087D01*
X154031Y14961D02*
X161905Y7087D01*
X159936Y16929D02*
X169779Y7087D01*
X165842Y18898D02*
X177653Y7087D01*
X129424Y23819D02*
X146157Y7087D01*
X129424Y23819D02*
Y48622D01*
X114661Y7087D02*
X114759Y7185D01*
X136806Y45079D02*
X137298Y45571D01*
Y48622D01*
X123519Y86811D02*
X154031Y117323D01*
X123519Y75787D02*
Y86811D01*
X118598Y71063D02*
X120763D01*
Y73032D02*
Y91929D01*
X146157Y117323D01*
X134346Y62205D02*
X139267Y67126D01*
X134346Y62205D02*
X139267Y57284D01*
X134346Y62205D02*
X136708Y64567D01*
X139267Y67126D01*
X143204Y71063D01*
Y46528D02*
Y48622D01*
X147928Y51378D02*
X151472D01*
X152062Y50787D01*
X151669Y42913D02*
X152062Y43307D01*
X139267Y57284D02*
X147928D01*
X139267Y67126D02*
X147928D01*
X151669Y42913D02*
X151964Y42618D01*
X149700Y39370D02*
X149822Y39248D01*
X145173Y47047D02*
Y48622D01*
X145468Y39665D02*
Y44265D01*
X143204Y46528D02*
X145468Y44265D01*
X145173Y47047D02*
X147043Y45177D01*
Y43602D02*
Y45177D01*
Y43602D02*
X147731Y42913D01*
X39467Y72935D02*
X42126Y70276D01*
X39467Y72935D02*
Y74016D01*
Y81002D02*
X42126Y83661D01*
X39467Y79921D02*
Y81002D01*
X205123Y110038D02*
X212205D01*
X205123Y106101D02*
X212205D01*
X205123Y102164D02*
X212205D01*
X237008Y111421D02*
Y114762D01*
X240945Y111421D02*
Y114762D01*
X173031Y58465D02*
Y60236D01*
X171653Y57087D02*
X173031Y58465D01*
X164857Y57087D02*
X171653D01*
X173031Y64173D02*
X175295D01*
X141235Y46260D02*
X142613Y44882D01*
Y43701D02*
Y44882D01*
X141235Y46260D02*
Y48622D01*
X139267Y43110D02*
Y48622D01*
X142613Y43701D02*
X143401Y42913D01*
X27853Y74508D02*
X28443Y75098D01*
X48917Y25984D02*
X55510D01*
X175295Y64173D02*
X180217Y69095D01*
X150094D02*
X151279Y70280D01*
Y74803D01*
X153445Y76968D01*
X229134Y111421D02*
Y114762D01*
X225197Y111421D02*
Y114762D01*
X20079Y70176D02*
Y75983D01*
D26*
X184739Y12992D02*
Y30512D01*
X202756Y35038D02*
Y47243D01*
X189265Y35038D02*
X202756D01*
X184739Y30512D02*
X189265Y35038D01*
D27*
X212205Y113975D02*
Y118602D01*
Y90059D02*
Y94290D01*
D28*
X187254Y91535D02*
X187259Y91540D01*
X190251D01*
X83952Y12992D02*
Y106693D01*
Y107283D02*
Y111417D01*
X190251Y97342D02*
Y111417D01*
Y91540D02*
Y97342D01*
X190251D02*
X190251D01*
X160921Y72047D02*
X185531D01*
X157968Y69095D02*
X160921Y72047D01*
X155999Y69095D02*
X157968D01*
X147928Y59252D02*
X155999D01*
X155999Y65158D02*
X155999Y65158D01*
X155999Y65158D02*
Y69095D01*
Y65158D02*
X155999Y65158D01*
X147928Y65158D02*
X155999D01*
X185531Y72047D02*
X188287Y74803D01*
X187254Y97342D02*
X190251D01*
X190251Y97342D01*
D29*
X243307Y43699D02*
X243701D01*
X28051Y79331D02*
Y81298D01*
Y79331D02*
X28445Y78937D01*
X25591Y71357D02*
Y75492D01*
X46063Y70276D02*
X48719Y72931D01*
Y74016D01*
X44488Y79331D02*
X45079Y79921D01*
X48719D01*
X44093Y76968D02*
X45077Y77953D01*
X48719D01*
Y79921D02*
Y81006D01*
Y77953D02*
Y79921D01*
X46063Y83661D02*
X48719Y81006D01*
X25591Y78445D02*
X27953D01*
X28445Y78937D01*
X25591Y75492D02*
X28050D01*
X28443Y75098D01*
X55510Y25984D02*
X55513Y25982D01*
X147928Y67126D02*
X151467D01*
X152062Y46850D02*
X155601D01*
X149700Y39370D02*
X153239D01*
X48719Y74016D02*
Y75984D01*
D30*
X284646Y47243D02*
D03*
Y35038D02*
D03*
X202756D02*
D03*
Y47243D02*
D03*
D31*
X98913Y117323D02*
D03*
X146157D02*
D03*
X138283D02*
D03*
X130409D02*
D03*
X122535D02*
D03*
X114661D02*
D03*
X106787D02*
D03*
X177653D02*
D03*
X169779D02*
D03*
X161905D02*
D03*
X154031D02*
D03*
X91039D02*
D03*
X177653Y7087D02*
D03*
X98913D02*
D03*
X106787D02*
D03*
X114661D02*
D03*
X122535D02*
D03*
X130409D02*
D03*
X138283D02*
D03*
X146157D02*
D03*
X154031D02*
D03*
X161905D02*
D03*
X169779D02*
D03*
X91039D02*
D03*
D32*
X287008Y26378D02*
D03*
X196063Y72835D02*
D03*
X197638Y103543D02*
D03*
X77953Y19291D02*
D03*
X179921Y111417D02*
D03*
X91339Y109449D02*
D03*
X190251Y106693D02*
D03*
X83952D02*
D03*
X95763Y104331D02*
D03*
X177953Y97244D02*
D03*
X102161Y98917D02*
D03*
X183071Y64567D02*
D03*
X36319Y75490D02*
D03*
X142520Y91731D02*
D03*
X179528Y41339D02*
D03*
Y53543D02*
D03*
Y30315D02*
D03*
Y18898D02*
D03*
X188976Y53543D02*
D03*
Y41339D02*
D03*
Y30315D02*
D03*
Y18898D02*
D03*
X155512Y42124D02*
D03*
Y51573D02*
D03*
X79528Y29920D02*
D03*
Y100786D02*
D03*
Y88975D02*
D03*
X93307Y91337D02*
D03*
X153150Y29920D02*
D03*
X140551D02*
D03*
X218504Y4331D02*
D03*
X3937Y42518D02*
D03*
X82677Y3935D02*
D03*
Y120471D02*
D03*
X43307D02*
D03*
X3937Y10236D02*
D03*
Y120471D02*
D03*
X49213Y10235D02*
D03*
X92520Y23620D02*
D03*
X217323Y98032D02*
D03*
X147731Y98327D02*
D03*
X243701Y41337D02*
D03*
X17520Y81888D02*
D03*
X25591Y81494D02*
D03*
Y71357D02*
D03*
X46063Y39369D02*
D03*
Y56298D02*
D03*
X246850Y85825D02*
D03*
X93307Y65353D02*
D03*
X104724Y28739D02*
D03*
X197638Y98819D02*
D03*
X243701Y41337D02*
D03*
Y37006D02*
D03*
Y45668D02*
D03*
X155999Y65158D02*
D03*
Y59252D02*
D03*
X46063Y83661D02*
D03*
X42126D02*
D03*
Y70276D02*
D03*
X46063D02*
D03*
X205123Y110038D02*
D03*
Y106101D02*
D03*
Y102164D02*
D03*
X237008Y111421D02*
D03*
X240945D02*
D03*
X188287Y74803D02*
D03*
X190251Y91540D02*
D03*
X25591Y78445D02*
D03*
Y75492D02*
D03*
X48917Y25984D02*
D03*
X101279D02*
D03*
X248819Y111421D02*
D03*
X252756D02*
D03*
X221260D02*
D03*
X217323D02*
D03*
X205123Y113975D02*
D03*
X252756Y96949D02*
D03*
X177953Y91339D02*
D03*
X159843Y74606D02*
D03*
X153239Y39370D02*
D03*
X79528Y41731D02*
D03*
Y53542D02*
D03*
Y65353D02*
D03*
Y77164D02*
D03*
X183760Y74902D02*
D03*
X99213Y101969D02*
D03*
X104134Y63189D02*
D03*
X142520Y39764D02*
D03*
X152362Y56299D02*
D03*
X203543Y98819D02*
D03*
X199606Y66928D02*
D03*
X203543Y70865D02*
D03*
X207480Y74802D02*
D03*
X192913Y64567D02*
D03*
X196063Y78740D02*
D03*
X3543Y81888D02*
D03*
X229134Y111421D02*
D03*
X225197D02*
D03*
X20079Y70176D02*
D03*
X29528Y56298D02*
D03*
X151575Y67618D02*
D03*
D33*
X131983Y59842D02*
D03*
Y64567D02*
D03*
X136708Y59842D02*
D03*
Y64567D02*
D03*
M02*
